<?xml version="1.0" encoding="utf-8"?>
<!-- Generator: Adobe Illustrator 19.2.1, SVG Export Plug-In . SVG Version: 6.00 Build 0)  -->
<svg version="1.1" id="Ruby_big" xmlns="http://www.w3.org/2000/svg" xmlns:xlink="http://www.w3.org/1999/xlink" x="0px" y="0px"
	 viewBox="0 0 256 256" style="enable-background:new 0 0 256 256;" xml:space="preserve">
<style type="text/css">
	.st0{fill:#1B75B3;}
	.st1{fill:#FFFFFF;}
</style>
<title>ruby</title>
<rect class="st0" width="256" height="256"/>
<path id="path3" class="st1" d="M149.2,115.1c0,0-1.6-15.2-16.7-15.6c-15.1-0.4-22.8,11.4-22.8,28.3s8.6,30.4,23.3,30.4
	s16.3-16.9,16.3-16.9l28.2,1.7c0,0,1.7,15.3-10.1,26.9c-11.8,11.6-26.2,13.5-36.3,13.5s-24.1,0.2-37.6-13.7s-15.8-27.3-15.8-40.6
	S80,98.3,96.1,85c10.9-9,22-12.4,33.1-12.4c46.3,0,49.4,42.7,49.4,42.7L149.2,115.1z"/>
</svg>
