<svg id="C__big" data-name="C++_big" xmlns="http://www.w3.org/2000/svg" viewBox="0 0 256 256"><defs><style>.cls-1{fill:#00579f;}.cls-2{fill:#fff;}</style></defs><title>C++_v2</title><rect class="cls-1" width="256" height="256"/><path class="cls-2" d="M95.64,185.78q-13.41,0-23.46-4.15A45.81,45.81,0,0,1,55.5,170.22a47.1,47.1,0,0,1-9.9-17.08A66.43,66.43,0,0,1,42.33,132a58.44,58.44,0,0,1,3.27-19,52.57,52.57,0,0,1,9.9-17.32A50.65,50.65,0,0,1,72.18,83.08q10.06-4.87,23.46-4.87,5.27,0,9.65.24t8.38,0.8q4,0.56,7.82,1.44t8,2a93.17,93.17,0,0,0,1.12,10.53q1,6.22,2.55,12.61a5.64,5.64,0,0,1-2.55.64,7.79,7.79,0,0,1-2.32-.32,2.11,2.11,0,0,1-1.36-1.76q-2.87-10.54-9.09-15t-18-4.47a44.71,44.71,0,0,0-17.48,3.19A35.48,35.48,0,0,0,69.54,97a37.8,37.8,0,0,0-7.82,13.8,57.58,57.58,0,0,0-2.63,18,59.14,59.14,0,0,0,3.35,20.27,51.73,51.73,0,0,0,9,16,40.07,40.07,0,0,0,13.25,10.37,36.66,36.66,0,0,0,16.2,3.67,42.3,42.3,0,0,0,11.57-1.36,21.58,21.58,0,0,0,7.82-3.91,22.66,22.66,0,0,0,5.27-6.3,67.43,67.43,0,0,0,4.07-8.54,3.9,3.9,0,0,1,3.83-2.39,6.42,6.42,0,0,1,1.68.24,4.85,4.85,0,0,1,1.36.56q-1.92,5.59-3.83,12.29t-3.19,13.41q-7.82,1.28-16,2T95.64,185.78Z"/><path class="cls-2" d="M165.65,154h-5V139.39H146.11v-5h14.58V119.85h5v14.58h14.58v5H165.65V154Z"/><path class="cls-2" d="M209.09,154h-5V139.39H189.55v-5h14.58V119.85h5v14.58h14.58v5H209.09V154Z"/></svg>