<svg id="Ruby_big" data-name="Ruby big" xmlns="http://www.w3.org/2000/svg" viewBox="0 0 256 256"><defs><style>.cls-1{fill:#28334c;}.cls-2{fill:#fff;}</style></defs><title>ruby</title><rect class="cls-1" width="256" height="256"/><path class="cls-2" d="M110,82.87C125.3,81.54,129.72,71.67,147.7,70c8.84-.74,14.44,1,15,4.13s-3.83,4.86-9.13,5.3c-7.37.74-10.46-1.92-11.05-4.42-5.45.59-6.34,2.95-6,4.57,0.59,3.09,7.22,6.19,18.56,5.16,12.82-1,17.09-6,16.06-11.2C169.8,67,159.93,61.5,142.25,63.12c-22.69,2.06-22.54,12.52-38,13.85-6.34.59-9.87-.88-10.46-3.39s2.65-3.68,6.34-4c3.39-.29,7.51.29,9.43,1.33,1.47-.74,1.92-1.47,1.77-2.36-0.59-2.36-5.3-3.39-11.2-2.95-11.49,1-11.49,6.19-11.05,8.4C90.24,79.92,99.08,83.9,110,82.87Z" transform="translate(0)"/><path class="cls-2" d="M187,108.8c-14.14,3.24-32.27,5.45-54.07,5.45a255.38,255.38,0,0,1-54.52-5.45C65.78,105.56,59,102,56.64,98.34a128.49,128.49,0,0,0,6,23.91,32.86,32.86,0,0,0-8.78,7.91,30.54,30.54,0,0,0-6.78,20.92c0.44,7.22,4,13.11,9.58,17.68,5.89,4.57,12.23,5.89,19.45,4.57,2.8-.44,5.89-1.92,8.69-2.8-5.89,0-10.9-1.92-15.91-5.89a23.89,23.89,0,0,1-10-16.35,21.92,21.92,0,0,1,3.54-17.39,24.46,24.46,0,0,1,2.49-2.7,141,141,0,0,0,6.79,14.34C77.12,150.79,82.57,158,88,165.82a57.17,57.17,0,0,1,5,13.7c3.54,5,8.69,8.25,15,10a61.38,61.38,0,0,0,24.16,3.54h0.88a68.49,68.49,0,0,0,24.9-3.54c5.89-1.92,10.9-5,14.59-10H173a55.49,55.49,0,0,1,4.57-13.7c5.45-7.81,10.9-15,16.35-23.28a142.42,142.42,0,0,0,15-44.2C206,102.46,199.27,106,187,108.8Z" transform="translate(0)"/><path class="cls-2" d="M78.3,97.45c14.14,3.54,32.27,5.45,54.07,5.45,22.25,0,39.93-1.92,54.07-5.45,15-3.54,22.25-8.25,22.25-12.67,0-3.24-3.24-6.34-9.13-8.69a5,5,0,0,1,2.36,4c0,4.57-6.78,8.25-20.48,11.35-12.67,2.8-28.88,4.71-48.62,4.71-19,0-36-1.92-48.18-4.57-13.11-3.24-20-6.78-20-11.35,0-1.92.88-3.54,3.54-5.45-8.25,3.24-12.67,5.89-12.67,10C55.91,89.35,63.27,93.92,78.3,97.45Z" transform="translate(0)"/></svg>