<?xml version="1.0" encoding="utf-8"?>
<!-- Generator: Adobe Illustrator 19.2.1, SVG Export Plug-In . SVG Version: 6.00 Build 0)  -->
<svg version="1.1" id="Ruby_big" xmlns="http://www.w3.org/2000/svg" xmlns:xlink="http://www.w3.org/1999/xlink" x="0px" y="0px"
	 viewBox="0 0 256 256" style="enable-background:new 0 0 256 256;" xml:space="preserve">
<style type="text/css">
	.st0{fill:#0690CF;}
	.st1{fill:#FFFFFF;}
</style>
<title>ruby</title>
<rect class="st0" width="256" height="256"/>
<path class="st1" d="M59.4,128.2v-0.1c0-14.3,10.8-26.1,26.3-26.1c7.6,0,12.7,2,16.8,5.1c1.4,1,2.2,2.7,2.2,4.4c0,3-2.4,5.4-5.4,5.4
	c0,0,0,0-0.1,0c-1.2,0-2.3-0.4-3.3-1.1c-2.9-2.3-6.6-3.6-10.3-3.6c-8.5,0-14.6,7.1-14.6,15.7v0.1c0,8.6,6,15.8,14.6,15.8
	c4,0.1,7.9-1.3,10.9-4c2.1-1.9,5.3-1.8,7.3,0.2c1.9,2.1,1.8,5.3-0.2,7.3c-0.1,0.1-0.3,0.2-0.4,0.4c-4.5,4-9.9,6.3-17.9,6.3
	c-14,0.2-25.6-11-25.8-25.1C59.4,128.8,59.4,128.5,59.4,128.2z"/>
<path class="st1" d="M113.8,148c-1.3-1-2.1-2.5-2.1-4.2c0-2.8,2.3-5.1,5.1-5.1h0.1c1.1,0,2.2,0.3,3.2,1c3.7,2.9,8.2,4.5,12.9,4.5
	c4.5,0,7.3-1.8,7.3-4.7v-0.1c0-2.8-1.7-4.2-10.2-6.4c-10.2-2.6-16.7-5.4-16.7-15.4v-0.1c0-9.2,7.3-15.2,17.6-15.2
	c5.6-0.1,11.2,1.5,16,4.5c2.4,1.5,3.2,4.6,1.7,7.1c-0.9,1.5-2.6,2.5-4.4,2.4c-1,0-2-0.3-2.8-0.8c-3.2-2.1-6.8-3.2-10.6-3.4
	c-4.2,0-6.5,1.9-6.5,4.4v0.1c0,3.3,2.2,4.4,10.9,6.6c10.2,2.7,16,6.3,16,15.1v0.1c0,10-7.6,15.6-18.5,15.6
	C125.9,154,119.3,151.9,113.8,148z"/>
<path class="st1" d="M159.1,148c-1.3-1-2.1-2.5-2.1-4.2c0-2.8,2.3-5.1,5.1-5.1h0.1c1.1,0,2.2,0.3,3.2,1c3.7,2.9,8.2,4.5,12.9,4.5
	c4.5,0,7.3-1.8,7.3-4.7v-0.1c0-2.8-1.7-4.2-10.2-6.4c-10.2-2.6-16.7-5.4-16.7-15.4v-0.1c0-9.2,7.3-15.2,17.6-15.2
	c5.6-0.1,11.2,1.5,16,4.5c2.4,1.5,3.2,4.6,1.7,7.1c-0.9,1.5-2.6,2.5-4.4,2.4c-1,0-2-0.3-2.8-0.8c-3.2-2.1-6.8-3.2-10.6-3.4
	c-4.2,0-6.5,1.9-6.5,4.4v0.1c0,3.3,2.2,4.4,10.9,6.6c10.2,2.7,16,6.3,16,15.1v0.1c0,10-7.6,15.6-18.5,15.6
	C171.3,154,164.7,151.9,159.1,148z"/>
</svg>
