<svg id="Ruby_big" data-name="Ruby big" xmlns="http://www.w3.org/2000/svg" viewBox="0 0 256 256"><defs><style>.cls-1{fill:#0690cf;}.cls-2{fill:#fff;}</style></defs><title>ruby</title><rect class="cls-1" width="256" height="256"/><path class="cls-2" d="M70.19,123.52v-0.13c0-12.46,9.39-22.66,22.85-22.66,6.57,0,11,1.75,14.65,4.45a4.82,4.82,0,0,1,1.88,3.82,4.7,4.7,0,0,1-4.76,4.7,5.06,5.06,0,0,1-2.88-.94,14.42,14.42,0,0,0-9-3.13c-7.39,0-12.71,6.14-12.71,13.65v0.13c0,7.51,5.2,13.77,12.71,13.77a14.06,14.06,0,0,0,9.52-3.44,4.47,4.47,0,1,1,5.76,6.82c-3.94,3.44-8.58,5.51-15.59,5.51A22.12,22.12,0,0,1,70.19,123.52Z" transform="translate(0.27 0)"/><path class="cls-2" d="M117.46,140.67a4.5,4.5,0,0,1-1.82-3.63,4.44,4.44,0,0,1,4.51-4.45,4.64,4.64,0,0,1,2.75.88,18.48,18.48,0,0,0,11.21,3.94c3.94,0,6.32-1.57,6.32-4.13v-0.12c0-2.44-1.5-3.69-8.83-5.57-8.83-2.25-14.52-4.7-14.52-13.4v-0.12c0-8,6.39-13.21,15.34-13.21a25.44,25.44,0,0,1,13.9,3.88,4.46,4.46,0,0,1-2.38,8.26,4.63,4.63,0,0,1-2.44-.69,18.23,18.23,0,0,0-9.2-2.94c-3.69,0-5.63,1.69-5.63,3.82v0.13c0,2.88,1.88,3.82,9.45,5.76,8.89,2.32,13.9,5.51,13.9,13.15v0.13c0,8.7-6.64,13.59-16.09,13.59A28.29,28.29,0,0,1,117.46,140.67Z" transform="translate(0.27 0)"/><path class="cls-2" d="M156.91,140.67a4.5,4.5,0,0,1-1.82-3.63,4.44,4.44,0,0,1,4.51-4.45,4.64,4.64,0,0,1,2.75.88,18.48,18.48,0,0,0,11.21,3.94c3.94,0,6.32-1.57,6.32-4.13v-0.12c0-2.44-1.5-3.69-8.83-5.57-8.83-2.25-14.52-4.7-14.52-13.4v-0.12c0-8,6.39-13.21,15.34-13.21a25.44,25.44,0,0,1,13.9,3.88,4.46,4.46,0,0,1-2.38,8.26,4.63,4.63,0,0,1-2.44-.69,18.23,18.23,0,0,0-9.2-2.94c-3.69,0-5.63,1.69-5.63,3.82v0.13c0,2.88,1.88,3.82,9.45,5.76,8.89,2.32,13.9,5.51,13.9,13.15v0.13c0,8.7-6.64,13.59-16.09,13.59A28.29,28.29,0,0,1,156.91,140.67Z" transform="translate(0.27 0)"/></svg>