<svg id="Ruby_big" data-name="Ruby big" xmlns="http://www.w3.org/2000/svg" viewBox="0 0 256 256"><defs><style>.cls-1{fill:#6398aa;}.cls-2{fill:none;}.cls-3{fill:#fff;}</style></defs><title>ruby</title><rect class="cls-1" width="256" height="256"/><path class="cls-2" d="M103.06,105.37a5.74,5.74,0,0,1,5.34,1.8c1.95,2.34,2.74,2.16,7.36-1.73,4.39-3.69,6.22-4.19,12-3.27,3.73,0.6,7.94,2.13,9.36,3.4,2.19,2,3.15,1.84,6.54-.92,2.19-1.78,5-3.23,6.31-3.23s2.34-.37,2.34-0.83c0-1.57-24.25-41.27-25.17-41.21-1.09.06-25.94,41.72-26.7,44.76C100.09,105.41,101.1,105.88,103.06,105.37Z"/><path class="cls-2" d="M122.6,108.89c-4.9,1.23-12.36,15.51-12.39,23.71,0,12.78,12.11,17,21.59,7.55a22,22,0,0,0,4.76-24.06C133.86,109.65,129.19,107.24,122.6,108.89Zm2.52,24.51c-0.8,0-3-1.52-4.82-3.37a12.84,12.84,0,0,1-3.31-8c0-4.21.26-4.36,2.29-1.68,2.51,3.31,7,3.88,8.69,1.12a3.24,3.24,0,0,0-.74-3.7c-2.65-2.65-2.33-6.25.56-6.25,3.2,0,7.67,6.52,7.67,11.2C135.45,126.15,128.44,133.4,125.12,133.4Z"/><path class="cls-2" d="M86.62,140.68c0,6.63,9.13,11.85,14.47,8.26h0c1-.7,1.51-4,1.08-7.51-0.69-5.69-1.08-6.11-4.15-4.46-4.42,2.37-9.17-2.12-10.79-10.18-1.22-6.11-1.6-6,7.31-2.35,1.12,0.46,4-1.1,6.31-3.45,4.31-4.31,5.73-9.49,2.6-9.49a1.69,1.69,0,0,0-1.68,1.68c0,2.42-4.61,2.08-5.64-.42-0.61-1.46-1.9-.94-4.2,1.68-1.83,2.08-4.06,3.79-5,3.79s-2.12-1.7-2.7-3.79c-1-3.65-1.15-3.67-3.48-.64-2,2.66-2.06,3.51-.12,5.45S86.62,135.35,86.62,140.68Z"/><path class="cls-2" d="M229.76,116.14c0,2.67,1.74,10.57,2.28,10.49,0.12,0,8.18-3,17.9-6.67h0l6.06-2.27v-4.4l-7.32,0C231.73,113.2,229.74,113.5,229.76,116.14Z"/><path class="cls-2" d="M16.92,124.31c0.09-.09,1-2.58,2-5.53l1.81-5.36-15.87-.53c-1.68-.06-3.31-0.09-4.83-0.11v5.54C7.67,121.37,16.58,124.64,16.92,124.31Z"/><path class="cls-2" d="M177.53,130c5,19.81,12.07,26.59,19.3,18.6h0c2.43-2.68,2.86-5.6,2.34-15.91-0.57-11.22-1.19-13.2-5.55-17.76-7.89-8.24-17.64-6.14-11.93,2.57,3,4.63,6.73,3.84,5.43-1.16-1-4,.9-4.09,4.29-0.23,6.35,7.23,4.75,17.26-2.76,17.26-5.14,0-6.74-2.2-10.09-13.89-1.53-5.32-3.39-9.68-4.13-9.68-2.48,0-3.59,2.19-2,4.05C173.2,114.89,175.52,122.16,177.53,130Z"/><path class="cls-2" d="M141.18,132.53c2.71,10.82,16.88,15,24.1,7.18,7-7.61,6.31-19.33-1.61-27.78-4.09-4.37-13.18-5.12-16.9-1.4C143.34,114,139.91,127.46,141.18,132.53Zm7.7-16.62c1.74,4.31,5.4,5.94,8.61,3.83,2-1.31,1.9-1.93-.57-3.82-3.29-2.52-3.94-6.1-1.1-6.1,2.54,0,11.62,9.93,11.62,12.71S161,130,157.34,130c-1.44,0-4.3-1.18-6.36-2.62-2.76-1.94-3.71-4.25-3.64-8.84C147.43,113.43,147.7,113,148.88,115.9Z"/><path class="cls-2" d="M218.1,108.45c-1.76-.57-2,0.06-1,2.4,6.42,15.24,6.77,22.89,1.17,25-3.85,1.48-7.94-4.06-11.15-15.11-2.49-8.56-5.09-12.41-7.05-10.45-0.47.47,0.35,3.19,1.83,6s3.5,11.45,4.5,19.1,2.92,15.66,4.28,17.8c3.53,5.56,9.14,4.22,12.78-3s4-2.4.5,6c-3.63,8.68-14.4,11.28-26.87,6.49-2-.77-2.67,0-2.67,3.14,0,2.29-1.53,6.11-3.4,8.48l-3.4,4.32,4.66,0.79c8,1.36,19.08-.4,25.66-4.1,11.59-6.52,14.28-18.57,9.16-41.07C222.78,115.43,220.64,109.28,218.1,108.45Z"/><path class="cls-2" d="M71.49,122.53c-1.87-5.42-3.39-11.26-3.39-13,0-5.81-2.92-3.13-5.11,4.7-2.9,10.35-11.61,19.15-18.93,19.11-6.36,0-8.43-1.19-11.06-6.18-4.71-9,.42-22.7,13.53-36.19,9.6-9.88,14.84-10.78,14.84-2.53,0,12.85-8.86,31.78-13.53,28.89-2.28-1.41-1.91-7.64.74-12.42,2.25-4.07,1.8-10.27-.76-10.27-3,0-8.83,10.79-9.6,17.67-0.69,6.08-.26,7.56,2.64,9.11C51,126.88,64.3,110.3,65,91.38c0.35-9.94-1.57-12.73-7.7-11.19-8.92,2.24-32.94,33.23-32.94,42.5,0,7.25,3.64,12.35,10,14.07,10.9,2.93,21.43-2.28,28.89-14.3l3.14-5.05v6.86c0,9.94-6.47,15.17-26.93,21.76-5.09,1.64-9.47,3.15-9.73,3.37-0.95.77,8.69,14.31,10.19,14.31A96.38,96.38,0,0,0,51,161h0C75.21,154,79.53,145.9,71.49,122.53Z"/><path class="cls-2" d="M198.39,184.68c-7.35,1.38-11.92,0-14.27-4.42-1.52-2.84-1.06-4.23,2.74-8.19,5.65-5.9,4.76-11.33-2.52-15.43A22.75,22.75,0,0,1,176.5,148l-2.76-5.78-5.91,4a21.32,21.32,0,0,1-23.52.67l-5.45-3.32-6.33,4.3c-6.34,4.31-13.64,4.87-21.07,1.61-2-.9-2.95-0.55-2.95,1.14,0,1.34-1.93,3.31-4.29,4.39-7.07,3.22-14,2.37-18.65-2.31l-4.27-4.27-3.44,4.38a46.18,46.18,0,0,1-9.74,8.35c-4.29,2.71-9.59,9.31-16.63,20.69C45.81,191,41.16,199,41.16,199.61s4.36-.8,9.68-3S73,187.64,88.31,181.7h0c15.28-5.94,30.43-11.74,33.67-12.89,5.57-2,7.44-1.49,34.52,9.21,15.74,6.22,31.27,12.28,34.52,13.47s9.92,3.76,14.84,5.72c5.61,2.24,8.48,2.78,7.7,1.45C204.75,183.78,204.48,183.53,198.39,184.68Z"/><polygon class="cls-3" points="29.38 208.4 29.38 208.4 29.38 208.4 29.38 208.4"/><path class="cls-3" d="M151,127.41c2.06,1.44,4.92,2.62,6.36,2.62,3.65,0,10.1-4.78,10.1-7.49s-9.08-12.71-11.62-12.71c-2.84,0-2.2,3.57,1.1,6.1,2.47,1.89,2.56,2.51.57,3.82-3.21,2.11-6.86.48-8.61-3.83-1.19-2.94-1.45-2.47-1.54,2.66C147.26,123.16,148.21,125.47,151,127.41Z"/><path class="cls-3" d="M127.78,111.51c-2.88,0-3.2,3.6-.56,6.25a3.24,3.24,0,0,1,.74,3.7c-1.71,2.77-6.18,2.2-8.69-1.12-2-2.68-2.24-2.53-2.29,1.68a12.84,12.84,0,0,0,3.31,8c1.85,1.85,4,3.37,4.82,3.37,3.33,0,10.33-7.25,10.33-10.69C135.45,118,131,111.51,127.78,111.51Z"/><path class="cls-3" d="M249.94,120h0c-9.72,3.65-17.78,6.65-17.9,6.67-0.54.08-2.26-7.82-2.28-10.49s2-2.94,18.92-2.88l7.32,0v-2.87l-27.46,1-1.89-4.15c-1.47-3.23-3.16-4.15-7.61-4.15-3.15,0-6.71,1.18-7.91,2.63-2,2.39-2.32,2.39-3.66,0-1.7-3-8.18-3.5-10.89-.79-1.31,1.31-2.81,1.32-5.17.06-4.16-2.23-19-2.1-21.87.19-4.06,3.28-12.18-6-27.25-31.32-14.6-24.48-15-24.94-17.41-21L116.29,66.5c-3.35,5.34-6.1,10-6.1,10.43,0,1.15-13.85,23.36-16.62,26.65-1.85,2.19-3.86,2.72-7.38,1.95s-5.82-.18-8.11,1.89c-1.8,1.62-3.78,2.44-4.4,1.82s-1.47-7.59-1.89-15.47c-0.67-12.84-1.19-14.68-5-17.66-2.32-1.83-5.51-3.32-7.07-3.32-7.53,0-24.46,16-35.67,33.65l-2.65,4.18L0,110.18v2.59c1.53,0,3.15.06,4.83,0.11l15.87,0.53-1.81,5.36c-1,2.95-1.88,5.44-2,5.53-0.34.34-9.25-2.94-16.92-6V123c12.19,4.71,19.27,8,19.27,8.93s1.94,3.53,4.31,5.9c3.94,3.94,4.08,4.56,1.68,7.21-3.68,4.06-3.42,5.17,3.63,15.87,6.52,9.89,8.31,10.7,17,7.66,2.9-1,6-1.58,6.9-1.26s-4,9.51-10.91,20.44S29.38,208,29.38,208.4c0,1.34,1.13,1,29.85-10.36,49.52-19.51,66.41-25.91,68.36-25.91,1,0,9.5,3,18.78,6.69,47.05,18.66,77.31,30.35,78.56,30.35,0.76,0-2-5.25-6.16-11.66s-7.54-12-7.54-12.5,2.6-1.7,5.78-2.75,8.43-4.84,11.66-8.42c7.21-8,9.08-17.7,6.21-32.27-1.1-5.6-1.76-10.35-1.47-10.55s10.07-3.89,22.59-8.56v-4.77Zm-75.53-10.14c0.75,0,2.61,4.36,4.13,9.68,3.35,11.69,5,13.89,10.09,13.89,7.51,0,9.11-10,2.76-17.26-3.39-3.86-5.33-3.75-4.29.23,1.31,5-2.39,5.79-5.43,1.16-5.71-8.71,4-10.81,11.93-2.57,4.37,4.56,5,6.54,5.55,17.76,0.52,10.31.09,13.23-2.34,15.91h0c-7.23,8-14.27,1.21-19.3-18.6-2-7.87-4.33-15.14-5.16-16.15C170.82,112,171.92,109.83,174.41,109.83Zm-10.74,2.1c7.92,8.45,8.6,20.17,1.61,27.78-7.22,7.86-21.38,3.64-24.1-7.18-1.27-5.07,2.15-18.57,5.59-22C150.49,106.81,159.58,107.56,163.67,111.93Zm-63.25-7.8c0.77-3,25.62-44.7,26.7-44.76,0.92-.05,25.17,39.65,25.17,41.21,0,0.45-1.05.83-2.34,0.83s-4.13,1.45-6.31,3.23c-3.4,2.76-4.35,2.9-6.54.92-1.41-1.27-5.62-2.8-9.36-3.4-5.75-.92-7.58-0.42-12,3.27-4.62,3.89-5.42,4.07-7.36,1.73a5.74,5.74,0,0,0-5.34-1.8C101.1,105.88,100.09,105.41,100.41,104.13Zm31.39,36c-9.48,9.48-21.63,5.23-21.59-7.55,0-8.2,7.49-22.48,12.39-23.71,6.59-1.65,11.27.76,14,7.2A22,22,0,0,1,131.8,140.15Zm-51-26.34c2.33-3,2.45-3,3.48.64,0.59,2.08,1.8,3.79,2.7,3.79s3.13-1.7,5-3.79c2.3-2.62,3.59-3.14,4.2-1.68,1,2.5,5.64,2.84,5.64.42a1.69,1.69,0,0,1,1.68-1.68c3.13,0,1.71,5.18-2.6,9.49-2.36,2.36-5.2,3.91-6.31,3.45-8.9-3.65-8.53-3.77-7.31,2.35C88.85,134.85,93.6,139.34,98,137c3.08-1.65,3.46-1.23,4.15,4.46,0.43,3.53,0,6.82-1.08,7.51h0c-5.34,3.58-14.47-1.63-14.47-8.26,0-5.33-3.9-19.36-6-21.42S78.75,116.48,80.79,113.82ZM51,161h0a96.38,96.38,0,0,1-11.07,2.74c-1.5,0-11.14-13.54-10.19-14.31,0.26-.21,4.64-1.73,9.73-3.37,20.46-6.59,26.94-11.82,26.93-21.76V117.4l-3.14,5.05c-7.46,12-18,17.23-28.89,14.3-6.41-1.73-10-6.82-10-14.07,0-9.27,24-40.26,32.94-42.5,6.13-1.54,8.05,1.26,7.7,11.19-0.67,18.92-14,35.5-24.12,30.07-2.9-1.55-3.32-3-2.64-9.11,0.78-6.88,6.64-17.67,9.6-17.67,2.55,0,3,6.2.76,10.27-2.65,4.78-3,11-.74,12.42,4.67,2.89,13.53-16,13.53-28.89,0-8.24-5.24-7.35-14.84,2.53C33.42,104.5,28.28,118.24,33,127.19c2.63,5,4.7,6.15,11.06,6.18,7.32,0,16-8.76,18.93-19.11,2.19-7.83,5.11-10.51,5.11-4.7,0,1.71,1.53,7.54,3.39,13C79.53,145.9,75.21,154,51,161Zm162.54,37.69c0.79,1.33-2.08.79-7.7-1.45-4.92-2-11.6-4.54-14.84-5.72S172.24,184.24,156.5,178c-27.08-10.7-28.94-11.2-34.52-9.21-3.24,1.15-18.39,7-33.67,12.89h0C73,187.64,56.17,194.33,50.84,196.57s-9.68,3.61-9.68,3,4.65-8.56,10.33-17.75c7-11.38,12.34-18,16.63-20.69a46.18,46.18,0,0,0,9.74-8.35l3.44-4.38,4.27,4.27c4.68,4.68,11.58,5.53,18.65,2.31,2.36-1.07,4.29-3,4.29-4.39,0-1.69.9-2,2.95-1.14,7.42,3.26,14.72,2.7,21.07-1.61l6.33-4.3,5.45,3.32a21.32,21.32,0,0,0,23.52-.67l5.91-4L176.5,148a22.75,22.75,0,0,0,7.84,8.64c7.29,4.1,8.18,9.53,2.52,15.43-3.79,4-4.26,5.35-2.74,8.19,2.35,4.38,6.91,5.8,14.27,4.42C204.48,183.53,204.75,183.78,213.55,198.66Zm4.35-23.35c-6.58,3.7-17.61,5.46-25.66,4.1l-4.66-.79,3.4-4.32c1.87-2.38,3.4-6.19,3.4-8.48,0-3.11.68-3.9,2.67-3.14,12.48,4.79,23.25,2.19,26.87-6.49,3.49-8.36,3.09-13.15-.5-6s-9.25,8.61-12.78,3c-1.36-2.14-3.28-10.15-4.28-17.8s-3-16.24-4.5-19.1-2.3-5.57-1.83-6c2-2,4.56,1.89,7.05,10.45,3.21,11.05,7.3,16.59,11.15,15.11,5.61-2.15,5.25-9.8-1.17-25-1-2.35-.72-3,1-2.4,2.54,0.82,4.67,7,9,25.79C232.19,156.74,229.5,168.8,217.9,175.31Z"/></svg>