<svg id="Ruby_big" data-name="Ruby big" xmlns="http://www.w3.org/2000/svg" viewBox="0 0 256 256"><defs><style>.cls-1{fill:#e46e2e;}.cls-2{fill:#fff;}</style></defs><title>ruby</title><rect class="cls-1" width="256" height="256"/><g id="Imported-Layers-Copy"><g id="Group"><path id="Fill-8" class="cls-2" d="M194.3,44.27a13.42,13.42,0,1,1-14-13,13.5,13.5,0,0,1,14,13" transform="translate(0 0)"/><path id="Fill-9" class="cls-2" d="M130.22,176.54c-29.54,0-55.27-10.73-68.67-26.58a72.74,72.74,0,0,0,137.33,0c-13.39,15.85-39.12,26.58-68.67,26.58" transform="translate(0 0)"/><path id="Fill-10" class="cls-2" d="M130.22,73.36c29.54,0,55.27,10.73,68.67,26.58a72.74,72.74,0,0,0-137.33,0c13.39-15.85,39.12-26.58,68.67-26.58" transform="translate(0 0)"/><path id="Fill-11" class="cls-2" d="M95.41,207.91A15.95,15.95,0,1,1,78.8,192.52a16,16,0,0,1,16.61,15.39" transform="translate(0 0)"/><path id="Fill-12" class="cls-2" d="M67.28,67.19a9.84,9.84,0,1,1,9.32-10.26A9.79,9.79,0,0,1,67.28,67.19Z" transform="translate(0 0)"/></g></g></svg>