<svg id="Ruby_big" data-name="Ruby big" xmlns="http://www.w3.org/2000/svg" viewBox="0 0 256 256"><defs><style>.cls-1{fill:#294e82;}.cls-2,.cls-3{fill:#f6f6f6;}.cls-2{stroke:#294e82;stroke-miterlimit:10;stroke-width:2px;}</style></defs><title>css</title><rect class="cls-1" width="256" height="256"/><path id="path27" class="cls-2" d="M215,133.19a10.59,10.59,0,0,0-3.49,8.35v13.54c0,4.5-1.38,7.92-4.51,10.27A18.45,18.45,0,0,1,196,169l-2.46,0V162.2A8.19,8.19,0,0,0,197.5,160a9,9,0,0,0,2.76-6.91V142.16c0.06-3.71.34-6.62,1.7-8.73s4-3.94,7.92-5.53q-6.5-3-8.73-7.78c-0.87-1.9-.89-4.46-0.89-7.69v-10a9.62,9.62,0,0,0-2.42-7,7.6,7.6,0,0,0-4.27-2.07V87.07c2.93,0,4.41,0,6.12,0,2.63,0,4.83,1.42,6.75,2.92a13.22,13.22,0,0,1,4.44,6.66,15.37,15.37,0,0,1,.57,4.63v11.59c0,4.09,1.21,7.14,3.28,9.12a13.94,13.94,0,0,0,5.63,3.16v5.24a12.82,12.82,0,0,0-5.41,2.81h0Z" transform="translate(0 0)"/><path id="path29" class="cls-2" d="M59.35,87.07H57.14c-2.63,0-4.84,1.42-6.75,2.92a11.29,11.29,0,0,0-4.44,6.66,23.3,23.3,0,0,0-.25,4.63v11.59A12.32,12.32,0,0,1,42.1,122c-1.16,1.15-3.65,2.2-6.47,3.16v5.24a16.84,16.84,0,0,1,6.25,2.81,10.81,10.81,0,0,1,3.81,8.35v13.54c0,4.5,1.07,7.92,4.19,10.27A18.47,18.47,0,0,0,60.79,169l2.78,0v-6.75a9.7,9.7,0,0,1-4.24-2.2c-1.56-1.42-2.45-3.71-2.45-6.91V142.17c-0.06-3.72-.66-6.62-2-8.73s-4-3.94-7.93-5.53q6.51-3,8.73-7.77a18.85,18.85,0,0,0,1.21-7.69v-10c0-3.31.77-5.63,2.1-7a8.67,8.67,0,0,1,3.79-1.79l2.82,0V87.07H59.35Z" transform="translate(0 0)"/><path id="path21" class="cls-3" d="M183.09,126.95q10.41,3.64,10.41,12.47a11.15,11.15,0,0,1-4.31,9.22c-2.87,2.28-7,3.69-12.28,3.69a30.07,30.07,0,0,1-14.79-4.08,13.1,13.1,0,0,1,1.06-4.42,12.07,12.07,0,0,1,2.31-3.8q6.25,3.25,10.88,3.25a6.37,6.37,0,0,0,3.37-.74,2.24,2.24,0,0,0,1.18-2q0-2.33-3.6-3.49L173,135.47q-9.78-3.56-9.78-11.62a11.56,11.56,0,0,1,4.11-9.34,17.07,17.07,0,0,1,11.07-4.28,33.61,33.61,0,0,1,7.59,1c2.76,0.65,5,2.24,6.81,3.12a11,11,0,0,1-.86,4.77,8.05,8.05,0,0,1-2.51,3.68q-6.58-2.95-11-2.95a3.59,3.59,0,0,0-2.39.7,2.23,2.23,0,0,0-.82,1.78q0,1.86,3,2.94l4.86,1.71h0Z" transform="translate(0 0)"/><path id="path23" class="cls-3" d="M148.42,126.95q10.41,3.64,10.41,12.47a11.16,11.16,0,0,1-4.3,9.22c-2.87,2.28-7,3.69-12.29,3.69a30.08,30.08,0,0,1-14.79-4.08,13.07,13.07,0,0,1,1.06-4.42,12,12,0,0,1,2.31-3.8q6.26,3.25,10.88,3.25a6.35,6.35,0,0,0,3.36-.74,2.24,2.24,0,0,0,1.18-2q0-2.33-3.6-3.49l-4.31-1.63q-9.78-3.56-9.78-11.62a11.56,11.56,0,0,1,4.11-9.34,17.05,17.05,0,0,1,11.07-4.28,33.57,33.57,0,0,1,7.59,1c2.77,0.65,5,2.24,6.81,3.12a11,11,0,0,1-.86,4.77,8.05,8.05,0,0,1-2.5,3.68q-6.58-2.95-11-2.95a3.58,3.58,0,0,0-2.39.7,2.24,2.24,0,0,0-.82,1.78q0,1.86,3,2.94l4.86,1.71h0Z" transform="translate(0 0)"/><path id="path25" class="cls-3" d="M123.15,127.5a18.62,18.62,0,0,0-1.13-6.59,14.77,14.77,0,0,0-3.25-5.19,15,15,0,0,0-5.12-3.41c-2-.83-4.27-2.07-6.77-2.07-3,0-5.57,1.35-7.78,2.38a14.89,14.89,0,0,0-5.48,4.26,18.24,18.24,0,0,0-3.21,6.39,29,29,0,0,0-1.06,8,37.48,37.48,0,0,0,.86,8.29,17.34,17.34,0,0,0,2.93,6.58,13.9,13.9,0,0,0,5.4,4.34,19.36,19.36,0,0,0,8.26,1.83,26.08,26.08,0,0,0,15.33-4.69,12.3,12.3,0,0,0-3.19-7.13,40.83,40.83,0,0,1-5.65,1.73,21.17,21.17,0,0,1-4.33.52c-2.49,0-4.29-.63-5.38-1.92a7.83,7.83,0,0,1-1.79-5.08h20.34A29.34,29.34,0,0,0,123.15,127.5Zm-21.43.54c0.15-2.64.64-5.46,1.44-6.62a4.17,4.17,0,0,1,3.69-1.74,4.35,4.35,0,0,1,3.84,1.86,11.54,11.54,0,0,1,1.28,5.65V128H101.71Z" transform="translate(0 0)"/><path id="path31" class="cls-3" d="M85.36,142H83.25c-2.3,0-3.16-1.21-3.16-3.63V93.76a8.29,8.29,0,0,0-1.77-5.65C77.33,87,75.61,87,73.15,87H67.82v53.48c0,3.72.84,6.44,2.32,8.18s4,2.59,7.55,2.59a51.85,51.85,0,0,0,8.37-.78,14.71,14.71,0,0,0,.24-3.36,15,15,0,0,0-.94-5.16h0Z" transform="translate(0 0)"/></svg>