<svg id="HTML5" xmlns="http://www.w3.org/2000/svg" viewBox="0 0 255.82 256"><defs><style>.cls-1{fill:#ddd;}.cls-2{fill:#aaa;}</style></defs><title>unknown</title><rect class="cls-1" width="255.82" height="256"/><path class="cls-2" d="M127.91,85.37h84.87V204.5H43V51.5h84.87V85.37Zm-51,0V68.63H59.78V85.37H76.91Zm0,34.27V102.5H59.78v17.13H76.91Zm0,33.87V136.37H59.78V153.5H76.91Zm0,33.87V170.63H59.78v16.73H76.91Zm33.87-102V68.63H94V85.37h16.73Zm0,34.27V102.5H94v17.13h16.73Zm0,33.87V136.37H94V153.5h16.73Zm0,33.87V170.63H94v16.73h16.73Zm85.27,0V102.5H127.91v17.13H145v16.73H127.91V153.5H145v17.13H127.91v16.73H196Zm-17.13-67.73v16.73H161.78V119.63h17.13Zm0,33.87v17.13H161.78V153.5h17.13Z" transform="translate(0 0)"/></svg>