<svg id="Ruby_big" data-name="Ruby big" xmlns="http://www.w3.org/2000/svg" viewBox="0 0 256 256"><defs><style>.cls-1{fill:red;}.cls-2{fill:#840200;}.cls-3{fill:#fff;}</style></defs><title>ruby</title><rect class="cls-1" width="256" height="256"/><path class="cls-2" d="M70.78,147.49v14.31c0,2.41,52,6.45,85.92,14.31h0c16.37-3.8,28.52-8.48,28.52-14.31h0V147.49c0-5.82-12.15-10.51-28.52-14.31h0c-33.9,7.86-85.92,11.9-85.92,14.31" transform="translate(0)"/><path class="cls-2" d="M70.78,90.27v14.31c0,2.41,52,6.45,85.92,14.31h0c16.37-3.8,28.52-8.48,28.52-14.31h0V90.27c0-5.82-12.15-10.51-28.52-14.31h0c-33.9,7.86-85.92,11.9-85.92,14.31" transform="translate(0)"/><path class="cls-3" d="M70.78,118.88v42.92c0-3.58,114.44-10.73,114.44-28.61h0V90.27c0,17.88-114.44,25-114.44,28.61" transform="translate(0)"/><path class="cls-3" d="M70.78,61.66v42.92C70.78,101,185.22,93.84,185.22,76h0V33c0,17.88-114.44,25-114.44,28.61" transform="translate(0)"/><path class="cls-3" d="M70.78,176.1V219c0-3.58,114.44-10.73,114.44-28.61h0V147.49c0,17.88-114.44,25-114.44,28.61" transform="translate(0)"/></svg>