<?xml version="1.0" encoding="utf-8"?>
<!-- Generator: Adobe Illustrator 19.2.1, SVG Export Plug-In . SVG Version: 6.00 Build 0)  -->
<svg version="1.1" id="Ruby_big" xmlns="http://www.w3.org/2000/svg" xmlns:xlink="http://www.w3.org/1999/xlink" x="0px" y="0px"
	 viewBox="0 0 256 256" style="enable-background:new 0 0 256 256;" xml:space="preserve">
<style type="text/css">
	.st0{fill:#FA5C2C;}
	.st1{fill:#FFFFFF;}
</style>
<title>ruby</title>
<rect class="st0" width="256" height="256"/>
<path class="st1" d="M165.3,174.5c-17.6,10.2-41.8,11.2-66.1,0.8c-19.2-8.3-35.4-22.2-46.6-39.8c5.3,4.2,11,7.7,17.2,10.5
	c25.1,11.8,50.3,11,67.9,0l0,0c-25.1-19.3-46.5-44.4-62.5-65c-3.3-3.3-5.8-7.5-8.4-11.3c19.3,17.6,49.9,39.8,60.8,46.1
	c-23-24.3-43.6-54.5-42.8-53.7C121.4,99,155.3,120,155.3,120c1.1,0.6,2,1.2,2.7,1.7c0.7-1.9,1.4-3.9,1.9-5.8
	c5.8-21.4-0.8-45.7-15.5-65.8c33.9,20.5,54.1,59.1,45.7,91.4c-0.2,0.9-0.5,1.7-0.7,2.6l0.3,0.4c16.8,21,12.2,43.2,10.1,39
	C190.7,165.5,173.8,171,165.3,174.5L165.3,174.5L165.3,174.5z"/>
</svg>
