<svg id="Layer_1" data-name="Layer 1" xmlns="http://www.w3.org/2000/svg" viewBox="0 0 400 340.36"><defs><style>.cls-1{fill:#0093be;}</style></defs><title>1474924933_yammer</title><g id="g24870"><path id="path24860" class="cls-1" d="M337.79,266.24c31.9,6.83,64.56,9.4,97,11.56,11.32,0.81,21.69-9.23,21.16-20.2,0.53-11-9.83-21-21.16-20.2-32.47,2.15-65.13,4.72-97,11.56-5.64,1.15-19.6,2.62-19.6,8.65S332.15,265.09,337.79,266.24Z" transform="translate(-56 -85.82)"/><path id="path24805" class="cls-1" d="M74.69,85.82a19.09,19.09,0,0,0-17.33,26.26s25.5,65.52,51.83,132.75c12.79,32.64,25.72,65.56,36.08,91.72-3.23,8.12-6.21,15.58-8.52,21.3-2,4.71-2.71,6.73-4.58,10.65-4.67,9.15-14.33,16.72-23.36,17.26-15.41,1.22-32,2.27-32,2.27a19.09,19.09,0,1,0,2.42,38.1c15.48-.1,19.68.42,39.12-2.72,29.09-7.65,44-27,53.77-51.26,3.45-8.53,8-19.9,13.23-33.16,10.51-26.51,23.89-60.55,37.05-94.16,26.33-67.23,51.83-132.75,51.83-132.75a19.09,19.09,0,0,0-18.53-26.24,19.09,19.09,0,0,0-17,12.39s-25.5,65.49-51.82,132.67c-7.14,18.24-14.31,36.49-21.08,53.7-6.8-17.28-13.86-35.26-21.08-53.7C118.42,163.73,92.92,98.24,92.92,98.24a19.09,19.09,0,0,0-17-12.39c-0.4,0-.8,0-1.19,0h0Z" transform="translate(-56 -85.82)"/><path id="path24858" class="cls-1" d="M301,328.37c23.77,22.34,50.4,41.43,77.08,60.07,9.27,6.55,23.34,3.31,28.55-6.35,6.13-9.11,2.45-23.07-7.66-28.23-28.91-14.95-58.19-29.64-89-40.28-5.42-1.94-18.13-7.89-21.24-2.73S296.75,324.47,301,328.37Z" transform="translate(-56 -85.82)"/><path id="path24862" class="cls-1" d="M301,186.81c23.77-22.34,50.4-41.43,77.08-60.07,9.27-6.55,23.34-3.31,28.55,6.35,6.13,9.11,2.45,23.07-7.66,28.23-28.91,14.95-58.19,29.64-89,40.28-5.42,1.94-18.13,7.89-21.24,2.73S296.75,190.71,301,186.81Z" transform="translate(-56 -85.82)"/></g></svg>