<svg id="Layer_1" data-name="Layer 1" xmlns="http://www.w3.org/2000/svg" viewBox="0 0 153.54 16.98"><defs><style>.cls-1{fill:#95979a;}</style></defs><title>Untitled-2</title><path class="cls-1" d="M1.32,12.29V8.11h2.5a2.84,2.84,0,0,1,1.85.42,2.25,2.25,0,0,1,.8,1.76,1.9,1.9,0,0,1-.69,1.54A2.79,2.79,0,0,1,4,12.29H1.32Zm0-5.19V3.39H3.8a2.86,2.86,0,0,1,1.53.28,1.65,1.65,0,0,1,.82,1.52,1.87,1.87,0,0,1-.69,1.48,3.14,3.14,0,0,1-2,.43H1.32ZM4,13.37a4,4,0,0,0,2.71-.71,2.8,2.8,0,0,0,1.06-2.32A2.78,2.78,0,0,0,5.54,7.54v0A2.43,2.43,0,0,0,7.48,5,2.55,2.55,0,0,0,6.33,2.87a3.72,3.72,0,0,0-2.26-.52H0v11H4Z"/><path class="cls-1" d="M10.42,9.22a4.69,4.69,0,0,1,.41-2.06A2.08,2.08,0,0,1,12.7,6a2.14,2.14,0,0,1,1.78,1A4.17,4.17,0,0,1,15,9.22a4.46,4.46,0,0,1-.4,2.1,2.1,2.1,0,0,1-3.7.15A4.85,4.85,0,0,1,10.42,9.22ZM9,9.22c0,2.15,1.09,4.3,3.53,4.3s3.79-2,3.79-4.29S15.18,5,12.79,5,9,7,9,9.22Z"/><path class="cls-1" d="M19,9.22a4.75,4.75,0,0,1,.4-2.06A2.09,2.09,0,0,1,21.23,6,2.15,2.15,0,0,1,23,7a4.17,4.17,0,0,1,.52,2.26,4.46,4.46,0,0,1-.41,2.1,2.1,2.1,0,0,1-3.7.15A4.89,4.89,0,0,1,19,9.22Zm-1.38,0c0,2.15,1.09,4.3,3.53,4.3s3.79-2,3.79-4.29S23.72,5,21.33,5,17.59,7,17.59,9.22Z"/><path class="cls-1" d="M31.69,5.9l-4.48,6.49h4.48v1h-6v-1L30,6.21H26v-1h5.67V5.9Z"/><path class="cls-1" d="M39.84,17h-1V0h1V17Z"/><path class="cls-1" d="M52.09,9.11H48.71l1.7-5.28ZM51.25,2.35h-1.5l-3.56,11h1.16l1-3.21H52.4l1.11,3.21h1.32Z"/><path class="cls-1" d="M64.19,8.45A2.47,2.47,0,0,1,66.55,6a2.25,2.25,0,0,1,2.24,2.49h-4.6Zm4.63,2.47a2.29,2.29,0,0,1-2.22,1.57,2.47,2.47,0,0,1-2.15-1.26,3.93,3.93,0,0,1-.34-1.85h6C70.18,7.12,69.08,5,66.55,5s-3.77,2-3.77,4.29,1.27,4.24,3.74,4.24A3.57,3.57,0,0,0,70,11.14Z"/><path class="cls-1" d="M73.11,6.6h0A2.81,2.81,0,0,1,75.68,5,2.58,2.58,0,0,1,78,6.27a5.38,5.38,0,0,1,.38,2.58v4.51H77.12v-5a3.14,3.14,0,0,0-.22-1.51,1.67,1.67,0,0,0-1.4-.74,2.2,2.2,0,0,0-1.69.82,3.26,3.26,0,0,0-.64,2.2v4.27H71.93V5.21h1.19V6.6Z"/><path class="cls-1" d="M148.28,6.6h0A2.8,2.8,0,0,1,150.84,5a2.57,2.57,0,0,1,2.31,1.27,5.38,5.38,0,0,1,.39,2.58v4.51h-1.25v-5a3.16,3.16,0,0,0-.23-1.51,1.66,1.66,0,0,0-1.4-.74A2.2,2.2,0,0,0,149,6.9a3.25,3.25,0,0,0-.64,2.2v4.27h-1.25V5.21h1.19V6.6Z"/><path class="cls-1" d="M86.61,17h-1V0h1V17Z"/><path class="cls-1" d="M100.83,13.37V8.07H95.72v5.29H94.43v-11h1.29V7h5.11V2.35h1.29v11h-1.29Z"/><path class="cls-1" d="M109.45,9.78a2.63,2.63,0,0,1-2.53,2.76c-1,0-1.76-.42-1.76-1.43,0-1.68,1.77-1.86,3.27-1.86h1V9.78Zm-1-1.48a7.29,7.29,0,0,0-3.06.48,2.48,2.48,0,0,0,1.31,4.73,2.87,2.87,0,0,0,2.8-1.69l0.14,1.53h1.23a6,6,0,0,1-.17-1.72V8.49A3.8,3.8,0,0,0,110,5.8a3.08,3.08,0,0,0-2.45-.8c-1.46,0-3.22.53-3.45,2.23l1.15,0.19A1.93,1.93,0,0,1,107.42,6c1.42,0,2,.54,2,2V8.31h-1Z"/><path class="cls-1" d="M114,5.21V6.66h0A2.74,2.74,0,0,1,116.44,5a2.37,2.37,0,0,1,2.29,1.82A2.85,2.85,0,0,1,121.36,5a2.43,2.43,0,0,1,2.06,1.17,4.63,4.63,0,0,1,.38,2.33v4.86h-1.25V8.5a3.49,3.49,0,0,0-.22-1.62A1.55,1.55,0,0,0,121,6a2,2,0,0,0-1.57.92,3,3,0,0,0-.45,2v4.4h-1.25V8.2a2.75,2.75,0,0,0-.27-1.38A1.63,1.63,0,0,0,116.05,6a2,2,0,0,0-1.48.8,2.91,2.91,0,0,0-.5,1.86v4.67h-1.25V5.21H114Z"/><path class="cls-1" d="M127.36,13.37h-1.25V5.21h1.25v8.16Zm0.07-9.6H126V2.35h1.38V3.76Z"/><path class="cls-1" d="M129.92,13.37v-11h1.22v11h-1.22Z"/><path class="cls-1" d="M56.11,13.37v-11h1.22v11H56.11Z"/><path class="cls-1" d="M59.86,13.37v-11h1.22v11H59.86Z"/><path class="cls-1" d="M137.48,13.43l-1.21.1c-1.78,0-2.32-1-2.32-2.66V6.14h-1.44v-1H134v-2L135.21,3V5.14H137v1h-1.82v4.93c0,0.95.28,1.45,1.3,1.45l1-.08v1Z"/><path class="cls-1" d="M139.48,9.22a4.71,4.71,0,0,1,.4-2.06A2.08,2.08,0,0,1,141.75,6a2.14,2.14,0,0,1,1.78,1,4.2,4.2,0,0,1,.52,2.26,4.44,4.44,0,0,1-.4,2.1,2.09,2.09,0,0,1-3.7.15A4.85,4.85,0,0,1,139.48,9.22Zm-1.37,0c0,2.15,1.09,4.3,3.53,4.3s3.79-2,3.79-4.29S144.24,5,141.85,5,138.11,7,138.11,9.22Z"/></svg>