<svg xmlns="http://www.w3.org/2000/svg" xmlns:xlink="http://www.w3.org/1999/xlink" viewBox="0 0 226.01 166.42"><defs><style>.cls-1{fill:none;}.cls-2{isolation:isolate;}.cls-3,.cls-8{fill:#b3b3b3;}.cls-22,.cls-3{mix-blend-mode:multiply;}.cls-4{fill:#dde8f6;}.cls-5{fill:#dfdfde;}.cls-6{fill:#1b4a6e;}.cls-7{fill:#163750;}.cls-9{fill:#fff;}.cls-10{fill:#26a9e0;}.cls-11{fill:#94daf7;}.cls-12{fill:#5fc3ed;}.cls-13{fill:#e9b520;}.cls-14{fill:#abb784;}.cls-15{fill:#1fb26b;}.cls-16{fill:#999;}.cls-17{fill:#f57c20;}.cls-18{fill:#006485;}.cls-19{fill:#184b7f;}.cls-20{fill:#3c89aa;}.cls-21{fill:#bad2ed;}.cls-23{fill:#4d4d4d;}.cls-24{fill:#d9d9d9;}.cls-25{fill:#f2f2f2;}.cls-26{fill:#ccc;}.cls-27{clip-path:url(#clip-path);}.cls-28{fill:#1e2b35;}.cls-29{clip-path:url(#clip-path-2);}.cls-30{fill:#929292;}.cls-31{clip-path:url(#clip-path-3);}.cls-32{clip-path:url(#clip-path-4);}.cls-33{fill:#787878;}.cls-34{clip-path:url(#clip-path-5);}.cls-35{clip-path:url(#clip-path-6);}.cls-36{clip-path:url(#clip-path-7);}.cls-37{clip-path:url(#clip-path-8);}.cls-38{clip-path:url(#clip-path-9);}.cls-39{clip-path:url(#clip-path-10);}.cls-40{clip-path:url(#clip-path-11);}.cls-41{clip-path:url(#clip-path-12);}.cls-42{clip-path:url(#clip-path-13);}.cls-43{clip-path:url(#clip-path-14);}.cls-44{clip-path:url(#clip-path-15);}.cls-45{clip-path:url(#clip-path-16);}.cls-46{clip-path:url(#clip-path-18);}.cls-47{fill:#0d1a23;}.cls-48{fill:#0071bb;}.cls-49{fill:#262626;mix-blend-mode:screen;}.cls-50{fill:#29abe2;}.cls-51{fill:#8a5d3b;}.cls-52{fill:#d4135a;}.cls-53{fill:#f7941e;}</style><clipPath id="clip-path" transform="translate(-686 362.42)"><path class="cls-1" d="M854.47-217.94h.13a.29.29,0,0,0,.1,0l0,0a.09.09,0,0,0,0-.05.09.09,0,0,1,0,.05l0,0a.29.29,0,0,1-.1,0Z"/></clipPath><clipPath id="clip-path-2" transform="translate(-686 362.42)"><path class="cls-1" d="M847.88-217.95H848l.1,0a.09.09,0,0,0,.06,0,.07.07,0,0,0,0-.05.07.07,0,0,1,0,.05.09.09,0,0,1-.06,0l-.1,0Z"/></clipPath><clipPath id="clip-path-3" transform="translate(-686 362.42)"><path class="cls-1" d="M843.12-218l-.14,0-.13,0-.09,0,0-.05,0,.05.09,0,.13,0,.14,0Z"/></clipPath><clipPath id="clip-path-4" transform="translate(-686 362.42)"><path class="cls-1" d="M829.63-218h-.14l-.11,0-.09,0,0-.05,0,.05.09,0,.11,0Z"/></clipPath><clipPath id="clip-path-5" transform="translate(-686 362.42)"><path class="cls-1" d="M822.86-218h-.13l-.11,0a.19.19,0,0,1-.09,0,.05.05,0,0,1,0,0,.05.05,0,0,0,0,0,.19.19,0,0,0,.09,0l.11,0Z"/></clipPath><clipPath id="clip-path-6" transform="translate(-686 362.42)"><path class="cls-1" d="M828-218.12a.06.06,0,0,1,0,.05l-.07,0-.11,0h0l.11,0,.07,0A.06.06,0,0,0,828-218.12Z"/></clipPath><clipPath id="clip-path-7" transform="translate(-686 362.42)"><polygon class="cls-1" points="816.09 -218.03 816.1 -218.03 816.12 -218.03 816.12 -218.03 816.13 -218.03 816.12 -218.03 816.12 -218.03 816.1 -218.03 816.09 -218.03 816.09 -218.03"/></clipPath><clipPath id="clip-path-8" transform="translate(-686 362.42)"><path class="cls-1" d="M796.7-218.09h-.08l-.06,0,0,0a0,0,0,0,1,0,0,0,0,0,0,0,0,0l0,0,.06,0Z"/></clipPath><clipPath id="clip-path-9" transform="translate(-686 362.42)"><path class="cls-1" d="M836.37-218h-.14l-.12,0a.19.19,0,0,1-.09,0l0,0,0,0a.19.19,0,0,0,.09,0l.12,0Z"/></clipPath><clipPath id="clip-path-10" transform="translate(-686 362.42)"><path class="cls-1" d="M821.2-218.14a0,0,0,0,1,0,0s0,0-.07,0l-.11,0h0l.11,0s.06,0,.07,0A0,0,0,0,0,821.2-218.14Z"/></clipPath><clipPath id="clip-path-11" transform="translate(-686 362.42)"><path class="cls-1" d="M820.86-218H821l.11,0s.06,0,.07,0a0,0,0,0,0,0,0,0,0,0,0,1,0,0s0,0-.07,0l-.11,0Z"/></clipPath><clipPath id="clip-path-12" transform="translate(-686 362.42)"><path class="cls-1" d="M795.32-218.2s0,0,0,0a.2.2,0,0,1-.08,0l-.12,0h0l.12,0a.2.2,0,0,0,.08,0S795.32-218.18,795.32-218.2Z"/></clipPath><clipPath id="clip-path-13" transform="translate(-686 362.42)"><path class="cls-1" d="M755.11-218.16l.14,0,.12,0,.08,0a.07.07,0,0,0,0,0,.07.07,0,0,1,0,0l-.08,0-.12,0-.14,0Z"/></clipPath><clipPath id="clip-path-14" transform="translate(-686 362.42)"><path class="cls-1" d="M749.48-218.18h-.14l-.1,0-.07,0s0,0,0-.05,0,0,0,.05l.07,0,.1,0Z"/></clipPath><clipPath id="clip-path-15" transform="translate(-686 362.42)"><polygon class="cls-1" points="747.24 -218.18 747.24 -218.18 747.24 -218.18 747.23 -218.18 747.23 -218.18 747.22 -218.18 747.23 -218.18 747.23 -218.18 747.24 -218.18 747.24 -218.18"/></clipPath><clipPath id="clip-path-16" transform="translate(-686 362.42)"><path class="cls-1" d="M739.37-218.2h.14l.13,0,.09,0a.1.1,0,0,0,0,0,.1.1,0,0,1,0,0l-.09,0-.13,0Z"/></clipPath><clipPath id="clip-path-18" transform="translate(-686 362.42)"><path class="cls-1" d="M729.44-218.34a0,0,0,0,0,0,0,.09.09,0,0,0,.06,0l.11,0h0l-.11,0a.09.09,0,0,1-.06,0A0,0,0,0,1,729.44-218.34Z"/></clipPath></defs><title>Asset 7</title><g class="cls-2"><g id="Layer_2" data-name="Layer 2"><g id="GraphicsIcons"><path class="cls-3" d="M751.84-342.31h-.25a13.85,13.85,0,0,0-13.14-9.53,13.77,13.77,0,0,0-9.33,3.62,10.33,10.33,0,0,0-4.51-1,10.37,10.37,0,0,0-8.71,4.74,7.81,7.81,0,0,0-2.53-.42,7.78,7.78,0,0,0-7.74,7,9.08,9.08,0,0,0-.91-.05,8.65,8.65,0,0,0-8.65,8.65,8.66,8.66,0,0,0,8.65,8.65l46.68,0v0l.44,0a10.81,10.81,0,0,0,10.81-10.8A10.81,10.81,0,0,0,751.84-342.31Z" transform="translate(-686 362.42)"/><path class="cls-4" d="M749.92-346.15h-.26a13.82,13.82,0,0,0-13.14-9.52,13.84,13.84,0,0,0-9.33,3.61,10.42,10.42,0,0,0-4.5-1,10.34,10.34,0,0,0-8.71,4.74,8.19,8.19,0,0,0-2.53-.43,7.79,7.79,0,0,0-7.74,7,6.85,6.85,0,0,0-.91-.05,8.64,8.64,0,0,0-8.65,8.64,8.65,8.65,0,0,0,8.64,8.65l46.69,0h.43a10.82,10.82,0,0,0,10.82-10.8A10.81,10.81,0,0,0,749.92-346.15Z" transform="translate(-686 362.42)"/><path class="cls-3" d="M771.92-331.68H746.61a.64.64,0,0,0-.64.64v27.56a.63.63,0,0,0,.63.63h25.32a.63.63,0,0,0,.63-.63l0-25.79V-331A.64.64,0,0,0,771.92-331.68Z" transform="translate(-686 362.42)"/><path class="cls-5" d="M758.77-333.12a.69.69,0,0,1-.59-.33l-.67-1.05a.71.71,0,0,0-.59-.33H751.5a.7.7,0,0,0-.59.32l-.67,1.06a.73.73,0,0,1-.6.33h-5.59v25.79a.63.63,0,0,0,.63.63H770a.63.63,0,0,0,.63-.63v-25.79Z" transform="translate(-686 362.42)"/><rect class="cls-6" x="59.41" y="30.66" width="23.85" height="23.69"/><path class="cls-7" d="M770-335.52H744.68a.63.63,0,0,0-.63.63v1.77h5.59a.73.73,0,0,0,.6-.33l.67-1.06a.7.7,0,0,1,.59-.32h5.42a.71.71,0,0,1,.59.33l.67,1.05a.69.69,0,0,0,.59.33h11.86v-1.77A.63.63,0,0,0,770-335.52Z" transform="translate(-686 362.42)"/><path class="cls-8" d="M765.39-333.44l-.67-1.06a.7.7,0,0,0-.59-.32H758.7a.71.71,0,0,0-.59.33l-.67,1.06a.7.7,0,0,1-.59.32H766A.7.7,0,0,1,765.39-333.44Z" transform="translate(-686 362.42)"/><path class="cls-9" d="M748.57-324H746.8v.41h1.77Zm3.79.4h3.25v-.4h-3.25Zm-3.79.81H746.8v.4h1.77Zm0,1.22H746.8v.4h1.77Zm0,1.22H746.8v.4h1.77Zm-.53,1.21H746.8v.4H748Zm.53,1.22H746.8v.4h1.77Zm0,1.22H746.8v.4h1.77Zm0,1.21H746.8v.41h1.77Zm0,1.22H746.8v.4h1.77Zm0,1.22H746.8v.4h1.77Zm0,1.22h-1.78v.4h1.78Zm-1.78,1.61H748v-.4h-1.25ZM752.05-324h-3.23v.4h3.23Zm-3.23,1.61h3.48v-.41h-3.48Zm6.07-.39h-2.27v.41h2.27Zm-6.07,1.61h4.32v-.4h-4.32Zm3.06.82h-3.06v.4h3.06Zm.4,1.22h-4v.4h4Zm-1.69,1.21h-1.77v.4h1.77Zm-1.77,1.62h1.77v-.4h-1.77Zm0,1.22h1.77v-.4h-1.77Zm2.23.81h-2.23v.4h2.23Zm0,1.22h-2.23v.4h2.23Zm-2.23,1.62h1.77v-.4h-1.77Zm2-6.09h4.61v-.4h-4.61Zm0,1.22h3.31v-.4h-3.31Zm4.13.82h-4.13v.4H755Zm-3.62,1.21v.4h1.54v-.4Zm0,1.62h2.85v-.4h-2.85Zm-.51,1.22h4.26v-.4h-4.26Zm-2.53,1.21H752v-.41h-3.73Z" transform="translate(-686 362.42)"/><path class="cls-10" d="M760.8-324H759v.4h1.77Zm0,1.22H759v.4h1.77Zm0,1.22H759v.41h1.77ZM759-320h2.13v-.4H759Zm0,1.22h2.13v-.4H759Zm0,1.22h2.13v-.4H759Zm0,1.21h2.13v-.4H759Zm0,1.22h2.13v-.4H759Zm0,1.22h2.13v-.4H759Zm0,1.22h2.13v-.4H759Zm0,1.21h2.13v-.4H759Zm0,1.22h2.13v-.4H759Zm8.11-2.83h-1.28v.4h1.28Zm-1.28,1.21v.41h1.92v-.41Zm0,1.62h1.68v-.4h-1.68Zm-.73-19.87h-1.54v.4h1.54Zm1.31,1.22h-2.85v.4h2.85Zm-3.36,1.61h4.26v-.4h-4.26Zm-2.53,2.44h5.2v-.4h-5.2Zm.51.81v.4H764v-.4Zm4.42,0h-1.22v.4h1.22Zm-4.42,1.62h4.32v-.4h-4.32Zm6.7.82h-6.7v.4h6.7Zm-5,1.21h-1.39v.4h1.39Zm0,1.22h-1.39v.4h1.39Zm0,1.22h-1.39v.4h1.39Zm0,1.21h-1.39v.4h1.39Zm0,1.22h-1.39v.4h1.39Zm-1.39,1.62h1.39v-.4h-1.39Zm1.69-6.09h3.24v-.41h-3.24Zm4.07.82h-4.07v.4h4.07Zm-4.07,1.62h2.84v-.4h-2.84Zm4.55.82h-4.55v.41h4.55Zm-1.15,1.21h-3.4v.4h3.4Zm-1.37,1.22h-2v.4h2Zm-3.72,1.62h4.24v-.4h-4.24Zm0,1.21h4.24v-.4h-4.24Zm0,1.22h4.24v-.4h-4.24Z" transform="translate(-686 362.42)"/><path class="cls-3" d="M873.76-346.21a7.94,7.94,0,0,0-1.77.2,9.27,9.27,0,0,0-9.26-9,9.41,9.41,0,0,0-2.45.33,7.94,7.94,0,0,0-6.81-3.86,7.94,7.94,0,0,0-7.49,5.3h-.46a8.82,8.82,0,0,0-8.82,8.82,1.62,1.62,0,0,0,0,.22,7.06,7.06,0,0,0-5.31,6.83,7.07,7.07,0,0,0,7.06,7.07h35.29a8,8,0,0,0,8-7.94A8,8,0,0,0,873.76-346.21Z" transform="translate(-686 362.42)"/><path class="cls-11" d="M871.83-350.06a8,8,0,0,0-1.77.2,9.25,9.25,0,0,0-9.25-9,9,9,0,0,0-2.45.33,7.93,7.93,0,0,0-6.81-3.87,8,8,0,0,0-7.5,5.3h-.45a8.82,8.82,0,0,0-8.82,8.82v.22a7.06,7.06,0,0,0-5.3,6.84,7.06,7.06,0,0,0,7,7.06l35.3,0a8,8,0,0,0,7.94-7.94A8,8,0,0,0,871.83-350.06Z" transform="translate(-686 362.42)"/><path class="cls-3" d="M904-334.48h-.19a10.31,10.31,0,0,0-9.79-7.1,10.24,10.24,0,0,0-7,2.7,7.74,7.74,0,0,0-3.36-.77,7.74,7.74,0,0,0-6.49,3.53,5.84,5.84,0,0,0-1.88-.31,5.8,5.8,0,0,0-5.77,5.18c-.22,0-.45,0-.68,0a6.43,6.43,0,0,0-6.44,6.43,6.44,6.44,0,0,0,6.44,6.45H904a8.05,8.05,0,0,0,8.06-8A8.06,8.06,0,0,0,904-334.48Z" transform="translate(-686 362.42)"/><path class="cls-12" d="M902.47-337.45h-.19a10.31,10.31,0,0,0-9.79-7.09,10.24,10.24,0,0,0-7,2.7,7.67,7.67,0,0,0-3.35-.77,7.7,7.7,0,0,0-6.49,3.53,5.94,5.94,0,0,0-1.89-.31,5.78,5.78,0,0,0-5.76,5.18c-.23,0-.45,0-.68,0a6.44,6.44,0,0,0-6.45,6.43,6.45,6.45,0,0,0,6.44,6.45h35.11a8,8,0,0,0,8-8A8.05,8.05,0,0,0,902.47-337.45Z" transform="translate(-686 362.42)"/><path class="cls-3" d="M848.76-338.72l-57.92,0a1.05,1.05,0,0,0-1.05,1.06v37.81a1,1,0,0,0,1.05,1.05l57.92,0a1.05,1.05,0,0,0,1.06-1.05v-37.81A1,1,0,0,0,848.76-338.72Z" transform="translate(-686 362.42)"/><path class="cls-5" d="M812.31-338.59a1.14,1.14,0,0,1-1-.54l-1.11-1.75a1.17,1.17,0,0,0-1-.54h-9a1.14,1.14,0,0,0-1,.54l-1.12,1.75a1.17,1.17,0,0,1-1,.54h-9.29v34.87a1,1,0,0,0,1,1.05l57.92,0a1,1,0,0,0,1-1.05l0-34.87Z" transform="translate(-686 362.42)"/><rect class="cls-9" x="104.12" y="26.1" width="55.5" height="31.39"/><path class="cls-7" d="M846.84-342.57l-57.92,0a1.05,1.05,0,0,0-1.06,1v2.94h9.29a1.17,1.17,0,0,0,1-.54l1.12-1.75a1.14,1.14,0,0,1,1-.54h9a1.17,1.17,0,0,1,1,.54l1.11,1.75a1.14,1.14,0,0,0,1,.54l35.58,0v-2.94A1.06,1.06,0,0,0,846.84-342.57Z" transform="translate(-686 362.42)"/><path class="cls-13" d="M794.13-340.63a.9.9,0,0,1-.91.9.9.9,0,0,1-.9-.91.9.9,0,0,1,.9-.9A.91.91,0,0,1,794.13-340.63Z" transform="translate(-686 362.42)"/><path class="cls-14" d="M796.9-340.63a.9.9,0,0,1-.91.9.9.9,0,0,1-.9-.9.9.9,0,0,1,.9-.91A.91.91,0,0,1,796.9-340.63Z" transform="translate(-686 362.42)"/><path class="cls-15" d="M792.36-333.65l.82-.82a.11.11,0,0,0,0-.08.09.09,0,0,0,0-.07l-.25-.25a.11.11,0,0,0-.15,0l-1.22,1.22,1.22,1.22a.09.09,0,0,0,.15,0l.25-.24a.11.11,0,0,0,0-.08.09.09,0,0,0,0-.07Z" transform="translate(-686 362.42)"/><path class="cls-15" d="M797.1-333.64l-.83-.83a.11.11,0,0,1,0-.07.11.11,0,0,1,0-.08l.25-.25a.11.11,0,0,1,.15,0l1.22,1.23-1.22,1.22a.11.11,0,0,1-.15,0l-.25-.25a.11.11,0,0,1,0-.08.11.11,0,0,1,0-.07Z" transform="translate(-686 362.42)"/><path class="cls-15" d="M795.64-334.87s0-.05,0-.07l-.3-.16a.11.11,0,0,0-.15.05l-1.36,2.55a.08.08,0,0,0,0,.08.1.1,0,0,0,.05.06l.31.17a.11.11,0,0,0,.15-.05l1.36-2.55A.11.11,0,0,0,795.64-334.87Z" transform="translate(-686 362.42)"/><rect class="cls-16" x="128.54" y="46.83" width="10.05" height="0.62"/><rect class="cls-17" x="122.58" y="46.83" width="5.96" height="0.62"/><rect class="cls-18" x="117.79" y="46.83" width="4.79" height="0.62"/><rect class="cls-19" x="110.66" y="46.82" width="7.13" height="0.62"/><rect class="cls-16" x="130.87" y="45.82" width="13.55" height="0.62"/><rect class="cls-20" x="124.91" y="45.82" width="5.96" height="0.62"/><rect class="cls-16" x="120.12" y="45.82" width="4.79" height="0.62"/><rect class="cls-19" x="110.66" y="45.81" width="9.46" height="0.62"/><rect class="cls-20" x="125.62" y="44.81" width="6.54" height="0.62"/><rect class="cls-16" x="119.66" y="44.81" width="5.96" height="0.62"/><rect class="cls-18" x="114.87" y="44.8" width="4.79" height="0.62"/><rect class="cls-19" x="110.66" y="44.8" width="4.21" height="0.62"/><rect class="cls-19" x="126.78" y="43.8" width="8.3" height="0.62"/><rect class="cls-16" x="120.83" y="43.79" width="5.96" height="0.62"/><rect class="cls-18" x="116.04" y="43.79" width="4.79" height="0.62"/><rect class="cls-19" x="110.66" y="43.79" width="5.37" height="0.62"/><rect class="cls-17" x="117.32" y="42.78" width="5.96" height="0.62"/><rect class="cls-19" x="112.53" y="42.78" width="4.79" height="0.62"/><rect class="cls-19" x="109.49" y="47.83" width="1.87" height="0.62"/><rect class="cls-21" x="109.49" y="42.78" width="3.04" height="0.62"/><rect class="cls-16" x="128.53" y="53.29" width="10.05" height="0.62"/><rect class="cls-18" x="122.57" y="53.28" width="5.96" height="0.62"/><rect class="cls-20" x="117.78" y="53.28" width="4.79" height="0.62"/><rect class="cls-19" x="110.66" y="53.28" width="7.13" height="0.62"/><rect class="cls-16" x="130.87" y="52.28" width="13.55" height="0.62"/><rect class="cls-18" x="124.91" y="52.27" width="5.96" height="0.62"/><rect class="cls-20" x="120.12" y="52.27" width="4.79" height="0.62"/><rect class="cls-19" x="110.66" y="52.27" width="9.46" height="0.62"/><rect class="cls-19" x="120.82" y="51.26" width="5.96" height="0.62"/><rect class="cls-17" x="116.03" y="51.26" width="4.79" height="0.62"/><rect class="cls-21" x="111.83" y="51.26" width="4.21" height="0.62"/><rect class="cls-19" x="113.11" y="50.25" width="4.79" height="0.62"/><rect class="cls-21" x="110.66" y="50.24" width="2.45" height="0.62"/><rect class="cls-18" x="123.28" y="49.24" width="8.3" height="0.62"/><rect class="cls-15" x="138.7" y="49.25" width="10.05" height="0.62"/><rect class="cls-21" x="131.57" y="49.24" width="7.13" height="0.62"/><rect class="cls-15" x="117.32" y="49.24" width="5.96" height="0.62"/><rect class="cls-17" x="112.53" y="49.24" width="4.79" height="0.62"/><rect class="cls-19" x="109.49" y="54.29" width="1.87" height="0.62"/><rect class="cls-16" x="109.49" y="49.23" width="3.04" height="0.62"/><rect class="cls-20" x="121.53" y="38.35" width="6.54" height="0.62"/><rect class="cls-15" x="128.07" y="38.35" width="12.97" height="0.62"/><rect class="cls-17" x="117.91" y="38.35" width="3.62" height="0.62"/><rect class="cls-17" x="131.58" y="37.34" width="3.62" height="0.62"/><rect class="cls-19" x="113.7" y="38.35" width="4.21" height="0.62"/><rect class="cls-21" x="110.66" y="38.34" width="3.04" height="0.62"/><rect class="cls-16" x="123.28" y="37.34" width="8.3" height="0.62"/><rect class="cls-18" x="117.32" y="37.34" width="5.96" height="0.62"/><rect class="cls-16" x="112.53" y="37.33" width="4.79" height="0.62"/><rect class="cls-20" x="145.36" y="37.35" width="7.13" height="0.62"/><rect class="cls-16" x="139.41" y="37.35" width="5.96" height="0.62"/><rect class="cls-15" x="135.2" y="37.34" width="4.21" height="0.62"/><rect class="cls-21" x="109.5" y="37.33" width="3.04" height="0.62"/><rect class="cls-19" x="109.49" y="41.38" width="1.87" height="0.62"/><rect class="cls-19" x="107.16" y="31.89" width="1.87" height="0.62"/><rect class="cls-19" x="108.32" y="55.3" width="1.87" height="0.62"/><rect class="cls-16" x="117.32" y="35.94" width="10.05" height="0.62"/><rect class="cls-18" x="113.7" y="35.94" width="3.62" height="0.62"/><rect class="cls-16" x="109.5" y="35.93" width="4.21" height="0.62"/><rect class="cls-17" x="129.01" y="34.93" width="3.62" height="0.62"/><rect class="cls-17" x="127.37" y="35.94" width="3.62" height="0.62"/><rect class="cls-16" x="124.22" y="34.93" width="4.79" height="0.62"/><rect class="cls-18" x="109.5" y="34.92" width="14.72" height="0.62"/><rect class="cls-17" x="127.84" y="33.92" width="3.62" height="0.62"/><rect class="cls-19" x="131.58" y="32.91" width="10.05" height="0.62"/><rect class="cls-16" x="112.53" y="33.91" width="15.31" height="0.62"/><rect class="cls-21" x="109.5" y="33.91" width="3.04" height="0.62"/><rect class="cls-21" x="123.28" y="32.91" width="8.3" height="0.62"/><rect class="cls-15" x="115.95" y="32.9" width="7.33" height="0.62"/><rect class="cls-17" x="111.37" y="32.9" width="4.59" height="0.62"/><rect class="cls-16" x="108.33" y="32.9" width="3.04" height="0.62"/><path class="cls-8" d="M824.56-339.12l-1.11-1.75a1.14,1.14,0,0,0-1-.54h-9a1.19,1.19,0,0,0-1,.54l-1.11,1.76a1.18,1.18,0,0,1-1,.53h15.15A1.17,1.17,0,0,1,824.56-339.12Z" transform="translate(-686 362.42)"/><g class="cls-22"><path class="cls-8" d="M875.05-202.58,859.61-228a3.15,3.15,0,0,0-2.43-1.37l-126.3-.06a3.15,3.15,0,0,0-2.44,1.37L713-202.65a2.14,2.14,0,0,0-.38,1.53c0,.63.36,5.05,5.12,5.05L870.3-196c4.76,0,5.11-4.41,5.13-5A2.17,2.17,0,0,0,875.05-202.58Z" transform="translate(-686 362.42)"/><path class="cls-8" d="M730.69-230.26l126.68.06a1.29,1.29,0,0,0,1.29-1.29l0-77.85a1.3,1.3,0,0,0-1.3-1.29l-126.68-.06a1.29,1.29,0,0,0-1.29,1.29l0,77.85A1.3,1.3,0,0,0,730.69-230.26Z" transform="translate(-686 362.42)"/></g><path class="cls-23" d="M710.67-205s0,5.12,5.13,5.13l152.58.06c5.13,0,5.13-5.12,5.13-5.12Z" transform="translate(-686 362.42)"/><path class="cls-24" d="M710.67-205a2.51,2.51,0,0,0,2.56,2.56l157.72.07a2.51,2.51,0,0,0,2.56-2.56Z" transform="translate(-686 362.42)"/><path class="cls-25" d="M729-233.25l126.3.06a3.15,3.15,0,0,1,2.44,1.37l15.44,25.39c.92,1.51.23,2.74-1.54,2.74l-159-.07c-1.77,0-2.46-1.23-1.53-2.74l15.46-25.38A3.18,3.18,0,0,1,729-233.25Z" transform="translate(-686 362.42)"/><path class="cls-26" d="M849.72-231.06a10.2,10.2,0,0,1,1.12.07,8.2,8.2,0,0,1,1,.18,3.88,3.88,0,0,1,.74.27.86.86,0,0,1,.4.33l7.1,13.05a.36.36,0,0,1,0,.41,1.14,1.14,0,0,1-.49.34,4.28,4.28,0,0,1-.89.22,7.08,7.08,0,0,1-1.18.09l-130.75-.3a7.08,7.08,0,0,1-1.18-.09,3.49,3.49,0,0,1-.88-.23,1.12,1.12,0,0,1-.5-.34.36.36,0,0,1,0-.41l7.15-13a.86.86,0,0,1,.4-.33,3.33,3.33,0,0,1,.74-.26,6.59,6.59,0,0,1,1-.18,10.23,10.23,0,0,1,1.12-.06Z" transform="translate(-686 362.42)"/><g class="cls-2"><g class="cls-27"><g class="cls-2"><path class="cls-28" d="M854.47-217.94h.13a.29.29,0,0,0,.1,0l0,0a.09.09,0,0,0,0-.05.09.09,0,0,1,0,.05l0,0a.29.29,0,0,1-.1,0h-.13" transform="translate(-686 362.42)"/></g></g></g><g class="cls-2"><g class="cls-29"><g class="cls-2"><path class="cls-28" d="M847.88-217.95H848l.1,0a.09.09,0,0,0,.06,0,.07.07,0,0,0,0-.05.07.07,0,0,1,0,.05.09.09,0,0,1-.06,0l-.1,0h-.13" transform="translate(-686 362.42)"/></g></g></g><path class="cls-30" d="M852.45-221.93h.14l.13,0,.09,0s.05,0,.05.05l1.9,3.75s0,0,0,.05a.15.15,0,0,1-.06,0l-.1,0h-5a.24.24,0,0,1-.12,0l-.1,0-.05,0-1.73-3.75s0,0,0-.05l.06,0,.1,0h4.71Z" transform="translate(-686 362.42)"/><g class="cls-2"><g class="cls-31"><g class="cls-2"><path class="cls-28" d="M842.72-218.09l0,.05.09,0,.13,0,.14,0-.14,0-.13,0-.09,0,0-.05" transform="translate(-686 362.42)"/></g></g></g><g class="cls-2"><g class="cls-32"><g class="cls-2"><path class="cls-33" d="M829.63-218h-.14l-.11,0-.09,0,0-.05,0,.05.09,0,.11,0h.14" transform="translate(-686 362.42)"/></g></g></g><path class="cls-30" d="M840.39-219.79h.14l.13,0,.09,0s0,0,0,.05l.62,1.58s0,0,0,.05l-.06,0-.11,0h-5a.61.61,0,0,1-.13,0l-.09,0,0,0-.56-1.58a0,0,0,0,1,0,0l.06,0,.11,0h4.79Z" transform="translate(-686 362.42)"/><path class="cls-30" d="M827.1-219.82h.15l.12,0,.09,0s0,0,0,.05l.46,1.58a.06.06,0,0,1,0,.05l-.07,0-.11,0h-5a.35.35,0,0,1-.12,0,.19.19,0,0,1-.09,0s0,0,0,0l-.39-1.58s0,0,0,0,0,0,.07,0l.11,0h4.79Z" transform="translate(-686 362.42)"/><g class="cls-2"><g class="cls-34"><g class="cls-2"><path class="cls-33" d="M822.86-218h-.13l-.11,0a.19.19,0,0,1-.09,0,.05.05,0,0,1,0,0,.05.05,0,0,0,0,0,.19.19,0,0,0,.09,0l.11,0h.13" transform="translate(-686 362.42)"/></g></g></g><path class="cls-30" d="M833.76-219.81h.15l.12,0a.19.19,0,0,1,.09,0,.11.11,0,0,1,0,0l.54,1.58a0,0,0,0,1,0,.05l-.07,0-.11,0h-5l-.12,0-.1,0a.1.1,0,0,1,0-.05l-.47-1.58s0,0,0-.05l.07,0,.11,0h4.79Z" transform="translate(-686 362.42)"/><g class="cls-2"><g class="cls-35"><g class="cls-2"><path class="cls-33" d="M828-218.12a.06.06,0,0,1,0,.05l-.07,0-.11,0h0l.11,0,.07,0a.06.06,0,0,0,0-.05" transform="translate(-686 362.42)"/></g></g></g><g class="cls-2"><g class="cls-36"><g class="cls-2"><polyline class="cls-28" points="130.09 144.39 130.09 144.39 130.1 144.39 130.12 144.39 130.12 144.39 130.13 144.39 130.12 144.39 130.12 144.39 130.1 144.39 130.09 144.39"/></g></g></g><g class="cls-2"><g class="cls-37"><g class="cls-2"><path class="cls-28" d="M796.51-218.19a0,0,0,0,0,0,0l0,0,.06,0h0l-.06,0,0,0a0,0,0,0,1,0,0" transform="translate(-686 362.42)"/></g></g></g><path class="cls-30" d="M847.05-219.78h.14l.13,0a.19.19,0,0,1,.09,0s.05,0,.05,0l.72,1.58a.07.07,0,0,1,0,.05.09.09,0,0,1-.06,0l-.11,0h-5l-.13,0a.19.19,0,0,1-.09,0,.08.08,0,0,1,0-.05l-.65-1.58a.09.09,0,0,1,0-.05l.07,0,.1,0h4.8Z" transform="translate(-686 362.42)"/><g class="cls-2"><g class="cls-38"><g class="cls-2"><path class="cls-28" d="M836-218.1l0,0a.19.19,0,0,0,.09,0l.12,0h0l-.12,0a.19.19,0,0,1-.09,0l0,0" transform="translate(-686 362.42)"/></g></g></g><g class="cls-2"><g class="cls-39"><g class="cls-2"><path class="cls-33" d="M821.2-218.14a0,0,0,0,1,0,0s0,0-.07,0l-.11,0h0l.11,0s.06,0,.07,0a0,0,0,0,0,0,0" transform="translate(-686 362.42)"/></g></g></g><g class="cls-2"><g class="cls-40"><g class="cls-2"><path class="cls-28" d="M820.86-218H821l.11,0s.06,0,.07,0a0,0,0,0,0,0,0,0,0,0,0,1,0,0s0,0-.07,0l-.11,0h-.14" transform="translate(-686 362.42)"/></g></g></g><path class="cls-30" d="M820.44-219.84h.15l.12,0a.2.2,0,0,1,.08,0s0,0,0,0l.37,1.58a0,0,0,0,1,0,0s0,0-.07,0l-.11,0h-.14l-4.72,0H816l-.12,0-.09,0,0-.05-.3-1.58s0,0,0-.05l.07,0,.12,0h4.79Z" transform="translate(-686 362.42)"/><path class="cls-30" d="M813.45-219.85h.14l.12,0,.08,0a.07.07,0,0,1,0,.05l.28,1.58a.17.17,0,0,1,0,.05l-.07,0-.12,0h-.14l-7.37,0h-.14l-.12,0-.08,0s0,0,0,0l-.17-1.58s0,0,0-.05l.07,0,.12,0h.14Z" transform="translate(-686 362.42)"/><path class="cls-30" d="M804.29-219.87h.14l.12,0a.29.29,0,0,1,.08,0,.07.07,0,0,1,0,.05l.16,1.58a.05.05,0,0,1,0,0s0,0-.07,0l-.12,0h-.14l-7.59,0h-.14a.42.42,0,0,1-.12,0l-.08,0a.09.09,0,0,1,0-.05l0-1.58a.06.06,0,0,1,0,0l.08,0,.11,0h.14Z" transform="translate(-686 362.42)"/><g class="cls-2"><g class="cls-41"><g class="cls-2"><path class="cls-33" d="M795.32-218.2s0,0,0,0a.2.2,0,0,1-.08,0l-.12,0h0l.12,0a.2.2,0,0,0,.08,0s0,0,0,0" transform="translate(-686 362.42)"/></g></g></g><g class="cls-2"><g class="cls-42"><g class="cls-2"><path class="cls-33" d="M755.49-218.29a.07.07,0,0,1,0,0l-.08,0-.12,0-.14,0,.14,0,.12,0,.08,0a.07.07,0,0,0,0,0" transform="translate(-686 362.42)"/></g></g></g><path class="cls-30" d="M794.92-219.9h.14l.12,0a.2.2,0,0,1,.08,0,.05.05,0,0,1,0,0l0,1.58s0,0,0,0a.2.2,0,0,1-.08,0l-.12,0H795l-37.61-.09h-.14l-.11,0-.07,0a.06.06,0,0,1,0-.05l.46-1.58s0,0,0,0l.09,0a.35.35,0,0,1,.12,0h.14Z" transform="translate(-686 362.42)"/><g class="cls-2"><g class="cls-43"><g class="cls-2"><path class="cls-33" d="M749.48-218.18h-.14l-.1,0-.07,0s0,0,0-.05,0,0,0,.05l.07,0,.1,0h.14" transform="translate(-686 362.42)"/></g></g></g><path class="cls-30" d="M755.63-220h.14l.11,0,.07,0a0,0,0,0,1,0,0l-.47,1.57a.07.07,0,0,1,0,0l-.09,0-.13,0h-.15l-5.6,0h-.14l-.1,0-.07,0s0,0,0-.05l.55-1.58,0-.05.1,0,.12,0h.14Z" transform="translate(-686 362.42)"/><g class="cls-2"><g class="cls-44"><g class="cls-2"><polyline class="cls-28" points="61.22 144.24 61.23 144.24 61.23 144.24 61.24 144.24 61.24 144.24 61.24 144.24 61.23 144.24 61.23 144.24 61.22 144.24"/></g></g></g><g class="cls-2"><g class="cls-45"><g class="cls-2"><path class="cls-28" d="M739.37-218.2h.14l.13,0,.09,0a.1.1,0,0,0,0,0,.1.1,0,0,1,0,0l-.09,0-.13,0h-.14" transform="translate(-686 362.42)"/></g></g></g><g class="cls-2"><g class="cls-45"><g class="cls-2"><path class="cls-33" d="M739.78-218.32a.1.1,0,0,1,0,0l-.09,0-.13,0h0l.13,0,.09,0a.1.1,0,0,0,0,0" transform="translate(-686 362.42)"/></g></g></g><path class="cls-30" d="M747.88-220H748l.11,0,.06,0s0,0,0,.05l-.57,1.58s0,0,0,0l-.1,0-.12,0h-5.89l-.11,0-.06,0a0,0,0,0,1,0,0l.65-1.58,0,0a.25.25,0,0,1,.09,0l.13,0h5.66Z" transform="translate(-686 362.42)"/><g class="cls-2"><g class="cls-46"><g class="cls-2"><path class="cls-28" d="M729.44-218.34a0,0,0,0,0,0,0,.09.09,0,0,0,.06,0l.11,0h0l-.11,0a.09.09,0,0,1-.06,0,0,0,0,0,1,0,0" transform="translate(-686 362.42)"/></g></g></g><path class="cls-30" d="M740.14-220h.13a.35.35,0,0,1,.11,0l.06,0s0,0,0,0l-.67,1.58,0,0-.1,0-.13,0h-.15l-9.61,0h-.13l-.11,0a.09.09,0,0,1-.06,0,0,0,0,0,1,0,0l.8-1.58a.12.12,0,0,1,0-.05l.1,0,.13,0h.15Z" transform="translate(-686 362.42)"/><path class="cls-26" d="M806.93-214.4a4.4,4.4,0,0,1,.64,0,3.61,3.61,0,0,1,.54.12,1.93,1.93,0,0,1,.38.18.39.39,0,0,1,.16.22l1.17,6.91a.28.28,0,0,1-.09.25,1,1,0,0,1-.35.21,3,3,0,0,1-.54.14,4.61,4.61,0,0,1-.68.05L776-206.36a4.72,4.72,0,0,1-.68,0,2.35,2.35,0,0,1-.54-.14.9.9,0,0,1-.34-.21.29.29,0,0,1-.1-.25l1.18-6.9a.36.36,0,0,1,.16-.22,1.49,1.49,0,0,1,.38-.18,3.61,3.61,0,0,1,.54-.12,4.4,4.4,0,0,1,.64,0Z" transform="translate(-686 362.42)"/><rect class="cls-47" x="41.49" y="47.91" width="129.27" height="80.43" rx="1.29"/><rect class="cls-48" x="45.79" y="53.11" width="120.66" height="71.84"/><polygon class="cls-49" points="45.81 53.08 45.78 124.89 72.44 124.91 144.29 53.13 45.81 53.08"/><rect class="cls-50" x="112.7" y="110.66" width="29.26" height="1.25"/><rect class="cls-50" x="92.76" y="106.26" width="11.5" height="1.25"/><rect class="cls-50" x="121.53" y="101.89" width="2.89" height="1.25"/><rect class="cls-50" x="81.64" y="97.49" width="4.41" height="1.25"/><rect class="cls-50" x="81.65" y="93.1" width="8.56" height="1.25"/><rect class="cls-50" x="95.39" y="58.24" width="3.6" height="1.25"/><rect class="cls-50" x="81.58" y="80.16" width="4.74" height="1.25"/><rect class="cls-50" x="81.55" y="71.39" width="9.75" height="1.25"/><rect class="cls-50" x="98.84" y="67.01" width="10.52" height="1.25"/><rect class="cls-50" x="102.25" y="88.48" width="22.12" height="1.25"/><rect class="cls-25" x="64.96" y="115.02" width="14.55" height="1.25"/><rect class="cls-25" x="64.97" y="97.48" width="14.55" height="1.25"/><rect class="cls-25" x="71.5" y="110.64" width="19.13" height="1.25"/><rect class="cls-25" x="64.97" y="93.1" width="14.55" height="1.25"/><rect class="cls-25" x="71.5" y="106.25" width="19.13" height="1.25"/><rect class="cls-25" x="71.51" y="101.87" width="19.13" height="1.25"/><rect class="cls-25" x="92.75" y="110.65" width="17.27" height="1.25"/><rect class="cls-25" x="106.16" y="106.27" width="23.27" height="1.25"/><rect class="cls-25" x="92.76" y="101.88" width="26.97" height="1.25"/><rect class="cls-25" x="126.43" y="101.9" width="26.32" height="1.25"/><rect class="cls-25" x="81.64" y="115.03" width="36.56" height="1.25"/><rect class="cls-25" x="88.51" y="97.49" width="23.27" height="1.25"/><rect class="cls-25" x="114.67" y="97.51" width="31.44" height="1.25"/><rect class="cls-25" x="92.44" y="93.11" width="13.24" height="1.25"/><rect class="cls-25" x="108.13" y="93.12" width="31.55" height="1.25"/><rect class="cls-25" x="64.98" y="80.15" width="14.55" height="1.25"/><rect class="cls-25" x="51.91" y="58.22" width="14.55" height="1.25"/><rect class="cls-25" x="68.42" y="58.23" width="25.01" height="1.25"/><rect class="cls-25" x="51.91" y="62.61" width="9.86" height="1.25"/><rect class="cls-25" x="64" y="62.61" width="18.36" height="1.25"/><rect class="cls-25" x="84.6" y="62.62" width="29.15" height="1.25"/><rect class="cls-25" x="64.98" y="71.38" width="14.55" height="1.25"/><rect class="cls-25" x="64.98" y="75.77" width="14.55" height="1.25"/><rect class="cls-25" x="88.37" y="80.16" width="22.29" height="1.25"/><rect class="cls-25" x="112.71" y="80.17" width="22.29" height="1.25"/><rect class="cls-25" x="93.32" y="71.4" width="28.83" height="1.25"/><rect class="cls-25" x="124.16" y="71.41" width="28.83" height="1.25"/><rect class="cls-25" x="81.65" y="75.77" width="14.55" height="1.25"/><rect class="cls-25" x="98.33" y="75.78" width="30.46" height="1.25"/><rect class="cls-25" x="58.44" y="66.99" width="14.55" height="1.25"/><rect class="cls-25" x="75.37" y="67" width="21.09" height="1.25"/><rect class="cls-25" x="111.74" y="67.02" width="36.51" height="1.25"/><rect class="cls-25" x="58.43" y="84.53" width="11.01" height="1.25"/><rect class="cls-25" x="71.79" y="84.54" width="18.31" height="1.25"/><rect class="cls-25" x="92.44" y="84.55" width="22.12" height="1.25"/><rect class="cls-25" x="58.43" y="88.46" width="20.82" height="1.25"/><rect class="cls-25" x="81.59" y="88.47" width="18.31" height="1.25"/><path class="cls-3" d="M751.65-299.34l-45.79,0a1.15,1.15,0,0,0-1.15,1.15v3.2l0,46.64a1.16,1.16,0,0,0,1.15,1.15l45.78,0a1.15,1.15,0,0,0,1.15-1.15l0-46.64v-3.2A1.14,1.14,0,0,0,751.65-299.34Z" transform="translate(-686 362.42)"/><path class="cls-5" d="M729.42-298.84a1.27,1.27,0,0,1-1.07-.59l-1.21-1.91a1.25,1.25,0,0,0-1.07-.59h-9.81a1.29,1.29,0,0,0-1.07.58L714-299.44a1.26,1.26,0,0,1-1.07.59H702.79l0,46.63a1.14,1.14,0,0,0,1.15,1.15l45.78,0a1.15,1.15,0,0,0,1.15-1.15l0-46.63Z" transform="translate(-686 362.42)"/><rect class="cls-9" x="19.25" y="66.04" width="43.14" height="42.85"/><path class="cls-7" d="M749.72-303.19l-45.78,0a1.16,1.16,0,0,0-1.15,1.15v3.21h10.12a1.26,1.26,0,0,0,1.07-.59l1.21-1.91a1.29,1.29,0,0,1,1.07-.58h9.81a1.25,1.25,0,0,1,1.07.59l1.21,1.91a1.27,1.27,0,0,0,1.07.59h21.45V-302A1.15,1.15,0,0,0,749.72-303.19Z" transform="translate(-686 362.42)"/><path class="cls-17" d="M706.6-301.07a1,1,0,0,1-1,1,1,1,0,0,1-1-1,1,1,0,0,1,1-1A1,1,0,0,1,706.6-301.07Z" transform="translate(-686 362.42)"/><path class="cls-13" d="M709.62-301.07a1,1,0,0,1-1,1,1,1,0,0,1-1-1,1,1,0,0,1,1-1A1,1,0,0,1,709.62-301.07Z" transform="translate(-686 362.42)"/><path class="cls-14" d="M712.63-301.07a1,1,0,0,1-1,1,1,1,0,0,1-1-1,1,1,0,0,1,1-1A1,1,0,0,1,712.63-301.07Z" transform="translate(-686 362.42)"/><path class="cls-8" d="M742.94-299.42l-1.21-1.91a1.26,1.26,0,0,0-1.07-.59h-9.81a1.29,1.29,0,0,0-1.07.59l-1.21,1.91a1.26,1.26,0,0,1-1.07.59H744A1.29,1.29,0,0,1,742.94-299.42Z" transform="translate(-686 362.42)"/><path class="cls-51" d="M711-293.38h-3.2v.73H711Zm0,2.2h-3.2v.73H711Zm11.23.73v-.72h-3.92v.72ZM711-289h-3.2v.73H711Zm-1,2.2h-2.25v.73H710Zm1,2.21h-3.2v.73H711Zm10.82.73v-.73h-3.21v.72ZM711-282.37h-3.2v.72H711Zm6.86.73h5.87v-.73h-5.87ZM711-280.17h-3.2v.72H711Zm0,2.2h-3.21v.72H711Zm0,2.2h-3.21v.73H711Zm-1,2.2h-2.25v.73H710Zm1,2.2h-3.2v.73H711Zm0,2.2h-3.2v.73H711Zm0,2.21h-3.2v.73H711Zm0,2.2h-3.2v.72H711Zm0,2.2h-3.2v.72H711Zm0,2.2h-3.2v.72H711Zm-3.2,2.93H710v-.73h-2.25ZM717-293.38h-5.6v.73H717Zm6.1,0h-5.6v.73h5.6Zm-5.3,2.2h-6.4v.73h6.4Zm-1.41,2.2h-5v.73h5Zm.5,0v.72h6.81V-289Zm-1.58,2.2h-4.83v.72h4.83Zm7.17,0h-6.66v.72h6.66Zm-4.49,2.2h-6.59v.72H718Zm-.76,2.2h-5.83v.72h5.83Zm-5.83,2.92h6.28v-.73h-6.28Zm11-.72h-4.1v.73h4.1Zm-11,2.93h7.82V-278h-7.82Zm5.53,1.47h-5.53v.73H717Zm.72,2.21h-7.16v.73h7.16Zm-3,2.2h-3.2v.73h3.2Zm-3.2,2.92h3.2v-.72h-3.2Zm0,2.2h3.2V-267h-3.2Zm4,1.48h-4v.72h4Zm0,2.2h-4v.72h4Zm-4,2.92h3.2v-.73h-3.2Zm3.66-11h8.34v-.72h-8.34Zm0,2.2h6v-.72h-6Zm7.47,1.48h-7.47v.72h7.47Zm-6.56,2.2v.72h2.8v-.73Zm0,2.93h5.16v-.73H716Zm-.91,2.2h7.7v-.73h-7.7Zm-4.58,2.2h6.73v-.73H710.5Z" transform="translate(-686 362.42)"/><path class="cls-10" d="M733.1-293.37h-3.2v.73h3.2Zm0,2.2h-3.2v.73h3.21Zm0,2.2h-3.21v.73h3.21Zm-1,2.2h-2.25v.73h2.25Zm0,2.21h-2.25v.72h2.25Zm1,2.2h-3.2v.72h3.2Zm0,2.2h-3.2v.72h3.2Zm0,2.2h-3.2v.72h3.2Zm-3.2,2.92h3.85v-.73h-3.85Zm0,2.21h3.85v-.73h-3.85Zm0,2.2h3.85v-.73h-3.85Zm0,2.2h3.86v-.73h-3.85Zm0,2.2h3.85v-.72h-3.85Zm0,2.2h3.85v-.72h-3.85Zm0,2.2h3.85v-.72h-3.85Zm0,2.2h3.85v-.73h-3.85Zm0,2.21h3.85v-.73h-3.85Zm14.67-5.13h-2.32v.73h2.32Zm-2.32,2.2v.73h3.48v-.72Zm0,2.93h3v-.72h-3Zm-4.63-35.95h-4v.73h4Zm0,2.21h-4.05v.73h4.05Zm-.84,2.2h-3.21v.73h3.21Zm4.16-4.4h-2.79v.73h2.79Zm2.37,2.2h-5.16v.72h5.16Zm-6.08,2.92h7.7V-289h-7.7Zm-4.57,1.48v.72h6.73v-.72Zm0,2.92H742v-.73h-9.4Zm.91,1.48v.72h5.24v-.73Zm8,0h-2.22v.73h2.22Zm-8,2.92h7.83v-.73h-7.83Zm12.12,1.49H733.55v.72h12.12Zm-9,2.19h-2.51v.73h2.51Zm0,2.2h-2.51v.73h2.51Zm0,2.21h-2.51v.73h2.51Zm0,2.2h-2.51v.73h2.52Zm0,2.2h-2.52v.72h2.52ZM734.15-264h2.52v-.72h-2.52Zm3.06-11h5.87v-.73h-5.87Zm7.37,1.48h-7.37v.73h7.36Zm-7.37,2.92h5.13v-.72h-5.13Zm8.23,1.48H737.2v.72h8.24Zm-2.09,2.2H737.2v.72h6.15Zm-2.46,2.2H737.2v.72h3.69Zm-6.74,2.92h7.68v-.73h-7.68Zm0,2.21h7.67v-.73h-7.67Zm0,2.2h7.67v-.73h-7.67Z" transform="translate(-686 362.42)"/><path class="cls-12" d="M690.93-240.12h.12a6.3,6.3,0,0,1,6-4.34,6.29,6.29,0,0,1,4.25,1.65,4.58,4.58,0,0,1,2.06-.46,4.74,4.74,0,0,1,4,2.16,3.65,3.65,0,0,1,1.15-.19,3.54,3.54,0,0,1,3.52,3.17l.42,0a3.94,3.94,0,0,1,3.94,3.95,4,4,0,0,1-3.94,3.94H690.92a4.93,4.93,0,0,1-4.92-4.93A4.93,4.93,0,0,1,690.93-240.12Z" transform="translate(-686 362.42)"/><path class="cls-3" d="M904.16-295.9l-84.14,0a1.54,1.54,0,0,0-1.53,1.53v4.28l0,50.64A1.52,1.52,0,0,0,820-238l84.14,0a1.53,1.53,0,0,0,1.53-1.53l0-50.65v-4.27A1.52,1.52,0,0,0,904.16-295.9Z" transform="translate(-686 362.42)"/><path class="cls-5" d="M852.08-294a1.68,1.68,0,0,1-1.42-.79L849-297.3a1.71,1.71,0,0,0-1.42-.78H834.53a1.69,1.69,0,0,0-1.42.79l-1.62,2.54a1.7,1.7,0,0,1-1.43.79H816.57l0,50.65a1.53,1.53,0,0,0,1.53,1.53l84.14,0a1.53,1.53,0,0,0,1.53-1.52l0-50.65Z" transform="translate(-686 362.42)"/><rect class="cls-6" x="133.85" y="71.75" width="80.62" height="45.59"/><path class="cls-7" d="M902.24-299.75l-84.14,0a1.53,1.53,0,0,0-1.53,1.52V-294h13.49a1.7,1.7,0,0,0,1.43-.79l1.62-2.54a1.69,1.69,0,0,1,1.42-.79h13.09a1.71,1.71,0,0,1,1.42.78l1.62,2.55a1.68,1.68,0,0,0,1.42.79l51.69,0v-4.28A1.53,1.53,0,0,0,902.24-299.75Z" transform="translate(-686 362.42)"/><path class="cls-52" d="M821.65-296.94a1.31,1.31,0,0,1-1.32,1.31,1.31,1.31,0,0,1-1.31-1.31,1.32,1.32,0,0,1,1.32-1.32A1.32,1.32,0,0,1,821.65-296.94Z" transform="translate(-686 362.42)"/><path class="cls-13" d="M825.67-296.94a1.32,1.32,0,0,1-1.31,1.32,1.33,1.33,0,0,1-1.32-1.32,1.32,1.32,0,0,1,1.32-1.32A1.31,1.31,0,0,1,825.67-296.94Z" transform="translate(-686 362.42)"/><path class="cls-14" d="M829.69-296.94a1.31,1.31,0,0,1-1.31,1.32,1.32,1.32,0,0,1-1.32-1.32,1.31,1.31,0,0,1,1.32-1.31A1.3,1.3,0,0,1,829.69-296.94Z" transform="translate(-686 362.42)"/><path class="cls-9" d="M823.1-286.79l1.19-1.19a.17.17,0,0,0,.05-.12.16.16,0,0,0-.05-.11l-.35-.35a.15.15,0,0,0-.23,0l-1.77,1.77,1.77,1.77a.15.15,0,0,0,.23,0l.35-.35a.16.16,0,0,0,.05-.11.13.13,0,0,0-.05-.11Z" transform="translate(-686 362.42)"/><path class="cls-9" d="M830-286.79,828.79-288a.16.16,0,0,1,0-.11.17.17,0,0,1,0-.12l.35-.35a.17.17,0,0,1,.23,0l1.77,1.77L829.37-285a.17.17,0,0,1-.23,0l-.35-.36a.16.16,0,0,1,0-.11.16.16,0,0,1,0-.11Z" transform="translate(-686 362.42)"/><path class="cls-9" d="M827.88-288.57a.24.24,0,0,0-.08-.09l-.45-.24a.16.16,0,0,0-.21.07l-2,3.7a.17.17,0,0,0,0,.12.16.16,0,0,0,.08.1l.44.23a.17.17,0,0,0,.22-.06l2-3.71A.16.16,0,0,0,827.88-288.57Z" transform="translate(-686 362.42)"/><rect class="cls-50" x="169.32" y="101.86" width="14.6" height="0.9"/><rect class="cls-52" x="160.66" y="101.86" width="8.66" height="0.9"/><rect class="cls-18" x="153.7" y="101.86" width="6.96" height="0.9"/><rect class="cls-9" x="143.35" y="101.85" width="10.35" height="0.9"/><rect class="cls-50" x="172.71" y="100.4" width="19.69" height="0.9"/><rect class="cls-53" x="164.06" y="100.39" width="8.66" height="0.9"/><rect class="cls-50" x="157.1" y="100.39" width="6.96" height="0.9"/><rect class="cls-9" x="143.35" y="100.38" width="13.75" height="0.9"/><rect class="cls-53" x="165.07" y="98.92" width="9.5" height="0.9"/><rect class="cls-50" x="156.42" y="98.92" width="8.66" height="0.9"/><rect class="cls-18" x="149.46" y="98.92" width="6.96" height="0.9"/><rect class="cls-9" x="143.35" y="98.91" width="6.11" height="0.9"/><rect class="cls-9" x="166.77" y="97.46" width="12.05" height="0.9"/><rect class="cls-50" x="158.12" y="97.45" width="8.66" height="0.9"/><rect class="cls-18" x="151.16" y="97.45" width="6.96" height="0.9"/><rect class="cls-9" x="143.35" y="97.45" width="7.81" height="0.9"/><rect class="cls-52" x="153.03" y="95.98" width="8.66" height="0.9"/><rect class="cls-9" x="146.07" y="95.98" width="6.96" height="0.9"/><rect class="cls-9" x="141.65" y="103.32" width="2.72" height="0.9"/><rect class="cls-21" x="141.65" y="95.97" width="4.41" height="0.9"/><rect class="cls-50" x="169.31" y="111.24" width="14.6" height="0.9"/><rect class="cls-18" x="160.66" y="111.24" width="8.66" height="0.9"/><rect class="cls-53" x="153.7" y="111.23" width="6.96" height="0.9"/><rect class="cls-9" x="143.34" y="111.23" width="10.35" height="0.9"/><rect class="cls-50" x="172.71" y="109.78" width="19.69" height="0.9"/><rect class="cls-18" x="164.05" y="109.77" width="8.66" height="0.9"/><rect class="cls-53" x="157.09" y="109.77" width="6.96" height="0.9"/><rect class="cls-9" x="143.35" y="109.76" width="13.75" height="0.9"/><rect class="cls-9" x="158.11" y="108.3" width="8.66" height="0.9"/><rect class="cls-52" x="151.15" y="108.29" width="6.96" height="0.9"/><rect class="cls-21" x="145.04" y="108.29" width="6.11" height="0.9"/><rect class="cls-9" x="146.91" y="106.82" width="6.96" height="0.9"/><rect class="cls-21" x="143.35" y="106.82" width="3.56" height="0.9"/><rect class="cls-18" x="161.68" y="105.36" width="12.05" height="0.9"/><rect class="cls-15" x="184.08" y="105.37" width="14.6" height="0.9"/><rect class="cls-21" x="173.73" y="105.37" width="10.35" height="0.9"/><rect class="cls-15" x="153.02" y="105.36" width="8.66" height="0.9"/><rect class="cls-52" x="146.06" y="105.36" width="6.96" height="0.9"/><rect class="cls-9" x="141.65" y="112.7" width="2.72" height="0.9"/><rect class="cls-50" x="141.65" y="105.35" width="4.41" height="0.9"/><rect class="cls-9" x="160.66" y="92.48" width="8.66" height="0.9"/><rect class="cls-52" x="153.71" y="92.48" width="6.96" height="0.9"/><rect class="cls-21" x="143.35" y="92.47" width="10.35" height="0.9"/><rect class="cls-52" x="161.51" y="91.01" width="5.26" height="0.9"/><rect class="cls-53" x="154.56" y="91.01" width="6.96" height="0.9"/><rect class="cls-50" x="143.35" y="91.01" width="11.2" height="0.9"/><rect class="cls-53" x="159.14" y="89.54" width="9.5" height="0.9"/><rect class="cls-15" x="168.64" y="89.55" width="18.84" height="0.9"/><rect class="cls-52" x="153.88" y="89.54" width="5.26" height="0.9"/><rect class="cls-52" x="173.74" y="88.08" width="5.26" height="0.9"/><rect class="cls-9" x="147.77" y="89.54" width="6.11" height="0.9"/><rect class="cls-21" x="143.35" y="89.54" width="4.41" height="0.9"/><rect class="cls-50" x="161.69" y="88.08" width="12.05" height="0.9"/><rect class="cls-18" x="153.03" y="88.07" width="8.66" height="0.9"/><rect class="cls-50" x="146.07" y="88.07" width="6.96" height="0.9"/><rect class="cls-53" x="193.76" y="88.09" width="10.35" height="0.9"/><rect class="cls-50" x="185.11" y="88.09" width="8.66" height="0.9"/><rect class="cls-15" x="179" y="88.08" width="6.11" height="0.9"/><rect class="cls-21" x="141.66" y="88.07" width="4.41" height="0.9"/><rect class="cls-9" x="141.66" y="93.94" width="2.72" height="0.9"/><rect class="cls-9" x="138.27" y="80.16" width="2.72" height="0.9"/><rect class="cls-9" x="139.95" y="114.16" width="2.72" height="0.9"/><rect class="cls-50" x="153.03" y="86.04" width="14.6" height="0.9"/><rect class="cls-18" x="147.77" y="86.04" width="5.26" height="0.9"/><rect class="cls-50" x="141.66" y="86.03" width="6.11" height="0.9"/><rect class="cls-52" x="170" y="84.58" width="5.26" height="0.9"/><rect class="cls-52" x="167.63" y="86.04" width="5.26" height="0.9"/><rect class="cls-50" x="163.04" y="84.57" width="6.96" height="0.9"/><rect class="cls-18" x="141.66" y="84.57" width="21.38" height="0.9"/><rect class="cls-52" x="168.31" y="83.11" width="5.26" height="0.9"/><rect class="cls-9" x="173.74" y="81.64" width="14.6" height="0.9"/><rect class="cls-50" x="146.07" y="83.1" width="22.23" height="0.9"/><rect class="cls-21" x="141.66" y="83.09" width="4.41" height="0.9"/><rect class="cls-21" x="161.69" y="81.64" width="12.05" height="0.9"/><rect class="cls-15" x="151.04" y="81.63" width="10.65" height="0.9"/><rect class="cls-52" x="144.38" y="81.63" width="6.66" height="0.9"/><rect class="cls-50" x="139.96" y="81.63" width="4.41" height="0.9"/><path class="cls-8" d="M870.75-294.74l-1.61-2.55a1.69,1.69,0,0,0-1.43-.78H854.63a1.7,1.7,0,0,0-1.43.79l-1.61,2.54a1.7,1.7,0,0,1-1.43.79h22A1.7,1.7,0,0,1,870.75-294.74Z" transform="translate(-686 362.42)"/></g></g></g></svg>