<?xml version="1.0" encoding="UTF-8"?>
<svg width="28px" height="35px" viewBox="0 0 28 35" version="1.1" xmlns="http://www.w3.org/2000/svg" xmlns:xlink="http://www.w3.org/1999/xlink">
    <!-- Generator: Sketch 54.1 (76490) - https://sketchapp.com -->
    <title>Lock</title>
    <desc>Created with Sketch.</desc>
    <g id="Lock" stroke="none" stroke-width="1" fill="none" fill-rule="evenodd">
        <g transform="translate(0.500000, -0.000000)" fill="#404040" id="Combined-Shape">
            <path d="M2.59087538,14.0181442 C2.24733095,4.67271475 5.86382337,6.75015599e-13 13.4403527,6.75015599e-13 C21.0168819,6.75015599e-13 24.6291159,4.67271475 24.2770546,14.0181442 C25.8201189,13.9978094 26.9377901,14.7182947 27,17.236979 L27,32.623158 C26.6924108,34.2077193 26.0233631,35 24.9928569,35 C23.9623506,35 16.3232512,35 2.07555873,35 C0.697950607,34.682544 0.00914654719,33.8902633 0.00914654719,32.623158 C0.00914654719,31.3560526 0.00914654719,26.2273263 0.00914654719,17.236979 C-0.101880204,15.1231156 0.800157745,14.0508253 2.59087538,14.0181442 Z M11.2677194,24.4930642 L11.2677194,29.3852192 C11.3536686,29.9029063 11.6364776,30.2382814 11.9628115,30.3406108 L14.8427913,30.3406108 C15.4579139,30.212755 15.5149537,30.0216963 15.6468301,29.3852192 L15.6468301,24.4930642 C17.0228642,22.7825387 16.3026606,20.9096084 15.3708765,20.1289441 C14.9457447,19.7727615 14.3231022,19.5680939 13.5029489,19.5149412 C12.7051489,19.6121376 12.0877789,19.8168052 11.6508391,20.1289441 C10.6398735,20.8511525 9.91799489,22.689697 11.2677194,24.4930642 Z M7.15649265,14.0181442 L19.8008084,14.0181442 C20.6248576,7.69127806 18.5174717,4.52784496 13.4786505,4.52784496 C8.43982933,4.52784496 6.33244337,7.69127806 7.15649265,14.0181442 Z"></path>
        </g>
    </g>
</svg>