<?xml version="1.0" encoding="UTF-8"?>
<svg width="353px" height="246px" viewBox="0 0 353 246" version="1.1" xmlns="http://www.w3.org/2000/svg" xmlns:xlink="http://www.w3.org/1999/xlink">
    <!-- Generator: Sketch 61.2 (89653) - https://sketch.com -->
    <title>magnifying_glass</title>
    <desc>Created with Sketch.</desc>
    <defs>
        <path d="M309.035995,20.5519997 C254.878224,20.6262998 209.008392,60.4946949 201.389997,114.113998 L198.155997,114.113998 L194.333997,114.113998 L194.333997,114.113998 L189.685997,114.113998 L188.901997,114.113998 L194.333997,114.113998 C193.311997,111.509998 188.845997,101.653998 179.199997,98.0979983 C173.991997,96.1799984 170.001997,98.9239983 167.285997,102.073998 L167.285997,102.073998 L166.823997,101.681998 L166.333997,101.275998 L166.123997,101.093998 L166.123997,101.093998 C164.26281,99.6099876 162.179211,98.428809 159.949997,97.5939983 C154.461997,95.5779984 150.275997,98.5179983 147.433997,101.793998 L147.433997,101.793998 L147.181997,101.681998 L146.831997,101.527998 L146.411998,101.331998 L145.935998,101.135998 L145.781998,101.135998 L145.781998,101.135998 C142.631998,99.8199983 137.787998,98.3359983 133.391998,99.1059983 C129.793998,99.7639983 128.169998,100.505998 127.231998,101.233998 C126.867998,101.541998 125.369998,103.179998 123.619998,105.195998 L123.619998,105.195998 L123.101998,104.999998 L123.101998,104.999998 L122.359998,104.663998 L122.359998,104.663998 C119.937998,103.487998 116.199998,101.961998 113.539998,102.157998 C110.144415,102.597025 106.916432,103.893036 104.159998,105.923998 C102.563998,106.945998 96.5439984,111.845998 97.5799983,116.255998 L97.1879983,116.423998 C96.9079983,116.549998 96.6139984,116.689998 96.3339984,116.843998 L95.8579984,117.123998 L95.2979984,117.459998 L94.8219984,117.795998 L94.5979984,117.949998 L94.5979984,117.949998 C94.0343039,118.373889 93.5052952,118.842038 93.0159984,119.349998 C90.439838,121.96217 88.9920033,125.481213 88.9839985,129.149998 L88.9839985,129.149998 C88.1240781,129.648966 87.3213058,130.240483 86.5899985,130.913998 L86.5899985,130.913998 C84.5039986,132.579998 81.4099986,135.113998 78.7919987,137.311998 L78.0079987,133.209998 L68.5999988,135.183998 L67.7599988,130.591998 L0,146.425998 L0,227.163996 L82.5999986,207.997996 L81.7599986,203.405997 L91.1679984,201.417997 L90.0339985,195.467997 C100.505998,191.001997 111.033998,186.521997 118.173998,183.469997 L120.707998,182.377997 C139.061998,174.565997 153.817997,173.361997 160.495997,172.003997 L161.979997,171.709997 L163.533997,171.415997 L163.771997,171.415997 L165.171997,171.107997 L165.311997,171.107997 C166.375997,170.883997 167.453997,170.645997 168.503997,170.351997 L168.671997,170.351997 C169.133997,170.225997 169.581997,170.085997 170.071997,169.931997 L170.351997,169.847997 C170.785997,169.693997 171.233997,169.539997 171.653997,169.371997 L171.863997,169.301997 C174.957645,168.171488 177.640271,166.137569 179.563997,163.463997 C183.329997,158.045997 192.051997,147.965997 194.571997,145.081998 L194.571997,145.081998 L194.781997,144.843998 L195.271997,144.269998 L195.271997,144.269998 L194.963997,144.269998 L191.911997,144.269998 L186.311997,144.269998 L186.311997,144.269998 L201.347997,144.423998 C209.316922,201.976986 261.133311,243.090219 318.990988,237.766737 C376.848665,232.443254 420.29294,182.565091 417.626083,124.52426 C414.959225,66.4834291 367.124062,20.7993693 309.021995,20.8039996 L309.035995,20.5519997 Z M91.1819984,136.667998 L91.1819984,136.667998 L91.0699984,136.443998 L91.1959984,136.653998 L91.1819984,136.667998 Z M90.2299985,134.875998 L90.4399985,135.309998 L90.2299985,134.875998 Z M89.6279985,133.321998 L89.7119985,133.545998 L89.6279985,133.321998 Z M89.1659985,131.221998 C89.1659985,131.389998 89.1659985,131.557998 89.2359985,131.725998 C89.2079985,131.599998 89.1939985,131.389998 89.1659985,131.221998 Z M89.0399985,129.989998 C89.0323094,129.87813 89.0323094,129.765866 89.0399985,129.653998 L89.0399985,129.149998 C89.0119985,129.429998 89.0119985,129.709998 89.0399985,129.989998 Z M309.035995,223.523996 C258.574858,223.460049 217.094568,183.70682 214.885996,133.293998 C216.020469,131.289662 216.458647,128.965842 216.131996,126.685998 C215.96375,125.375813 215.590525,124.100233 215.025996,122.905998 C218.495636,71.8084277 262.140946,32.8369166 313.303812,35.1523531 C364.466677,37.4677897 404.413375,80.2223569 403.253322,131.42445 C402.093269,182.626544 360.251228,223.528075 309.035995,223.523996 L309.035995,223.523996 Z" id="path-1"></path>
        <filter x="-2.5%" y="-3.4%" width="105.0%" height="109.6%" filterUnits="objectBoundingBox" id="filter-2">
            <feOffset dx="0" dy="3" in="SourceAlpha" result="shadowOffsetOuter1"></feOffset>
            <feGaussianBlur stdDeviation="3" in="shadowOffsetOuter1" result="shadowBlurOuter1"></feGaussianBlur>
            <feColorMatrix values="0 0 0 0 0   0 0 0 0 0   0 0 0 0 0  0 0 0 0.5 0" type="matrix" in="shadowBlurOuter1"></feColorMatrix>
        </filter>
        <filter x="-2.0%" y="-2.5%" width="104.1%" height="107.8%" filterUnits="objectBoundingBox" id="filter-3">
            <feGaussianBlur stdDeviation="2" in="SourceAlpha" result="shadowBlurInner1"></feGaussianBlur>
            <feOffset dx="0" dy="1" in="shadowBlurInner1" result="shadowOffsetInner1"></feOffset>
            <feComposite in="shadowOffsetInner1" in2="SourceAlpha" operator="arithmetic" k2="-1" k3="1" result="shadowInnerInner1"></feComposite>
            <feColorMatrix values="0 0 0 0 0   0 0 0 0 0   0 0 0 0 0  0 0 0 0.5 0" type="matrix" in="shadowInnerInner1"></feColorMatrix>
        </filter>
    </defs>
    <g id="magnifying_glass" stroke="none" stroke-width="1" fill="none" fill-rule="evenodd">
        <g id="GraphicsIcons" transform="translate(-66.000000, 0.000000)">
            <g id="Group">
                <path d="M269.149995,174.089997 L254.211996,174.089997 L254.211996,91.4899984 C254.078345,87.2162926 257.428645,83.6405521 261.701996,83.4959986 L261.701996,83.4959986 C265.958735,83.6630609 269.283995,87.2320898 269.149995,91.4899984 L269.149995,174.089997 Z" id="Path" fill="#9FFFFE"></path>
                <path d="M292.263995,174.089997 L277.269995,174.089997 L277.269995,103.599998 C277.13601,99.3189024 280.480063,95.7310768 284.759995,95.5639984 L284.759995,95.5639984 C286.822406,95.629659 288.773636,96.514452 290.181945,98.022603 C291.590253,99.5307539 292.339533,101.537925 292.263995,103.599998 L292.263995,174.089997 Z" id="Path" fill="#603694"></path>
                <path d="M315.335995,174.089997 L300.397995,174.089997 L300.397995,59.835999 C300.288026,55.5809175 303.633702,52.0351263 307.887995,51.8979991 L307.887995,51.8979991 C312.129102,52.0501191 315.454043,55.5938063 315.335995,59.835999 L315.335995,174.089997 Z" id="Path" fill="#FCC876"></path>
                <path d="M338.463994,174.089997 L323.469994,174.089997 L323.469994,139.089998 C323.375374,134.840802 326.712468,131.304107 330.959994,131.151998 L330.959994,131.151998 C335.216423,131.28914 338.566135,134.832585 338.463994,139.089998 L338.463994,174.089997 Z" id="Path" fill="#E34366"></path>
                <path d="M361.577994,174.089997 L346.583994,174.089997 L346.583994,105.181998 C346.458223,100.905952 349.812543,97.3325996 354.087994,97.1879983 L354.087994,97.1879983 C358.354493,97.3476202 361.696163,100.91415 361.577994,105.181998 L361.577994,174.089997 Z" id="Path" fill="#31DD77"></path>
                <rect id="Rectangle" fill="#1B4A6E" fill-rule="nonzero" x="243.571996" y="84.0979986" width="5.7119999" height="1.11999998"></rect>
                <rect id="Rectangle" fill="#1B4A6E" fill-rule="nonzero" x="243.571996" y="98.9799983" width="5.7119999" height="1.11999998"></rect>
                <rect id="Rectangle" fill="#1B4A6E" fill-rule="nonzero" x="243.571996" y="113.903998" width="5.7119999" height="1.11999998"></rect>
                <rect id="Rectangle" fill="#1B4A6E" fill-rule="nonzero" x="243.571996" y="128.785998" width="5.7119999" height="1.11999998"></rect>
                <rect id="Rectangle" fill="#1B4A6E" fill-rule="nonzero" x="243.571996" y="143.723998" width="5.7119999" height="1.11999998"></rect>
                <rect id="Rectangle" fill="#1B4A6E" fill-rule="nonzero" x="243.571996" y="158.605997" width="5.7119999" height="1.11999998"></rect>
                <polygon id="Path" fill="#1B4A6E" fill-rule="nonzero" points="248.779996 73.7239987 246.427996 69.2019988 244.075996 73.7239987 243.081996 73.2059988 246.427996 66.7799989 249.773996 73.2059988"></polygon>
                <polygon id="Path" fill="#1B4A6E" fill-rule="nonzero" points="368.759994 174.649997 245.867996 174.649997 245.867996 67.9839988 246.987996 67.9839988 246.987996 173.543997 368.759994 173.543997"></polygon>
                <rect id="Rectangle" fill="#FACE1D" fill-rule="nonzero" x="106.623998" y="23.5479996" width="6.43999989" height="51.9819991"></rect>
                <rect id="Rectangle" fill="#1B4A6E" fill-rule="nonzero" x="100.141998" y="13.9579998" width="6.48199989" height="61.571999"></rect>
                <rect id="Rectangle" fill="#E34366" fill-rule="nonzero" x="93.6599984" y="54.7959991" width="6.48199989" height="20.7199996"></rect>
                <rect id="Rectangle" fill="#F1872B" fill-rule="nonzero" x="138.235998" y="14.4339998" width="6.48199989" height="61.095999"></rect>
                <rect id="Rectangle" fill="#603694" fill-rule="nonzero" x="131.753998" y="27.2999995" width="6.48199989" height="48.2159992"></rect>
                <rect id="Rectangle" fill="#0071BB" fill-rule="nonzero" x="125.299998" y="1.69399997" width="6.43999989" height="73.8359987"></rect>
                <rect id="Rectangle" fill="#603694" fill-rule="nonzero" x="169.847997" y="0.61599999" width="6.48199989" height="74.9139987"></rect>
                <rect id="Rectangle" fill="#F9B71A" fill-rule="nonzero" x="163.393997" y="7.61599987" width="6.43999989" height="67.9139988"></rect>
                <rect id="Rectangle" fill="#9FFFFE" fill-rule="nonzero" x="156.911997" y="23.0719996" width="6.48199989" height="52.4439991"></rect>
                <rect id="Rectangle" fill="#BAD2ED" fill-rule="nonzero" x="201.487997" y="32.4799994" width="6.43999989" height="43.0499993"></rect>
                <rect id="Rectangle" fill="#53AD9E" fill-rule="nonzero" x="195.005997" y="40.4179993" width="6.48199989" height="35.1119994"></rect>
                <rect id="Rectangle" fill="#E34366" fill-rule="nonzero" x="188.523997" y="24.9059996" width="6.48199989" height="50.6099991"></rect>
                <rect id="Rectangle" fill="#1B4A6E" fill-rule="nonzero" x="88.2699985" y="75.1379987" width="125.075998" height="1"></rect>
                <path d="M88.4939985,179.269973 C95.0675475,179.258673 100.999597,183.211265 103.520419,189.282273 C106.041241,195.35328 104.653596,202.345179 100.005388,206.993387 C95.3571803,211.641594 88.3652821,213.029239 82.2942747,210.508417 C76.2232673,207.987595 72.2706748,202.055546 72.2819745,195.481997 C72.289718,186.531556 79.5435576,179.277716 88.4939985,179.269973 Z" id="Path" fill="#53AD9E"></path>
                <path d="M88.4939985,179.269973 C95.0675475,179.258673 100.999597,183.211265 103.520419,189.282273 C106.041241,195.35328 104.653596,202.345179 100.005388,206.993387 C95.3571803,211.641594 88.3652821,213.029239 82.2942747,210.508417 C76.2232673,207.987595 72.2706748,202.055546 72.2819988,195.481997 C72.2605031,192.664937 72.985039,189.89238 74.3819987,187.445997 C73.6305828,189.178378 73.2399733,191.045681 73.2339988,192.933997 C73.2199733,200.396392 79.1728785,206.501589 86.6332482,206.676034 C94.0936179,206.850479 100.325376,201.030196 100.66016,193.575301 C100.994945,186.120405 95.3099741,179.764966 87.8639985,179.269973 L88.4939985,179.269973 Z" id="Path" fill="#5DBA9F"></path>
                <path d="M131.459998,181.593743 C139.138127,181.64036 145.327829,187.896826 145.291973,195.57501 C145.255805,203.253195 139.007689,209.451326 131.329463,209.425744 C123.651237,209.400004 117.444689,203.16025 117.45997,195.481997 C117.467376,191.781499 118.94833,188.236329 121.57547,185.630206 C124.202609,183.024084 127.75956,181.571652 131.459998,181.593743 L131.459998,181.593743 Z" id="Path" fill="#1B4A6E"></path>
                <path d="M131.599998,181.593997 C139.266679,181.686574 145.41412,187.963046 145.347445,195.629996 C145.280771,203.296947 139.025103,209.465557 131.357971,209.424986 C123.690839,209.384014 117.50113,203.149223 117.515971,195.481997 C117.533909,193.450533 118.012596,191.449621 118.915998,189.629997 C118.551233,190.736651 118.366878,191.894781 118.369998,193.059997 C118.361619,199.251627 123.215079,204.359571 129.39906,204.667354 C135.583041,204.975136 140.919712,200.374364 141.526178,194.212501 C142.132644,188.050639 137.795324,182.497727 131.669998,181.593997 L131.599998,181.593997 Z" id="Path" fill="#163B58"></path>
                <path d="M177.197997,176.399997 C187.72123,176.399997 196.251997,184.930763 196.251997,195.453997 C196.251997,205.97723 187.72123,214.507996 177.197997,214.507996 C166.674764,214.507996 158.143997,205.97723 158.143997,195.453997 C158.143997,190.400562 160.151467,185.554102 163.724785,181.980784 C167.298103,178.407466 172.144562,176.399997 177.197997,176.399997 Z" id="Path" fill="#E34366"></path>
                <path d="M177.197997,176.399997 C186.1062,176.34797 193.87583,182.440682 195.949459,191.104333 C198.023088,199.767984 193.853959,208.718215 185.887556,212.705095 C177.921153,216.691974 168.25799,214.664275 162.566184,207.811383 C156.874378,200.958491 156.654696,191.08732 162.035997,183.987997 C158.150105,189.920763 158.791602,197.735152 163.593012,202.954762 C168.394422,208.174373 176.12819,209.46473 182.364098,206.086665 C188.600006,202.7086 191.743747,195.525767 189.994458,188.652787 C188.245169,181.779807 182.050082,176.973863 174.957997,176.987997 C173.410328,176.979074 171.870657,177.210497 170.393997,177.673997 C172.562148,176.825219 174.869629,176.388412 177.197997,176.385997 L177.197997,176.399997 Z" id="Path" fill="#B00941"></path>
                <path d="M225.497996,179.073973 C232.147006,179.07967 238.137632,183.090798 240.675551,189.236393 C243.21347,195.381987 241.798682,202.451295 237.091114,207.146844 C232.383546,211.842392 225.310645,213.239103 219.171558,210.685481 C213.032471,208.13186 209.036672,202.131 209.047972,195.481997 C209.051705,191.124182 210.787358,186.946532 213.872735,183.869032 C216.958113,180.791532 221.140186,179.066565 225.497996,179.073973 Z" id="Path" fill="#FACE1D"></path>
                <path d="M225.497996,179.073997 C233.069531,179.092511 239.645228,184.289542 241.412607,191.651937 C243.179985,199.014331 239.680055,206.630065 232.942017,210.083662 C226.20398,213.537259 217.977712,211.931814 213.03267,206.198138 C208.087628,200.464463 207.708045,192.091599 212.113996,185.933997 C210.858527,188.053124 210.196059,190.470888 210.195996,192.933997 C210.190333,198.37124 213.46129,203.276246 218.483023,205.360915 C223.504756,207.445583 229.287834,206.299172 233.13455,202.456463 C236.981267,198.613753 238.133704,192.831873 236.054271,187.80797 C233.974837,182.784068 229.073242,179.508 223.635996,179.507997 C222.790332,179.490276 221.945276,179.565392 221.115996,179.731997 C222.540724,179.324542 224.016172,179.121845 225.497996,179.129997 L225.497996,179.073997 Z" id="Path" fill="#F9B71A"></path>
                <path d="M36.3579994,219.477996 L63.8679989,219.477996 C65.1251335,219.485639 66.1423565,220.502862 66.1499989,221.759996 L66.1499989,221.759996 C66.1197497,223.0007 65.1090501,223.992797 63.8679989,223.999996 L36.3579994,223.999996 C35.1008648,223.992354 34.0836418,222.975131 34.0759994,221.717996 L34.0759994,221.717996 C34.0836418,220.460862 35.1008648,219.443639 36.3579994,219.435996 L36.3579994,219.477996 Z" id="Path" fill="#1B4A6E"></path>
                <path d="M74.7599987,219.477996 L102.255998,219.477996 C103.513133,219.485639 104.530356,220.502862 104.537998,221.759996 L104.537998,221.759996 C104.507749,223.0007 103.497049,223.992797 102.255998,223.999996 L74.7599987,223.999996 C73.5028641,223.992354 72.4856411,222.975131 72.4779988,221.717996 L72.4779988,221.717996 C72.5082479,220.477293 73.5189475,219.485195 74.7599987,219.477996 L74.7599987,219.477996 Z" id="Path" fill="#BAD2ED"></path>
                <path d="M117.697998,219.477996 L145.207998,219.477996 C145.824158,219.462953 146.420493,219.69627 146.862846,220.125459 C147.3052,220.554647 147.556423,221.143663 147.559997,221.759996 L147.559997,221.759996 C147.545325,222.368993 147.289238,222.947196 146.848112,223.367316 C146.406986,223.787436 145.816986,224.015031 145.207998,223.999996 L117.697998,223.999996 C116.435218,224.02347 115.390585,223.022624 115.359998,221.759996 L115.359998,221.759996 C115.36764,220.502862 116.384863,219.485639 117.641998,219.477996 L117.697998,219.477996 Z" id="Path" fill="#BAD2ED"></path>
                <path d="M163.449997,219.477996 L190.959997,219.477996 C192.210911,219.500406 193.219587,220.509082 193.241997,221.759996 L193.241997,221.759996 C193.197535,222.994481 192.195095,223.978472 190.959997,223.999996 L163.449997,223.999996 C162.199083,223.977586 161.190407,222.96891 161.167997,221.717996 L161.167997,221.717996 C161.190407,220.467082 162.199083,219.458406 163.449997,219.435996 L163.449997,219.477996 Z" id="Path" fill="#BAD2ED"></path>
                <path d="M211.749996,219.477996 L239.259996,219.477996 C240.517131,219.485639 241.534354,220.502862 241.541996,221.759996 L241.541996,221.759996 C241.511747,223.0007 240.501047,223.992797 239.259996,223.999996 L211.749996,223.999996 C210.492862,223.992354 209.475639,222.975131 209.467996,221.717996 L209.467996,221.717996 C209.475639,220.460862 210.492862,219.443639 211.749996,219.435996 L211.749996,219.477996 Z" id="Path" fill="#BAD2ED"></path>
                <path d="M225.959996,219.477996 L225.049996,219.477996 L225.049996,211.931996 L225.959996,211.931996 L225.959996,219.477996 Z M177.659997,219.477996 L176.749997,219.477996 L176.749997,214.535996 L177.659997,214.535996 L177.659997,219.477996 Z M131.907998,219.477996 L130.997998,219.477996 L130.997998,209.425996 L131.907998,209.425996 L131.907998,219.477996 Z M88.9559985,219.477996 L88.0459985,219.477996 L88.0459985,211.749996 L88.9559985,211.749996 L88.9559985,219.477996 Z" id="Shape" fill="#FFFFFF" fill-rule="nonzero"></path>
                <path d="M209.047996,195.999997 L204.665997,195.999997 L204.665997,195.089997 L209.047996,195.089997 L209.047996,195.999997 Z M203.069997,195.999997 L202.285997,195.999997 L202.285997,195.089997 L203.069997,195.089997 L203.069997,195.999997 Z M200.759997,195.999997 L196.251997,195.999997 L196.251997,195.089997 L200.759997,195.089997 L200.759997,195.999997 Z M158.213997,195.999997 L153.761997,195.999997 L153.761997,195.089997 L158.143997,195.089997 L158.213997,195.999997 Z M152.221997,195.999997 L151.451997,195.999997 L151.451997,195.089997 L152.221997,195.089997 L152.221997,195.999997 Z M149.855997,195.999997 L145.389998,195.999997 L145.389998,195.089997 L149.785997,195.089997 L149.855997,195.999997 Z M117.585998,195.999997 L113.133998,195.999997 L113.133998,195.089997 L117.515998,195.089997 L117.585998,195.999997 Z M111.607998,195.999997 L110.823998,195.999997 L110.823998,195.089997 L111.607998,195.089997 L111.607998,195.999997 Z M109.227998,195.999997 L104.719998,195.999997 L104.719998,195.089997 L109.157998,195.089997 L109.227998,195.999997 Z M72.2819988,195.999997 L67.8439988,195.999997 L67.8439988,195.089997 L72.2819988,195.089997 L72.2819988,195.999997 Z M66.2479989,195.999997 L65.4639989,195.999997 L65.4639989,195.089997 L66.2479989,195.089997 L66.2479989,195.999997 Z M63.8679989,195.999997 L59.485999,195.999997 L59.485999,195.089997 L63.8679989,195.089997 L63.8679989,195.999997 Z" id="Shape" fill="#FFFFFF" fill-rule="nonzero"></path>
                <path d="M84.5599986,193.927997 L84.4759986,193.563997 L82.8799986,193.563997 L82.7399986,194.963997 C82.845766,194.876213 82.9703116,194.813941 83.1039986,194.781997 C83.2593668,194.702372 83.434114,194.668394 83.6079986,194.683997 C84.0928695,194.638909 84.5704973,194.825807 84.8959986,195.187997 C85.2162042,195.58165 85.3761814,196.081579 85.3439985,196.587997 C85.36356,197.102311 85.1828918,197.604166 84.8399986,197.987997 C84.4737571,198.363148 83.9635246,198.562139 83.4399986,198.533997 C82.940607,198.562988 82.4463982,198.419667 82.0399986,198.127997 C81.6833954,197.837396 81.481721,197.397849 81.4939986,196.937997 L81.4939986,196.937997 L82.5999986,196.937997 C82.5762811,197.150775 82.6422242,197.363822 82.7819986,197.525997 C82.9463619,197.666137 83.1540541,197.745257 83.3699986,197.749997 C83.6134312,197.772846 83.8481006,197.652783 83.9719986,197.441997 C84.107995,197.21946 84.1715857,196.960205 84.1539986,196.699997 C84.1686308,196.431169 84.1054402,196.163825 83.9719986,195.929997 C83.8291504,195.71659 83.5844329,195.594231 83.3279986,195.607997 C83.1490408,195.596713 82.9714979,195.64603 82.8239986,195.747997 C82.7189709,195.830665 82.6409811,195.942775 82.5999986,196.069997 L81.5919986,196.069997 L81.9139986,192.877997 L85.2599985,192.877997 L85.2599985,194.151997 L84.5599986,193.927997 Z M88.2699985,192.527997 C88.4650286,192.500421 88.6629684,192.500421 88.8579985,192.527997 C89.0515155,192.565108 89.2396387,192.626248 89.4179985,192.709997 L89.1799985,193.577997 C89.0470016,193.489709 88.8916009,193.441146 88.7319985,193.437997 C88.5788433,193.415185 88.4231537,193.415185 88.2699985,193.437997 C87.9487326,193.398576 87.6316841,193.538293 87.4439985,193.801997 C87.197137,194.109436 87.0814384,194.501805 87.1219985,194.893997 L87.1219985,194.893997 C87.2618285,194.759958 87.4364353,194.667804 87.6259985,194.627997 C87.8391172,194.523982 88.0751652,194.475809 88.3119985,194.487997 C88.7745746,194.461877 89.2201145,194.666301 89.5019985,195.033997 C89.8115557,195.434105 89.9746171,195.92823 89.9639985,196.433997 C89.9635956,196.952545 89.7687716,197.452093 89.4179985,197.833997 C89.0441317,198.197461 88.5392242,198.394375 88.0179985,198.379997 C87.4835975,198.37578 86.9755702,198.147168 86.6179985,197.749997 C86.2135449,197.279904 85.9988982,196.675898 86.0159985,196.055997 L86.0159985,195.047997 C85.9781556,194.355113 86.2261134,193.677025 86.7019985,193.171997 C87.127352,192.714905 87.7299765,192.464663 88.3539985,192.485997 L88.2699985,192.527997 Z M87.9899985,195.327997 C87.8048342,195.328693 87.6208094,195.357004 87.4439985,195.411997 C87.3192965,195.483247 87.2098745,195.578396 87.1219985,195.691997 L87.1219985,196.097997 C87.0909107,196.464182 87.174057,196.831004 87.3599985,197.147997 C87.4830558,197.379876 87.7276507,197.521197 87.9899985,197.511997 C88.2274227,197.507649 88.4495599,197.393998 88.5919985,197.203997 C88.7271822,196.950533 88.7901395,196.664803 88.7739985,196.377997 C88.7988492,196.121621 88.7345727,195.864516 88.5919985,195.649997 C88.4670648,195.438816 88.2350064,195.314691 87.9899985,195.327997 L87.9899985,195.327997 Z M90.2859985,193.675997 C90.2776921,193.347936 90.4101796,193.032005 90.6499985,192.807997 C90.8902262,192.570474 91.2238448,192.452424 91.5599984,192.485997 C91.8942752,192.4667 92.2222516,192.582753 92.4699984,192.807997 C92.6974876,193.037353 92.8148664,193.353766 92.7919984,193.675997 L92.7919984,193.997997 C92.8099454,194.307064 92.6923892,194.608621 92.4699984,194.823997 C92.2222516,195.049241 91.8942752,195.165294 91.5599984,195.145997 C91.2238448,195.179569 90.8902262,195.061519 90.6499985,194.823997 C90.4167189,194.612958 90.284343,194.312566 90.2859985,193.997997 L90.2859985,193.675997 Z M91.0559984,193.997997 C91.048537,194.133756 91.0994871,194.266227 91.1959984,194.361997 C91.2869967,194.465582 91.4230406,194.517906 91.5599984,194.501997 C91.695758,194.509458 91.8282284,194.458508 91.9239984,194.361997 C91.9829356,194.249307 92.0163911,194.125044 92.0219984,193.997997 L92.0219984,193.675997 C92.0140304,193.530271 91.9655445,193.389661 91.8819984,193.269997 C91.8819984,193.171997 91.6999984,193.129997 91.5599984,193.129997 C91.4230406,193.114087 91.2869967,193.166411 91.1959984,193.269997 C91.1061797,193.386374 91.0570006,193.528993 91.0559984,193.675997 L91.0559984,193.997997 Z M93.0159984,196.881997 C93.0223011,196.554582 93.1648401,196.244623 93.4093048,196.026731 C93.6537696,195.808838 93.9780173,195.702748 94.3039984,195.733997 C94.6382752,195.714699 94.9662515,195.830753 95.2139984,196.055997 C95.4303724,196.275322 95.546843,196.574094 95.5359984,196.881997 L95.5359984,197.203997 C95.5518583,197.525186 95.4354957,197.838859 95.2139984,198.071997 C94.9564889,198.278784 94.6341653,198.387879 94.3039984,198.379997 C93.969062,198.39123 93.6412074,198.281945 93.3799984,198.071997 C93.1546697,197.838178 93.0248459,197.528598 93.0159984,197.203997 L93.0159984,196.881997 Z M93.7999984,197.203997 C93.797464,197.338935 93.8476945,197.469534 93.9399984,197.567997 C94.0178698,197.691827 94.158211,197.761998 94.3039984,197.749997 C94.4406474,197.763543 94.5756458,197.711621 94.6679984,197.609997 C94.7246326,197.482203 94.7532735,197.343772 94.7519984,197.203997 L94.7519984,196.881997 C94.7583494,196.748978 94.7132265,196.618623 94.6259984,196.517997 C94.5515292,196.416973 94.4286695,196.363556 94.3039984,196.377997 C94.1670405,196.362087 94.0309966,196.414411 93.9399984,196.517997 C93.8434871,196.613767 93.7925369,196.746237 93.7999984,196.881997 L93.7999984,197.203997 Z M91.8819984,197.889997 L91.3359984,197.567997 L94.1359984,193.087997 L94.6819984,193.409997 L91.8819984,197.889997 Z" id="Shape" fill="#FFFFFF" fill-rule="nonzero"></path>
                <path d="M173.221997,193.927997 L173.137997,193.563997 L171.583997,193.563997 L171.443997,194.963997 C171.545997,194.870592 171.672073,194.807554 171.807997,194.781997 C171.963365,194.702372 172.138112,194.668394 172.311997,194.683997 C172.793111,194.636577 173.267537,194.824262 173.585997,195.187997 C173.916324,195.576756 174.082061,196.078989 174.047997,196.587997 C174.067558,197.102311 173.88689,197.604166 173.543997,197.987997 C173.176734,198.361602 172.667228,198.560309 172.143997,198.533997 C171.644606,198.562988 171.150397,198.419667 170.743997,198.127997 C170.387394,197.837396 170.185719,197.397849 170.197997,196.937997 L170.197997,196.937997 L171.331997,196.937997 C171.314643,197.150125 171.379841,197.360765 171.513997,197.525997 C171.684869,197.664311 171.896273,197.742973 172.115997,197.749997 C172.356748,197.778353 172.590226,197.656055 172.703997,197.441997 C172.845553,197.221812 172.909601,196.960692 172.885997,196.699997 C172.89517,196.426033 172.816699,196.156288 172.661997,195.929997 C172.55555,195.707466 172.318826,195.577831 172.073997,195.607997 C171.894808,195.594422 171.716513,195.643948 171.569997,195.747997 C171.465029,195.83378 171.383208,195.944479 171.331997,196.069997 L170.281997,196.069997 L170.645997,192.877997 L173.935997,192.877997 L173.935997,194.151997 L173.221997,193.927997 Z M177.925997,196.223997 L178.569997,196.223997 L178.569997,196.993997 L177.925997,196.993997 L177.925997,197.539997 L178.527997,197.679997 L178.527997,198.365997 L176.189997,198.365997 L176.189997,197.679997 L176.791997,197.539997 L176.791997,196.993997 L174.453997,196.993997 L174.453997,196.447997 L176.833997,192.653997 L177.967997,192.653997 L177.925997,196.223997 Z M175.461997,196.223997 L176.791997,196.223997 L176.791997,194.165997 L176.791997,194.165997 L176.651997,194.347997 L175.461997,196.223997 Z M178.989997,193.745997 C178.991829,193.430207 179.100372,193.124312 179.297997,192.877997 C179.552415,192.654607 179.883846,192.539109 180.221997,192.555997 C180.56984,192.529992 180.913357,192.646182 181.173997,192.877997 C181.376659,193.122442 181.490204,193.42852 181.495997,193.745997 L181.495997,194.067997 C181.487427,194.372285 181.373632,194.664192 181.173997,194.893997 C180.92625,195.119241 180.598274,195.235294 180.263997,195.215997 C179.912995,195.233718 179.568166,195.118775 179.297997,194.893997 C179.102407,194.662854 178.993494,194.370768 178.989997,194.067997 L178.989997,193.745997 Z M179.759997,194.067997 C179.752535,194.203756 179.803486,194.336227 179.899997,194.431997 C179.990995,194.535582 180.127039,194.587906 180.263997,194.571997 C180.403997,194.571997 180.543997,194.571997 180.585997,194.431997 C180.677058,194.332759 180.727089,194.202677 180.725997,194.067997 L180.725997,193.745997 C180.718029,193.600271 180.669543,193.459661 180.585997,193.339997 C180.493644,193.238373 180.358646,193.18645 180.221997,193.199997 C180.081997,193.199997 179.941997,193.199997 179.899997,193.339997 C179.810178,193.456374 179.760999,193.598993 179.759997,193.745997 L179.759997,194.067997 Z M181.719997,196.951997 C181.728567,196.647709 181.842361,196.355802 182.041997,196.125997 C182.59349,195.696229 183.366504,195.696229 183.917997,196.125997 C184.117632,196.355802 184.231426,196.647709 184.239997,196.951997 L184.239997,197.273997 C184.234204,197.591474 184.120659,197.897551 183.917997,198.141997 C183.660487,198.348784 183.338164,198.457879 183.007997,198.449997 C182.660304,198.46043 182.319482,198.351762 182.041997,198.141997 C181.845706,197.893921 181.732987,197.590071 181.719997,197.273997 L181.719997,196.951997 Z M182.503997,197.273997 C182.501462,197.408935 182.551693,197.539534 182.643997,197.637997 C182.716916,197.76716 182.860915,197.839159 183.007997,197.819997 C183.143475,197.825705 183.275261,197.775018 183.371997,197.679997 C183.428631,197.552203 183.457272,197.413772 183.455997,197.273997 L183.455997,196.951997 C183.462348,196.818978 183.417225,196.688623 183.329997,196.587997 C183.237644,196.486373 183.102646,196.43445 182.965997,196.447997 C182.825997,196.447997 182.685997,196.447997 182.643997,196.587997 C182.547486,196.683767 182.496535,196.816237 182.503997,196.951997 L182.503997,197.273997 Z M180.585997,197.959997 L180.039997,197.637997 L182.839997,193.157997 L183.385997,193.479997 L180.585997,197.959997 Z" id="Shape" fill="#FFFFFF" fill-rule="nonzero"></path>
                <path d="M124.557998,198.365997 L124.557998,197.637997 L126.433998,195.621997 C126.648647,195.390116 126.83219,195.131274 126.979998,194.851997 C127.103314,194.675875 127.167086,194.464938 127.161998,194.249997 C127.145702,194.042922 127.083533,193.842068 126.979998,193.661997 C126.821965,193.50118 126.603276,193.414722 126.377998,193.423997 C126.149322,193.421731 125.932377,193.525038 125.789998,193.703997 C125.647424,193.918516 125.583147,194.175621 125.607998,194.431997 L124.459998,194.431997 L124.459998,194.431997 C124.455401,193.929407 124.65885,193.447291 125.022115,193.099936 C125.38538,192.75258 125.876118,192.570912 126.377998,192.597997 C126.886817,192.565416 127.388508,192.730974 127.777998,193.059997 C128.108462,193.383752 128.290794,193.829453 128.281998,194.291997 C128.274276,194.63287 128.177765,194.965832 128.001998,195.257997 C127.717971,195.666766 127.394413,196.046595 127.035998,196.391997 L126.041998,197.497997 L126.041998,197.497997 L127.539998,197.497997 L127.539998,196.895997 L128.407998,196.895997 L128.407998,198.365997 L124.557998,198.365997 Z M132.005998,193.927997 L131.907998,193.563997 L130.353998,193.563997 L130.227998,194.963997 C130.329998,194.870592 130.456074,194.807554 130.591998,194.781997 C130.746271,194.699253 130.921959,194.665091 131.095998,194.683997 C131.575479,194.647765 132.045075,194.833539 132.369998,195.187997 C132.682659,195.586448 132.846097,196.081714 132.831998,196.587997 C132.851559,197.102311 132.670891,197.604166 132.327998,197.987997 C131.957792,198.357114 131.450356,198.555014 130.927998,198.533997 C130.456164,198.550442 129.992555,198.407413 129.611998,198.127997 C129.255395,197.837396 129.05372,197.397849 129.065998,196.937997 L129.065998,196.937997 L130.157998,196.937997 C130.147286,197.156676 130.228504,197.369872 130.381998,197.525997 C130.525199,197.672943 130.722855,197.754033 130.927998,197.749997 C131.173533,197.784526 131.414342,197.661322 131.529998,197.441997 C131.686367,197.227082 131.765324,196.965536 131.753998,196.699997 C131.763171,196.426033 131.684699,196.156288 131.529998,195.929997 C131.407413,195.716379 131.173728,195.591385 130.927998,195.607997 C130.748455,195.590612 130.568852,195.640502 130.423998,195.747997 C130.310445,195.83208 130.219135,195.942613 130.157998,196.069997 L129.149998,196.069997 L129.471998,192.877997 L132.803998,192.877997 L132.803998,194.151997 L132.005998,193.927997 Z M133.237998,193.745997 C133.222138,193.424807 133.3385,193.111134 133.559998,192.877997 C133.804224,192.646932 134.134797,192.52996 134.469998,192.555997 C134.808149,192.539109 135.13958,192.654607 135.393998,192.877997 C135.611842,193.112554 135.723275,193.42659 135.701998,193.745997 L135.701998,194.067997 C135.718239,194.374116 135.606699,194.673246 135.393998,194.893997 C135.13958,195.117386 134.808149,195.232885 134.469998,195.215997 C134.134797,195.242034 133.804224,195.125062 133.559998,194.893997 C133.343624,194.674671 133.227153,194.375899 133.237998,194.067997 L133.237998,193.745997 Z M133.965998,194.067997 C133.964905,194.202677 134.014937,194.332759 134.105998,194.431997 C134.19835,194.533621 134.333349,194.585543 134.469998,194.571997 C134.605757,194.579458 134.738228,194.528508 134.833998,194.431997 C134.918606,194.33098 134.954452,194.197838 134.931998,194.067997 L134.931998,193.745997 C134.946446,193.603457 134.911879,193.46025 134.833998,193.339997 C134.738228,193.243485 134.605757,193.192535 134.469998,193.199997 C134.333349,193.18645 134.19835,193.238373 134.105998,193.339997 C134.022452,193.459661 133.973966,193.600271 133.965998,193.745997 L133.965998,194.067997 Z M135.981998,196.951997 C135.964051,196.64293 136.081607,196.341373 136.303998,196.125997 C136.548224,195.894932 136.878797,195.77796 137.213998,195.803997 C137.548274,195.784699 137.876251,195.900753 138.123998,196.125997 C138.346388,196.341373 138.463945,196.64293 138.445998,196.951997 L138.445998,197.273997 C138.468866,197.596228 138.351487,197.91264 138.123998,198.141997 C137.586866,198.552773 136.84113,198.552773 136.303998,198.141997 C136.085269,197.907143 135.969356,197.594682 135.981998,197.273997 L135.981998,196.951997 Z M136.709998,197.273997 C136.707463,197.408935 136.757694,197.539534 136.849998,197.637997 C136.929971,197.759484 137.068823,197.82891 137.213998,197.819997 C137.350956,197.835906 137.486999,197.783582 137.577998,197.679997 C137.675998,197.581997 137.675998,197.455997 137.675998,197.273997 L137.675998,196.951997 C137.67039,196.824949 137.636935,196.700686 137.577998,196.587997 C137.482228,196.491485 137.349757,196.440535 137.213998,196.447997 C137.077349,196.43445 136.94235,196.486373 136.849998,196.587997 C136.753486,196.683767 136.702536,196.816237 136.709998,196.951997 L136.709998,197.273997 Z M134.791998,197.959997 L134.245998,197.637997 L137.045998,193.157997 L137.591998,193.479997 L134.791998,197.959997 Z" id="Shape" fill="#FFFFFF" fill-rule="nonzero"></path>
                <path d="M220.205996,195.033997 L220.849996,195.033997 C221.072072,195.048716 221.288681,194.961041 221.437996,194.795997 C221.594556,194.641857 221.676317,194.427234 221.661996,194.207997 C221.666033,194.002854 221.584943,193.805198 221.437996,193.661997 C221.301726,193.50367 221.10074,193.416061 220.891996,193.423997 C220.695732,193.427778 220.505277,193.491263 220.345996,193.605997 C220.204181,193.736685 220.118819,193.917452 220.107996,194.109997 L218.959996,194.109997 C218.915081,193.681122 219.108493,193.262062 219.463996,193.017997 C219.834127,192.703394 220.308539,192.538599 220.793996,192.555997 C221.295331,192.528714 221.790469,192.677255 222.193996,192.975997 C222.574668,193.266299 222.78061,193.730988 222.739996,194.207997 C222.726559,194.452309 222.649327,194.688833 222.515996,194.893997 C222.341968,195.11912 222.122557,195.305143 221.871996,195.439997 C222.147433,195.532721 222.387185,195.708866 222.557996,195.943997 C222.740591,196.179719 222.834721,196.472019 222.823996,196.769997 C222.855058,197.254874 222.6325,197.721185 222.235996,198.001997 C221.837358,198.312883 221.341062,198.471697 220.835996,198.449997 C220.33811,198.466339 219.847892,198.324175 219.435996,198.043997 C219.063034,197.765152 218.853133,197.319112 218.875996,196.853997 L218.875996,196.853997 L220.023996,196.853997 C220.000947,197.062248 220.085332,197.267936 220.247996,197.399997 C220.411867,197.550158 220.627826,197.630515 220.849996,197.623997 C221.083976,197.625252 221.311301,197.546182 221.493996,197.399997 C221.635154,197.236239 221.71442,197.028167 221.717996,196.811997 C221.731903,196.563343 221.651964,196.318528 221.493996,196.125997 C221.297337,195.979174 221.051574,195.913972 220.807996,195.943997 L220.163996,195.943997 L220.205996,195.033997 Z M223.355996,197.679997 L224.321996,197.539997 L224.321996,193.703997 L223.313996,193.703997 L223.313996,193.017997 L225.455996,192.653997 L225.455996,197.539997 L226.421996,197.679997 L226.421996,198.365997 L223.355996,198.365997 L223.355996,197.679997 Z M226.827996,193.745997 C226.833789,193.42852 226.947334,193.122442 227.149996,192.877997 C227.397743,192.652753 227.725719,192.5367 228.059996,192.555997 C228.412356,192.527746 228.761058,192.64398 229.025996,192.877997 C229.228658,193.122442 229.342203,193.42852 229.347996,193.745997 L229.347996,194.067997 C229.339426,194.372285 229.225632,194.664192 229.025996,194.893997 C228.778249,195.119241 228.450273,195.235294 228.115996,195.215997 C227.786168,195.266263 227.451102,195.166868 227.202038,194.944876 C226.952974,194.722885 226.815847,194.401412 226.827996,194.067997 L226.827996,193.745997 Z M227.611996,194.067997 C227.605645,194.201016 227.650768,194.331371 227.737996,194.431997 C227.737996,194.529997 227.919996,194.571997 228.115996,194.571997 C228.234982,194.576444 228.34911,194.524569 228.423996,194.431997 C228.520507,194.336227 228.571458,194.203756 228.563996,194.067997 L228.563996,193.745997 C228.562994,193.598993 228.513815,193.456374 228.423996,193.339997 C228.332998,193.236411 228.196954,193.184087 228.059996,193.199997 C227.935325,193.185556 227.812465,193.238973 227.737996,193.339997 C227.658731,193.460825 227.615066,193.601521 227.611996,193.745997 L227.611996,194.067997 Z M229.571996,196.951997 C229.580566,196.647709 229.694361,196.355802 229.893996,196.125997 C230.141743,195.900753 230.469719,195.784699 230.803996,195.803997 C231.133824,195.75373 231.46889,195.853125 231.717954,196.075117 C231.967018,196.297109 232.104145,196.618582 232.091996,196.951997 L232.091996,197.273997 C232.086203,197.591474 231.972658,197.897551 231.769996,198.141997 C231.418176,198.534535 230.859189,198.666581 230.368906,198.472966 C229.878623,198.279352 229.560683,197.801003 229.571996,197.273997 L229.571996,196.951997 Z M230.341996,197.273997 C230.345895,197.407724 230.395279,197.536123 230.481996,197.637997 C230.554916,197.76716 230.698914,197.839159 230.845996,197.819997 C230.985482,197.824719 231.121238,197.774439 231.223996,197.679997 C231.28063,197.552203 231.309271,197.413772 231.307996,197.273997 L231.307996,196.951997 C231.315458,196.816237 231.264507,196.683767 231.167996,196.587997 C231.076998,196.484411 230.940954,196.432087 230.803996,196.447997 C230.679325,196.433556 230.556465,196.486973 230.481996,196.587997 C230.390935,196.687234 230.340904,196.817316 230.341996,196.951997 L230.341996,197.273997 Z M228.423996,197.959997 L227.835996,197.637997 L230.635996,193.157997 L231.195996,193.479997 L228.423996,197.959997 Z" id="Shape" fill="#FFFFFF" fill-rule="nonzero"></path>
                <path d="M88.5919985,229.809996 C89.0810942,229.764817 89.5717875,229.877676 89.9919985,230.131996 C90.3156665,230.37977 90.4899941,230.77597 90.4539985,231.181996 C90.4580559,231.392456 90.3942404,231.598629 90.2719985,231.769996 C90.1584369,231.961663 89.9794498,232.105847 89.7679985,232.175996 C90.030466,232.214151 90.2618292,232.368393 90.3979985,232.595996 C90.5713924,232.797128 90.6570958,233.05928 90.6359985,233.323996 C90.6719941,233.730022 90.4976665,234.126222 90.1739985,234.373996 C89.780774,234.633942 89.3147915,234.761474 88.8439985,234.737996 L86.3939985,234.737996 L86.3939985,234.149996 L86.8979985,234.051996 L86.8979985,230.495996 L86.3939985,230.397996 L86.3939985,229.809996 L88.5919985,229.809996 L88.5919985,229.809996 Z M87.9059985,232.609996 L87.9059985,234.009996 L88.7599985,234.009996 C88.9698243,234.020717 89.1784351,233.972203 89.3619985,233.869996 C89.4998771,233.737877 89.5803235,233.556872 89.5859985,233.365996 C89.5954728,233.154806 89.5311228,232.946906 89.4039985,232.777996 C89.2455668,232.661613 89.0545735,232.597949 88.8579985,232.595996 L87.9059985,232.609996 Z M87.9059985,231.923996 L88.6339985,231.923996 C88.8433012,231.92924 89.0504876,231.881057 89.2359985,231.783996 C89.3806468,231.656428 89.4635123,231.47286 89.4635123,231.279996 C89.4635123,231.087132 89.3806468,230.903564 89.2359985,230.775996 C89.0393415,230.668156 88.8156777,230.619534 88.5919985,230.635996 L87.9059985,230.635996 L87.9059985,231.923996 Z" id="Shape" fill="#FFFFFF" fill-rule="nonzero"></path>
                <path d="M133.559998,231.447996 L132.775998,231.447996 L132.691998,230.817996 C132.589145,230.713466 132.465001,230.632296 132.327998,230.579996 C132.164828,230.528252 131.99513,230.499969 131.823998,230.495996 C131.40195,230.445586 130.988353,230.6415 130.759998,230.999996 C130.515475,231.363749 130.388426,231.79376 130.395998,232.231996 L130.395998,232.399996 C130.38645,232.842861 130.513545,233.277918 130.759998,233.645996 C130.98143,233.946373 131.339406,234.114832 131.711998,234.093996 C131.901184,234.08666 132.088985,234.05849 132.271998,234.009996 C132.406209,233.95236 132.529376,233.871828 132.635998,233.771996 L132.719998,233.141996 L133.559998,233.141996 L133.559998,234.093996 C133.341858,234.331278 133.074203,234.51768 132.775998,234.639996 C132.445754,234.789698 132.088514,234.870672 131.725998,234.877996 C131.108803,234.884771 130.516165,234.636572 130.087998,234.191996 C129.626684,233.708712 129.366426,233.068077 129.359998,232.399996 L129.359998,232.217996 C129.345643,231.565792 129.575305,230.931726 130.003998,230.439996 C130.419367,229.97708 131.020712,229.725235 131.641998,229.753996 C132.00278,229.763582 132.358714,229.839514 132.691998,229.977996 C132.988007,230.110606 133.254553,230.300996 133.475998,230.537996 L133.559998,231.447996 Z" id="Path" fill="#FFFFFF" fill-rule="nonzero"></path>
                <path d="M177.295997,229.809996 C177.855013,229.791252 178.396994,230.003992 178.793997,230.397996 C179.190215,230.783054 179.408319,231.315632 179.395997,231.867996 L179.395997,232.679996 C179.408319,233.232361 179.190215,233.764938 178.793997,234.149996 C178.396994,234.544 177.855013,234.75674 177.295997,234.737996 L175.055997,234.737996 L175.055997,234.149996 L175.601997,234.051996 L175.601997,230.495996 L175.055997,230.397996 L175.055997,229.809996 L177.295997,229.809996 L177.295997,229.809996 Z M176.609997,230.579996 L176.609997,233.967996 L177.253997,233.967996 C177.560506,233.996158 177.862088,233.876565 178.065997,233.645996 C178.290776,233.375827 178.405718,233.030998 178.387997,232.679996 L178.387997,231.867996 C178.405718,231.516994 178.290776,231.172165 178.065997,230.901996 C177.862088,230.671427 177.560506,230.551834 177.253997,230.579996 L176.609997,230.579996 Z" id="Shape" fill="#FFFFFF" fill-rule="nonzero"></path>
                <polygon id="Path" fill="#FFFFFF" fill-rule="nonzero" points="226.729996 232.595996 225.049996 232.595996 225.049996 233.967996 226.645996 233.967996 226.687996 233.365996 227.457996 233.365996 227.457996 234.737996 223.537996 234.737996 223.537996 234.149996 224.041996 234.051996 224.041996 230.495996 223.537996 230.397996 223.537996 229.809996 224.041996 229.809996 227.457996 229.809996 227.457996 231.181996 226.687996 231.181996 226.645996 230.579996 225.049996 230.579996 225.049996 231.811996 226.729996 231.811996"></polygon>
                <path d="M387.085993,119.811998 C387.085993,164.738444 350.686424,201.16936 305.759995,201.207997" id="Path" stroke="#FFFFFF" stroke-width="15.3999997" opacity="0.7" stroke-linecap="round"></path>
                <g id="Shape" style="mix-blend-mode: multiply;" fill-rule="nonzero" fill="black" fill-opacity="1">
                    <use filter="url(#filter-2)" xlink:href="#path-1"></use>
                    <use filter="url(#filter-3)" xlink:href="#path-1"></use>
                </g>
                <path d="M306.207995,229.067996 C262.230697,229.056665 222.59104,202.553671 205.77474,161.918527 C188.95844,121.283384 198.277583,74.5194583 229.386241,43.4348286 C260.494899,12.3501989 307.266011,3.06719364 347.888149,19.914887 C388.510286,36.7625804 414.982643,76.422705 414.960007,120.399998 C414.859684,180.406867 366.214923,229.014054 306.207995,229.067996 Z M306.207995,26.0679996 C254.157646,26.0679996 211.9589,68.2563347 211.946022,120.306682 C211.93315,172.357029 254.11102,214.566221 306.161363,214.591997 C358.211705,214.617749 400.43134,172.450332 400.469993,120.399998 C400.44685,68.3410565 358.266913,26.1360616 306.207995,26.0819996 L306.207995,26.0679996 Z" id="Shape" fill="#1B4A6E" fill-rule="nonzero"></path>
                <path d="M204.287997,109.101998 L107.771998,110.151998 C100.778416,110.151998 95.1089984,115.821416 95.1089984,122.814998 C95.1089984,129.80858 100.778416,135.477998 107.771998,135.477998 L204.287997,136.527998 L204.287997,109.101998 Z" id="Path" fill="#32526E" fill-rule="nonzero"></path>
                <path d="M112.741998,116.507998 C111.187998,117.459998 105.741998,120.119998 101.541998,115.751998 C100.712255,114.939252 100.25612,113.819188 100.281998,112.657998 C102.430188,111.052866 105.034461,110.174966 107.715998,110.151998 L182.307997,109.339998 L178.569997,109.339998 L175.139997,112.825998 C171.352516,116.677419 165.653119,117.939076 160.593997,116.045998 C159.1598,115.496828 158.198124,114.137218 158.157997,112.601998 L157.709997,113.063998 C153.762306,117.079399 147.818993,118.390989 142.547998,116.409998 C140.90043,115.751821 139.865472,114.106068 139.985998,112.335998 L139.985998,112.335998 L138.739998,112.335998 C135.231702,116.527633 130.092192,119.01071 124.627998,119.153998 C118.943998,119.433998 117.795998,114.841998 117.781998,112.587998 C116.169641,113.979386 114.487462,115.287747 112.741998,116.507998 Z" id="Path" fill="#000000" fill-rule="nonzero" opacity="0.12"></path>
                <polygon id="Path" fill="#E74B3C" fill-rule="nonzero" points="196.867997 136.443998 190.749997 136.373998 190.749997 109.255998 196.867997 109.185998"></polygon>
                <polygon id="Path" fill="#E74B3C" fill-rule="nonzero" points="186.535997 136.331998 180.417997 136.261998 180.417997 109.353998 186.535997 109.297998"></polygon>
                <path d="M183.483997,136.303998 L188.551997,136.303998 L191.351997,136.303998 L191.631997,136.303998 C191.631997,136.303998 181.411997,147.923997 177.393997,153.705997 C173.375997,159.487997 166.193997,160.327997 160.075997,161.545997 C153.957997,162.763997 140.559998,163.995997 123.955998,171.079997 L73.1499988,192.751997 L73.1499988,138.599998 C76.1780952,137.574478 78.9955252,136.009239 81.4659986,133.979998 C81.4659986,133.979998 95.2419984,122.359998 95.2419984,122.779998 C95.2419984,122.947998 95.2419984,123.101998 95.2419984,123.255998 C95.3184389,125.513294 96.0002244,127.708547 97.2159983,129.611998 C99.1266024,127.294283 101.389535,125.291187 103.921998,123.675998 C105.026168,122.964471 106.193014,122.355274 107.407998,121.855998 L107.407998,121.855998 C107.743998,121.715998 120.693998,116.493998 131.641998,116.941998 C142.589998,117.389998 151.479997,118.481998 151.479997,118.481998 C152.720819,118.773608 153.98647,118.947049 155.259997,118.999998 C162.847997,118.047998 198.925997,112.489998 199.821997,112.433998 C203.139997,112.223998 209.439996,112.755998 210.517996,120.525998 C211.193584,124.619487 208.901564,128.624676 205.029997,130.115998 C204.819997,130.213998 202.761997,130.927998 200.255997,131.781998 C197.329997,132.817998 185.919997,135.967998 183.483997,136.303998 Z" id="Path" fill="#ECB98C" fill-rule="nonzero"></path>
                <path d="M73.1499988,146.397998 L73.1499988,138.599998 C76.1780952,137.574478 78.9955252,136.009239 81.4659986,133.979998 C81.4659986,133.979998 95.2419984,122.359998 95.2419984,122.779998 C95.2419984,122.947998 95.2419984,123.101998 95.2419984,123.255998 C95.3184389,125.513294 96.0002244,127.708547 97.2159983,129.611998 C97.2159983,129.611998 90.3279985,139.047998 73.1499988,146.397998 Z" id="Path" fill="#D4A477" fill-rule="nonzero" opacity="0.46"></path>
                <path d="M73.1499988,192.751997 L73.1499988,186.311997 C96.1239984,177.505997 122.947998,167.355997 137.451998,162.931997 C148.777997,159.487997 173.851997,157.471997 171.709997,158.535997 C168.069997,160.299997 163.827997,160.915997 160.033997,161.671997 C153.985997,162.903997 140.601998,163.981997 123.955998,171.079997 L73.1499988,192.751997 Z" id="Path" fill="#D4A477" fill-rule="nonzero" opacity="0.46"></path>
                <path d="M137.759998,133.797998 C137.759998,133.797998 139.285998,122.863998 147.671997,118.089998 L151.563997,118.509998 C151.563997,118.509998 141.959998,119.923998 137.759998,133.797998 Z" id="Path" fill="#D4A477" fill-rule="nonzero" opacity="0.45"></path>
                <path d="M127.735998,101.765998 C127.735998,101.765998 121.379998,98.0699983 117.543998,98.3499983 C114.45181,98.7386998 111.511239,99.9149283 109.003998,101.765998 C107.295998,102.843998 100.001998,108.765998 104.173998,113.189998 C108.345998,117.613998 113.763998,114.883998 115.373998,113.945998 C116.983998,113.007998 120.469998,110.025998 120.469998,110.025998 L127.735998,101.765998 Z" id="Path" fill="#ECB98C" fill-rule="nonzero"></path>
                <path d="M120.413998,110.025998 C120.401175,109.686305 120.438921,109.346592 120.525998,109.017998 C121.029998,107.477998 129.037998,98.2939983 129.919998,97.5799983 C130.801998,96.8659984 132.243998,96.1799984 135.519998,95.6479984 C142.099998,94.4579984 149.827997,98.9659983 149.827997,98.9659983 L148.287997,109.703998 L141.385998,109.787998 C137.875315,113.982425 132.728189,116.461616 127.259998,116.591998 C121.575998,116.871998 120.413998,112.279998 120.413998,110.025998 Z" id="Path" fill="#ECB98C" fill-rule="nonzero"></path>
                <path d="M130.955998,109.927998 C130.955998,109.927998 134.007998,104.327998 130.577998,102.465998 C127.147998,100.603998 121.309998,109.017998 121.309998,109.017998 C121.309998,109.017998 123.129998,111.453998 130.955998,109.927998 Z" id="Path" fill="#F6E2CA" fill-rule="nonzero" opacity="0.79"></path>
                <path d="M104.551998,107.939998 C104.453998,107.659998 105.027998,107.575998 105.265998,107.407998 C108.401998,105.069998 111.257998,103.809998 112.797998,105.167998 C114.337998,106.525998 112.797998,110.767998 112.797998,110.767998 C112.797998,110.767998 106.161998,112.713998 104.551998,107.939998 Z" id="Path" fill="#F6E2CA" fill-rule="nonzero" opacity="0.79"></path>
                <path d="M140.559998,110.599998 C140.538538,110.320409 140.538538,110.039587 140.559998,109.759998 C140.736516,107.744258 141.347887,105.790736 142.351998,104.033998 C143.546687,101.663853 145.027759,99.4492979 146.761998,97.4399983 L148.259997,98.0979983 C146.790341,99.9436194 145.509906,101.93228 144.437998,104.033998 C143.42987,105.778862 142.818069,107.724198 142.645998,109.731998 L141.399998,109.731998 L140.559998,110.599998 Z" id="Path" fill="#000000" fill-rule="nonzero" opacity="0.12"></path>
                <path d="M118.929998,111.243998 C118.865862,110.841146 118.833097,110.433922 118.831998,110.025998 C118.819175,109.686305 118.856921,109.346592 118.943998,109.017998 C119.265998,107.995998 122.863998,103.655998 125.537998,100.617998 L126.643998,101.163998 C124.039998,104.159998 120.833998,108.051998 120.525998,109.017998 C120.438921,109.346592 120.401175,109.686305 120.413998,110.025998 C120.413998,110.025998 119.783998,110.599998 118.929998,111.243998 Z" id="Path" fill="#000000" fill-rule="nonzero" opacity="0.12"></path>
                <path d="M145.179998,113.875998 C143.529439,113.221415 142.492937,111.573207 142.617998,109.801998 C142.794516,107.786258 143.405887,105.832736 144.409998,104.075998 C145.305998,102.675998 150.485997,90.9439985 159.585997,94.2759984 C168.685997,97.6079983 172.927997,106.959998 173.893997,109.423998 L161.293997,109.549998 L160.383997,110.515998 C156.43342,114.556785 150.465482,115.875667 145.179998,113.875998 L145.179998,113.875998 Z" id="Path" fill="#ECB98C" fill-rule="nonzero"></path>
                <path d="M153.159997,105.741998 C153.159997,105.741998 154.027997,101.219998 151.829997,100.673998 C149.631997,100.127998 146.159998,102.759998 144.647998,104.999998 C143.135998,107.239998 143.247998,107.505998 143.247998,107.505998 C146.644974,108.519812 150.321364,107.86554 153.159997,105.741998 Z" id="Path" fill="#F6E2CA" fill-rule="nonzero" opacity="0.79"></path>
                <path d="M153.159997,101.961998 C151.7078,101.87079 150.265587,101.660077 148.847997,101.331998 C149.756374,100.748084 150.846018,100.514233 151.913997,100.673998 C152.528071,100.852457 153.001987,101.342348 153.159997,101.961998 L153.159997,101.961998 Z" id="Path" fill="#FFFFFF" fill-rule="nonzero" opacity="0.5"></path>
                <path d="M163.211997,113.511998 C161.628992,112.88591 160.63656,111.30369 160.761997,109.605998 C160.941788,107.675543 161.528683,105.805113 162.483997,104.117998 C163.337997,102.717998 168.307997,91.5179984 177.029997,94.7239984 C185.751997,97.9299983 189.825997,106.889998 190.763997,109.199998 L178.625997,109.325998 L177.757997,110.249998 C173.983569,114.12272 168.278751,115.402048 163.211997,113.511998 Z" id="Path" fill="#ECB98C" fill-rule="nonzero"></path>
                <path d="M159.249997,111.467998 C158.999379,110.880149 158.879938,110.244727 158.899997,109.605998 C159.072981,107.67418 159.660318,105.802343 160.621997,104.117998 C161.820286,101.687609 163.356891,99.439263 165.185997,97.4399983 L166.235997,98.3219983 C164.778831,100.10934 163.525114,102.053306 162.497997,104.117998 C161.531015,105.801033 160.938854,107.673026 160.761997,109.605998 C160.761997,109.759998 160.761997,109.913998 160.761997,110.067998 L160.327997,110.529998 C159.977997,110.865998 159.613997,111.173998 159.249997,111.467998 Z" id="Path" fill="#000000" fill-rule="nonzero" opacity="0.12"></path>
                <path d="M170.897997,105.713998 C170.897997,105.713998 171.737997,101.373998 169.623997,100.855998 C167.509997,100.337998 164.219997,102.843998 162.721997,104.999998 C161.223997,107.155998 161.447997,107.407998 161.447997,107.407998 C164.689453,108.354612 168.187189,107.72761 170.897997,105.713998 L170.897997,105.713998 Z" id="Path" fill="#F6E2CA" fill-rule="nonzero" opacity="0.79"></path>
                <path d="M178.625997,109.381998 C180.134557,107.564166 181.34434,105.51793 182.209997,103.319998 C181.74331,105.432959 180.979728,107.469178 179.941997,109.367998 L178.625997,109.381998 Z" id="Path" fill="#D4A477" fill-rule="nonzero"></path>
                <path d="M170.813997,102.087998 C169.398776,102.004916 167.993472,101.798804 166.613997,101.471998 C167.488489,100.920923 168.531842,100.702316 169.553997,100.855998 C170.166706,101.007122 170.649145,101.47884 170.813997,102.087998 L170.813997,102.087998 Z" id="Path" fill="#FFFFFF" fill-rule="nonzero" opacity="0.5"></path>
                <path d="M131.921998,103.921998 C130.303677,103.932703 128.701129,103.603608 127.217998,102.955998 C128.170599,102.205449 129.45072,102.018765 130.577998,102.465998 C131.176131,102.787486 131.649311,103.300098 131.921998,103.921998 Z" id="Path" fill="#FFFFFF" fill-rule="nonzero" opacity="0.5"></path>
                <path d="M113.483998,106.581998 C112.010815,106.281487 110.593692,105.752428 109.283998,105.013998 C110.384891,104.395024 111.741724,104.454725 112.783998,105.167998 C113.177037,105.541844 113.425022,106.042774 113.483998,106.581998 Z" id="Path" fill="#FFFFFF" fill-rule="nonzero" opacity="0.5"></path>
                <path d="M95.1719984,131.963998 C93.7908785,129.890931 93.0552274,127.455 93.0579906,124.963998 C93.0579906,124.781998 93.0579906,124.599998 93.0579906,124.417998 C93.7248368,123.813174 94.4519784,123.278373 95.2279984,122.821998 C95.2279984,122.989998 95.2279984,123.143998 95.2279984,123.297998 C95.3069268,125.550503 95.9886133,127.740602 97.2019983,129.639998 C96.578609,130.459634 95.9003884,131.236079 95.1719984,131.963998 L95.1719984,131.963998 Z" id="Path" fill="#000000" fill-rule="nonzero" opacity="0.12"></path>
                <path d="M170.295997,139.915998 C170.409053,139.874655 170.526493,139.84647 170.645997,139.831998 L173.767997,145.431998 L171.359997,139.677998 L178.933997,138.179998 C182.702533,137.455118 186.534646,137.112714 190.371997,137.157998 L190.959997,137.157998 L191.589997,136.429998 L191.309997,136.429998 L188.509997,136.429998 L183.441997,136.429998 C178.896233,136.916494 174.390853,137.725872 169.959997,138.851998 C165.535997,140.461998 155.231997,149.519997 154.853997,149.841997 C155.259997,149.547997 169.007997,140.265998 170.295997,139.915998 Z" id="Path" fill="#D4A477" fill-rule="nonzero"></path>
                <path d="M192.709997,121.897998 C192.821997,119.741998 194.417997,116.143998 202.901997,114.057998 C205.790046,114.887877 207.998027,117.223077 208.664987,120.153042 C209.331947,123.083006 208.352285,126.143824 206.107996,128.141998 C196.069997,130.199998 193.759997,126.363998 193.143997,124.599998 C192.837971,123.732771 192.690949,122.817439 192.709997,121.897998 L192.709997,121.897998 Z" id="Path" fill="#F6E2CA" fill-rule="nonzero"></path>
                <path d="M193.885997,118.831998 C193.189467,119.709566 192.778992,120.779731 192.709997,121.897998 C192.694639,122.50525 192.755786,123.11202 192.891997,123.703998 L192.891997,123.703998 C192.975997,124.053998 193.059997,124.333998 193.129997,124.543998 C193.588041,125.939108 194.600946,127.08369 195.929997,127.707998 C195.904819,126.189647 195.717081,124.67836 195.369997,123.199998 C195.037241,121.693918 194.539572,120.229082 193.885997,118.831998 L193.885997,118.831998 Z" id="Path" fill="#FFFFFF" fill-rule="nonzero" opacity="0.7"></path>
                <path d="M206.107996,128.141998 C208.352285,126.143824 209.331947,123.083006 208.664987,120.153042 C207.998027,117.223077 205.790046,114.887877 202.901997,114.057998 L202.299997,114.211998 C205.262925,114.918408 207.57017,117.241929 208.255736,120.209749 C208.941303,123.177569 207.886905,126.277629 205.533996,128.211998 L206.107996,128.141998 Z" id="Path" fill="#FFFFFF" fill-rule="nonzero" opacity="0.7"></path>
                <polygon id="Path" fill="#E6E7E8" fill-rule="nonzero" points="75.9499987 192.821997 75.9499987 160.649997 91.2379984 157.415997 97.1739983 188.341997"></polygon>
                <polygon id="Path" fill="#FFFFFF" fill-rule="nonzero" points="75.9499987 160.649997 75.9499987 128.463998 85.2879985 126.489998 91.2379984 157.415997"></polygon>
                <polygon id="Path" fill="#263E53" fill-rule="nonzero" points="14.5599998 211.679996 14.5599998 175.153997 82.6979986 159.221997 89.4459985 194.305997"></polygon>
                <polygon id="Path" fill="#32526E" fill-rule="nonzero" points="14.5599998 175.153997 14.5599998 138.487998 75.9499987 124.123998 82.6979986 159.221997"></polygon>
            </g>
        </g>
    </g>
</svg>