<?xml version="1.0" encoding="utf-8"?>
<!-- Generator: Adobe Illustrator 19.2.1, SVG Export Plug-In . SVG Version: 6.00 Build 0)  -->
<svg version="1.1" id="Layer_1" xmlns="http://www.w3.org/2000/svg" xmlns:xlink="http://www.w3.org/1999/xlink" x="0px" y="0px"
	 viewBox="0 0 1368 408" style="enable-background:new 0 0 1368 408;" xml:space="preserve">
<style type="text/css">
	.st0{opacity:0.3;fill:none;}
	.st1{opacity:0.3;fill:#FFFFFF;}
</style>
<title>network-pattern</title>
<path class="st0" d="M371.9,302.2l-245.2-24.3l16.2,19.9l128.5,78.1c1.4-2.3,4.2-3.3,6.8-2.4l93.7-70.3c0-0.2,0-0.4,0-0.7
	C371.9,302.4,371.9,302.4,371.9,302.2z"/>
<polygon class="st0" points="376.7,300.3 377.1,302.2 376.7,300.3 "/>
<polygon class="st0" points="275,378.7 275,378.7 275,378.8 "/>
<polygon class="st0" points="378,303.6 378,303.5 378,303.6 "/>
<path class="st0" d="M1061.1,240.4c1.1,3-0.5,6.2-3.4,7.3c-2.1,0.8-4.5,0.2-6.1-1.4l-47.8,109.1c0.2,0.1,0.4,0.2,0.6,0.3
	c1,0.5,1.9,1.3,2.5,2.3l216.3-72.2c-0.1-0.5-0.2-1-0.2-1.5c0-0.1,0-0.3,0-0.4L1061.1,240.4z"/>
<path class="st0" d="M465.3,219.6c0.1-0.2,0.2-0.3,0.3-0.5l-179.9-56.7l-4.2,48.5c3.3,0,5.9,2.7,5.9,6c0,3.3-2.7,5.9-6,5.9
	c-3.3,0-5.9-2.7-5.9-6c0-1.8,0.8-3.4,2.2-4.6L165.4,77c-2,0.8-4.3,0.4-6-1.1L86.2,220.1l0.4,0.2c3,1.4,4.2,5,2.7,8
	c-0.4,0.8-0.9,1.5-1.6,2l38.5,47.1l245.8,24.4c0.5-3.1,3.4-5.3,6.5-4.8c1.7,0.2,3.2,1.2,4,2.7l83.1-74.4
	C464.5,223.5,464.4,221.4,465.3,219.6z"/>
<path class="st0" d="M143.9,299.1l67.5,82.7l59.5-4.8c0.1-0.2,0.1-0.4,0.2-0.5L143.9,299.1z"/>
<path class="st0" d="M99.5,274.3c1.4-2.8,4.8-4,7.6-2.6c1.6,0.8,2.8,2.3,3.1,4.1l15.1,1.5l-38.1-46.7c-1.4,0.9-3.1,1.2-4.8,0.8
	l-46.2,67.4l62.9-23.4C99.2,275,99.4,274.6,99.5,274.3z"/>
<path class="st0" d="M273,155.4c0.9,0.8,1.5,1.8,1.8,3l10.4,3.3l1.5-17.7L273,155.4z"/>
<polygon class="st0" points="939.8,153.2 939.9,153.4 939.8,153.2 "/>
<path class="st0" d="M110.1,278.5c-0.8,2.4-3,3.9-5.4,3.9c-0.9,0-1.7-0.2-2.5-0.6c-0.2-0.1-0.5-0.2-0.7-0.4L84.9,391.9l125.9-10.1
	l-68.2-83.6L110.1,278.5z"/>
<path class="st0" d="M84.3,391.6L101,281.1c-1.5-1.3-2.3-3.2-2-5.1l-63.3,23.5L3.9,345.9l80.2,45.7l-0.1-0.4L84.3,391.6z"/>
<path class="st0" d="M141.5,297l-15.6-19.1l-15.5-1.5c0,0.1,0,0.3,0,0.4c0,0.4,0,0.8-0.1,1.2L141.5,297z"/>
<polygon class="st0" points="1320.4,296.7 1326.1,299.6 1320.4,296.7 "/>
<polygon class="st0" points="1319.5,297.5 1319,302.3 1319.5,297.5 "/>
<polygon class="st0" points="1227.5,284.9 1233.6,285.7 1227.5,284.9 "/>
<path class="st0" d="M1225.8,279.3L1120.3,75.8c-0.8,0.3-1.6,0.5-2.4,0.5c-0.6,0-1.1-0.1-1.7-0.2l-58.3,161.1l0.3,0.1
	c1.1,0.5,2,1.4,2.6,2.6l162.2,43.4C1223.3,281.6,1224.3,280.1,1225.8,279.3z"/>
<polygon class="st0" points="1319.8,296 1319.9,295.9 1319.8,296 "/>
<path class="st0" d="M1221.4,39.2l6,239.5c3.1-0.7,6.1,1.2,6.8,4.3c0.2,0.8,0.2,1.6,0,2.3l81.7,10.7c0.4-1.2,1.2-2.3,2.2-3l-1.2-3.3
	L1222.2,39C1222,39.1,1221.7,39.1,1221.4,39.2z"/>
<path class="st0" d="M935.5,270.1c0.2-2.6,2.2-4.8,4.8-5.2l-0.4-105.7c-1.7-0.1-3.2-1-4.2-2.4l-155,114.3c0.6,0.9,0.8,1.9,0.8,3
	L935.5,270.1z"/>
<path class="st0" d="M623.8,286.5c2.3,1.1,3.6,3.6,3.1,6.1l143.5-17c-0.3-1.3-0.2-2.7,0.4-3.9c0.1-0.2,0.2-0.4,0.3-0.6L627.6,117
	c-0.8,0.5-1.7,0.8-2.7,0.9L620.1,286C621.3,285.7,622.6,285.9,623.8,286.5z"/>
<path class="st0" d="M869.2,384.9c0.6,0,1.1,0.1,1.7,0.3l66.5-110.3c-1.2-1.1-2-2.6-2-4.2l-153.9,4c-0.1,0.7-0.2,1.3-0.5,2l-0.2-0.1
	l0.2,0.1c-1.4,2.8-4.8,4-7.6,2.6c-0.3-0.1-0.6-0.3-0.8-0.5L702,365.1c0.7,1,1,2.1,1,3.3c0,0.1,0,0.2,0,0.2l160.6,21
	C864.1,386.9,866.5,384.9,869.2,384.9z"/>
<path class="st0" d="M1002,355.1c0.4,0,0.9,0.1,1.3,0.2l47.9-109.4c-0.4-0.6-0.7-1.2-0.9-1.9l-103.6,25c0.8,3-1,6.2-4,7
	c-1.6,0.4-3.4,0.1-4.8-0.9l-66.4,110.2l0.2,0.1c1,0.5,1.8,1.2,2.4,2.1l122.2-26.7c0,0,0-0.1,0-0.1
	C996.3,357.6,998.8,355.1,1002,355.1C1002,355.1,1002,355.1,1002,355.1z"/>
<polygon class="st0" points="868.1,390 868.5,390.2 868.5,390.2 "/>
<path class="st0" d="M697.3,362.6c1.7,0,3.3,0.7,4.3,2l70.5-86.2c-0.7-0.6-1.3-1.4-1.6-2.3l-143.8,17c-0.1,0.3-0.2,0.6-0.4,0.9
	c-0.5,1-1.3,1.9-2.3,2.5l69,67.9C694.2,363.3,695.7,362.6,697.3,362.6z"/>
<polygon class="st0" points="868.1,390 868.1,390 868,390 "/>
<line class="st0" x1="939.9" y1="153.4" x2="939.8" y2="153.2"/>
<path class="st1" d="M1223.6,28.3c-2.8-1.4-6.3-0.2-7.6,2.6c-1.4,2.8-0.2,6.3,2.6,7.6c0.7,0.3,1.4,0.5,2.2,0.6l6,239.6
	c-0.2,0.1-0.4,0.1-0.6,0.2L1120.8,75.5c1-0.6,1.8-1.4,2.3-2.4l-0.2-0.1l0.2,0.1c1.4-2.8,0.2-6.3-2.6-7.6c-2.8-1.4-6.3-0.2-7.6,2.6
	c-1.4,2.8-0.2,6.3,2.6,7.6c0,0,0,0,0,0l0.3,0.1l-58.3,161.1c-3-0.9-6.2,0.8-7.1,3.8c-0.3,0.9-0.3,1.8-0.2,2.8l-103.6,25.1
	c-0.8-2.2-3-3.7-5.3-3.7h-0.4l-0.4-105.6c3.2,0,5.7-2.6,5.6-5.8c0-3.2-2.6-5.7-5.8-5.6s-5.7,2.6-5.6,5.8c0,1,0.3,2,0.8,2.8
	l-155,114.3c-1.9-2.5-5.5-3-8-1.1c-0.4,0.3-0.8,0.7-1.1,1L628,116.6c2.5-2,2.9-5.5,0.9-8c-2-2.5-5.5-2.9-8-0.9c-2.5,2-2.9,5.5-0.9,8
	c1,1.3,2.6,2.1,4.3,2.1l-4.8,168.3c-2,0.6-3.5,2.3-3.9,4.3L475.3,225c0.1-0.1,0.1-0.3,0.2-0.4c1.4-2.8,0.2-6.3-2.6-7.6
	c-0.8-0.4-1.6-0.6-2.4-0.6L474.9,0h-0.5l-4.5,216.4c-1.6,0.1-3.1,0.9-4.1,2.2l-180.2-56.8l1.6-18.4L458.6,0h-0.9L287.3,142.7
	L299.6,0H299l-12.3,143.2l-14.1,11.9c-2.5-1.9-6.1-1.4-8,1.2c-1.9,2.5-1.4,6.1,1.2,8c2.5,1.9,6.1,1.4,8-1.2c0.9-1.1,1.2-2.6,1.1-4
	l10.2,3.2l-4.2,48.7c-1,0.1-2,0.4-2.8,1L165.9,76.8c3-1.4,4.2-5,2.7-8c-0.3-0.7-0.8-1.3-1.4-1.8L277.6,0h-1L166.9,66.6
	c-0.3-0.2-0.6-0.4-0.9-0.6l0,0c-1.1-0.5-2.3-0.7-3.5-0.5L170.9,0h-0.6l-8.5,65.7c-2.4,0.6-4.2,2.7-4.4,5.2L0,49.1v0.5l157.4,21.8
	l0,0c0,1.5,0.6,3,1.7,4.1L85.7,219.9c-3.2-0.9-6.5,1-7.4,4.2c-0.1,0.5-0.2,1-0.2,1.5l0,0L0,220.5v0.5l78.1,5.1
	c0.2,2.1,1.5,3.9,3.3,4.8c0.2,0.1,0.4,0.2,0.6,0.2l-46.6,67.9L0,312.2v0.6l34.8-13L3.4,345.7L0,343.7v0.6l3.1,1.8L0,350.6v1l3.5-5.2
	l80.7,46v0.2h0.1L89,408h0.6l-4.4-14.7L99.2,408h0.8l-14.9-15.5l126-10.2l21,25.7h0.7l-21-25.7l58.9-4.8c-0.1,0.4-0.2,0.9-0.2,1.4
	c0,1.4,0.5,2.7,1.4,3.7l-7.9,25.4h0.6l7.7-25c1,0.9,2.3,1.5,3.6,1.5l7.2,23.5h0.6l-7.1-23.4c1.1-0.1,2.2-0.4,3.1-1.1l22.9,24.5h0.8
	l-23.2-24.9c2.4-2.1,2.6-5.7,0.5-8.1c-0.5-0.6-1.1-1-1.8-1.3l0,0l93.2-69.9c0.6,2.6,2.9,4.4,5.6,4.5h0.5l15.4,95.8l0.6,4h0.5
	l-16-99.8c1.8-0.3,3.3-1.5,4.1-3.1L502.2,408h0.8L382.9,304.6c0.2-0.6,0.4-1.3,0.4-2c0-0.9-0.2-1.7-0.6-2.5l83.2-74.4
	c1.9,2.5,5.5,2.9,8,1c0.4-0.3,0.8-0.7,1.1-1.2L615.6,291c0,0.2,0,0.4,0,0.6c0,1.3,0.4,2.5,1.2,3.5L507.5,408h0.8l108.9-112.5
	c1.7,1.7,4.2,2.2,6.4,1.3l69.2,68.1c-1.9,2.5-1.4,6.1,1.1,8c0.6,0.4,1.2,0.7,1.9,0.9l-3.2,34.1h0.5l3.2-34c0.3,0.1,0.7,0.1,1,0.1
	c1.3,0,2.6-0.5,3.7-1.3l12.5,12.4l23.2,22.9h0.8l-36.1-35.6c0.9-0.9,1.4-2,1.6-3.2l160.6,21c0,0.1,0,0.1,0,0.2L844.1,408h0.8
	l18.7-17c0.2,2.9,2.6,5.1,5.5,5.2l9.3,11.8h0.7l-9.3-11.7c3.1-0.3,5.5-3,5.2-6.1c-0.1-0.7-0.2-1.4-0.6-2.1l121.9-26.6
	c0.2,1.5,1,3,2.2,3.9l-10.7,21.2L977,408h0.6l9-17.9l12.4-24.5c0.2,0.1,0.3,0.2,0.5,0.3c2,1,4.4,0.7,6.1-0.7l37,42.8h0.7l-24.5-28.3
	l-12.9-14.9c1.7-1.7,2.1-4.2,1.1-6.4l216.2-72.2c0.2,0.5,0.5,1,0.8,1.5L1116.3,408h0.7l107.5-119.9c0.4,0.4,0.9,0.8,1.4,1.1
	L1196.9,408h0.6l20.7-84.9l8.2-33.7c2.8,1.2,6.1,0,7.4-2.8l-0.2-0.1l0.2,0.1c0.1-0.3,0.2-0.6,0.3-0.9l81.6,10.7
	c-0.2,1.2-0.1,2.4,0.3,3.5l-113.7,108h0.8l113.2-107.5c0.6,1,1.4,1.8,2.5,2.4h0.1L1307.3,408h0.6l11.6-105c0.6,0.2,1.3,0.3,1.9,0.3
	h0.3l33.2,104.6h0.6l-2.7-8.5l-30.5-96.2c1.8-0.3,3.3-1.4,4.2-3l41.6,20.9v-0.6l-41.4-20.8c0.9-2.1,0.4-4.5-1.2-6.1l42.6-25.6v-0.6
	l0,0l-43,25.8c-0.9-0.8-2-1.2-3.2-1.3l46.2-129l0,0v-1.6l-37,103.5l-9.7,27.1c-0.9,0-1.9,0.3-2.7,0.7l-95.8-253.8
	c1-0.3,1.9-0.9,2.6-1.6l142.7,96.2l0,0v-0.7l0,0l-87.7-59.2l-54.6-36.8c0.7-0.9,1.1-2.1,1.1-3.3L1368,25v-0.5L1226.8,33
	C1226.6,31,1225.4,29.2,1223.6,28.3z M274.8,158.4c-0.3-1.2-0.9-2.2-1.8-3l13.7-11.4l-1.5,17.7L274.8,158.4z M82.5,231.4
	c1.6,0.4,3.4,0.1,4.8-0.8l38.1,46.7l-15.1-1.5c-0.5-3.1-3.5-5.2-6.6-4.6c-2.2,0.4-4,2-4.5,4.2l-62.9,23.4L82.5,231.4z M110.4,276.4
	l15.5,1.5l15.6,19.1l-31.2-19c0.1-0.4,0.1-0.8,0.1-1.2C110.4,276.6,110.4,276.5,110.4,276.4L110.4,276.4z M3.9,345.9l31.8-46.4
	L99,276c-0.3,1.9,0.5,3.9,2,5.1L84.3,391.6l-0.4-0.4l0.1,0.4L3.9,345.9z M84.9,391.9l16.7-110.4c0.2,0.1,0.4,0.3,0.7,0.4
	c2.8,1.4,6.2,0.2,7.6-2.6c0,0,0,0,0,0c0.1-0.2,0.2-0.5,0.3-0.7l32.4,19.7l68.2,83.6L84.9,391.9z M211.4,381.7l-67.5-82.7l127.2,77.3
	c-0.1,0.2-0.2,0.4-0.2,0.5L211.4,381.7z M275,378.7L275,378.7L275,378.7L275,378.7z M278.2,373.5c-2.6-0.9-5.4,0.1-6.8,2.4
	l-128.5-78.1l-16.2-19.9l245.2,24.3c0,0.1,0,0.2,0,0.3c0,0.2,0,0.4,0,0.7L278.2,373.5z M376.7,300.3L376.7,300.3l0.3,2L376.7,300.3z
	 M378,303.6L378,303.6L378,303.6z M382.4,299.6c-1.6-2.7-5.2-3.5-7.8-1.9c-1.4,0.9-2.4,2.4-2.7,4l-245.8-24.4l-38.4-47.1
	c2.6-2,3-5.8,0.9-8.4c-0.6-0.7-1.2-1.3-2-1.6l-0.4-0.2l73.3-144.1c1.7,1.4,4,1.8,6,1.1l112.2,135.3c-2.5,2.1-2.9,5.8-0.8,8.4
	c2.1,2.5,5.8,2.9,8.4,0.8c2.5-2.1,2.9-5.8,0.8-8.4c-1.1-1.4-2.8-2.2-4.6-2.2l4.2-48.5l179.9,56.7c-0.1,0.2-0.2,0.3-0.3,0.5
	c-0.9,1.8-0.7,3.9,0.3,5.6L382.4,299.6z M1223.2,285.8L1006.9,358c-0.6-1-1.4-1.8-2.5-2.3c-0.2-0.1-0.4-0.2-0.6-0.3l47.8-109.1
	c2.2,2.3,5.8,2.4,8.1,0.2c1.6-1.6,2.2-3.9,1.4-6.1l161.9,43.3c0,0.1,0,0.3,0,0.4C1223,284.7,1223,285.2,1223.2,285.8L1223.2,285.8z
	 M939.8,153.2L939.8,153.2l0.1,0.2L939.8,153.2z M935.7,156.9c1,1.4,2.5,2.2,4.2,2.4l0.4,105.7c-2.6,0.4-4.6,2.6-4.8,5.2l-153.9,4
	c0-1.1-0.3-2.1-0.8-3L935.7,156.9z M624.9,117.9c1-0.1,1.9-0.4,2.7-0.9L771.1,271c-0.1,0.2-0.2,0.4-0.3,0.6
	c-0.6,1.2-0.7,2.6-0.4,3.9l-143.5,17c0.5-3.1-1.5-6.1-4.6-6.6c-0.7-0.1-1.5-0.1-2.2,0L624.9,117.9z M624.1,296.5
	c1-0.6,1.8-1.4,2.3-2.5c0.1-0.3,0.3-0.6,0.4-0.9l143.8-17c0.3,0.9,0.9,1.7,1.6,2.3l-70.5,86.2c-2-2.4-5.7-2.7-8.1-0.6
	c-0.2,0.2-0.3,0.3-0.5,0.5L624.1,296.5z M703,368.5c0-0.1,0-0.2,0-0.2c0-1.2-0.3-2.3-1-3.3l70.6-86.3c0.3,0.2,0.5,0.4,0.8,0.5
	c2.8,1.3,6.2,0.2,7.6-2.6l-0.2-0.1l0.2,0.1c0.3-0.6,0.5-1.3,0.5-2l153.9-4c0,1.6,0.8,3.1,2,4.2l-66.5,110.3c-3-0.9-6.2,0.7-7.2,3.7
	c-0.1,0.2-0.1,0.5-0.2,0.7L703,368.5z M868.1,390L868.1,390L868.1,390L868.1,390l0.4,0.2l0,0L868.1,390z M996.2,360.9l-122.2,26.7
	c-0.6-0.9-1.4-1.7-2.4-2.1l-0.2-0.1l66.4-110.2c0.3,0.2,0.5,0.4,0.8,0.5c2.8,1.4,6.3,0.2,7.6-2.7c0.6-1.2,0.7-2.7,0.4-4l103.5-25
	c0.2,0.7,0.5,1.3,0.9,1.9l-47.9,109.4c-3.1-0.7-6.1,1.2-6.9,4.3C996.3,360,996.3,360.4,996.2,360.9
	C996.3,360.8,996.3,360.9,996.2,360.9L996.2,360.9z M1223,283.2l-162.2-43.4c-0.6-1.1-1.5-2-2.6-2.6l-0.3-0.1L1116.2,76
	c0.5,0.2,1.1,0.3,1.7,0.2c0.8,0,1.6-0.2,2.4-0.5l105.5,203.5C1224.3,280.1,1223.3,281.5,1223,283.2z M1227.4,284.9L1227.4,284.9
	l6.1,0.8L1227.4,284.9z M1319,302.3l0.5-4.8l0,0L1319,302.3z M1319.9,296L1319.9,296L1319.9,296L1319.9,296z M1320.4,296.7
	L1320.4,296.7l5.7,2.9L1320.4,296.7z M1318.2,293c-1.1,0.7-1.8,1.8-2.2,3l-81.6-10.7c0.6-3.1-1.4-6.1-4.5-6.7
	c-0.8-0.1-1.6-0.1-2.3,0l-6-239.5c0.3,0,0.6-0.1,0.9-0.1l94.6,250.6L1318.2,293z"/>
<polygon class="st1" points="8.5,0 0,24.4 0,26 9.1,0 "/>
</svg>
