<svg id="HTML5" xmlns="http://www.w3.org/2000/svg" viewBox="0 0 255.82 256"><defs><style>.cls-1{fill:#bbb;}.cls-2{fill:#848688;}.cls-3{fill:#fff;}</style></defs><title>unknown</title><rect class="cls-1" width="255.82" height="256"/><path class="cls-2" d="M227,256H0l19.21-50.66c16.23-34.18,41.39-41.45,42.44-41.76l1.8-.24H76.16A18.67,18.67,0,0,0,94.8,144.71v-6a67.42,67.42,0,0,1-11.13-20.84l-0.48-1.52A22.49,22.49,0,0,1,78.41,89a12.76,12.76,0,0,1,.9-1.49l0-7.29c0-4.89,0-9.77.05-14.65,0.38-9.27,2.9-17.46,7.27-23.85,5.16-7.72,13.8-13.61,23.65-16.1a71.18,71.18,0,0,1,30.6-.73c9.27,1.77,17.21,5.9,22.94,12,6.78,7.16,10.66,17.64,10.92,29.51,0,5.34,0,10.58,0,15.82v5.38a9.22,9.22,0,0,1,.49.8c5.12,8.17,3.77,19.91-3.31,27l-1.11,1a71.16,71.16,0,0,1-11.58,22.59v5.77a18.67,18.67,0,0,0,18.64,18.64l14.51,0.24c1.06,0.3,26.21,7.57,42.44,41.76l21,50.66H227Z" transform="translate(0 0)"/><path class="cls-3" d="M119.84,114.62q0-7.79,1.89-12.41a25.46,25.46,0,0,1,6.92-9.1,36,36,0,0,0,6.7-7.27A11.46,11.46,0,0,0,137,79.91q0-9.4-8.67-9.41A8.78,8.78,0,0,0,121.76,73a9.94,9.94,0,0,0-2.58,7H103.05q0.11-10.63,6.87-16.63t18.43-6q11.78,0,18.29,5.7t6.5,16.11A19.64,19.64,0,0,1,151,88.13a36.77,36.77,0,0,1-7.4,9.32l-4.49,4.27a15.27,15.27,0,0,0-4.84,9.51l-0.25,3.4H119.84Zm-1.61,17a8.09,8.09,0,0,1,2.53-6.12,9.91,9.91,0,0,1,13,0,8.64,8.64,0,0,1,.06,12.16,10.14,10.14,0,0,1-13.09,0,8,8,0,0,1-2.45-6h0Z" transform="translate(0 0)"/></svg>