<svg id="C___big" data-name="C# _ big" xmlns="http://www.w3.org/2000/svg" viewBox="0 0 256 256"><defs><style>.cls-1{fill:#823389;}.cls-2{fill:#fff;}</style></defs><title>C#_v2</title><rect class="cls-1" width="256" height="256"/><path class="cls-2" d="M134.35,179.67c-4.81,2.42-14.44,4.83-26.77,4.83C79,184.5,57.5,166.37,57.5,133,57.5,101.1,79,79.5,110.44,79.5c12.63,0,20.6,2.72,24.06,4.53l-3.16,10.73a47.5,47.5,0,0,0-20.46-4.23c-23.76,0-39.55,15.26-39.55,42,0,24.93,14.29,40.94,38.95,40.94,8,0,16.09-1.66,21.35-4.23Z"/><path class="cls-2" d="M160.4,154l-0.55-24.05L150,131.49l-1.1-7.1,10.88-1.71-0.44-17.79L149.1,106.5l-1.1-7.1,11.36-1.78L158.9,74.17l6.93-1.09,0.58,23.44,12.44-2-0.46-23.45L185.45,70,186,93.44l9.81-1.54,1.1,7.1-10.88,1.71,0.56,17.77,10.29-1.62L198,124l-11.36,1.78,0.55,24.05L180,150.92l-0.55-24.06-12.44,2,0.55,24.05Zm19-34.4L179,101.81l-12.43,2L167,121.55Z"/></svg>