<?xml version="1.0" encoding="utf-8"?>
<!-- Generator: Adobe Illustrator 19.2.1, SVG Export Plug-In . SVG Version: 6.00 Build 0)  -->
<svg version="1.1" id="Ruby_big" xmlns="http://www.w3.org/2000/svg" xmlns:xlink="http://www.w3.org/1999/xlink" x="0px" y="0px"
	 viewBox="0 0 256 256" style="enable-background:new 0 0 256 256;" xml:space="preserve">
<style type="text/css">
	.st0{fill:#92278F;}
	.st1{fill:#FFFFFF;}
</style>
<title>ruby</title>
<rect class="st0" width="256" height="256"/>
<path class="st1" d="M57.3,128.2V128c0-18.9,14.8-34.5,34.9-34.5c10.1,0,16.8,2.3,22.8,6.5c1.9,1.4,3,3.6,3.1,5.9
	c0,4-3.3,7.3-7.3,7.3c-1.6,0-3.2-0.5-4.5-1.5c-4.2-3.1-9.3-4.7-14.5-4.6c-10.7,0-19.1,9.4-19.1,20.8v0.2c0,12.2,8.4,21.1,20.2,21.1
	c4.9,0.1,9.7-1.2,13.8-4v-9.5h-9.9c-3.5,0-6.3-2.8-6.3-6.3c0,0,0,0,0-0.1c0-3.5,2.9-6.4,6.4-6.4h16.8c4,0,7.3,3.2,7.3,7.2
	c0,0,0,0.1,0,0.1v16.1c0.2,3.8-1.8,7.5-5.1,9.3c-7,4.3-15.1,6.7-23.3,6.7C71.6,162.5,57.3,147.9,57.3,128.2z"/>
<path class="st1" d="M131.9,128.2V128c0-18.9,14.9-34.5,35.5-34.5s35.3,15.3,35.3,34.3v0.2c0,18.9-14.9,34.5-35.5,34.5
	S131.9,147.1,131.9,128.2z M187.4,128.2V128c0-11.4-8.4-20.9-20.2-20.9s-19.9,9.3-19.9,20.7v0.2c0,11.4,8.4,20.9,20.2,20.9
	C179.3,148.9,187.4,139.6,187.4,128.2z"/>
</svg>
