<?xml version="1.0" encoding="utf-8"?>
<!-- Generator: Adobe Illustrator 19.2.1, SVG Export Plug-In . SVG Version: 6.00 Build 0)  -->
<svg version="1.1" id="Ruby_big" xmlns="http://www.w3.org/2000/svg" xmlns:xlink="http://www.w3.org/1999/xlink" x="0px" y="0px"
	 viewBox="0 0 256 256" style="enable-background:new 0 0 256 256;" xml:space="preserve">
<style type="text/css">
	.st0{fill:#E77725;}
	.st1{fill:#FFFFFF;}
</style>
<title>ruby</title>
<rect class="st0" width="256" height="256"/>
<path class="st1" d="M31.6,103.3c0-3.1,2.5-5.5,5.5-5.5c3.1,0,5.5,2.5,5.5,5.5v14.8h20.5v-14.8c0-3.1,2.5-5.5,5.5-5.5
	c3.1,0,5.5,2.5,5.5,5.5v40.2c0,3.1-2.5,5.5-5.5,5.5s-5.5-2.5-5.5-5.5c0,0,0,0,0,0v-15.1H42.6v15.1c0,3.1-2.5,5.5-5.5,5.5
	c-3.1,0-5.5-2.5-5.5-5.5c0,0,0,0,0,0V103.3z"/>
<path class="st1" d="M98,108.4H87.4c-2.8,0.1-5.2-2-5.4-4.9s2-5.2,4.9-5.4c0.2,0,0.3,0,0.5,0h32.4c2.8-0.1,5.2,2,5.4,4.9
	c0.1,2.8-2,5.2-4.9,5.4c-0.2,0-0.3,0-0.5,0h-10.7v35.1c0,3.1-2.5,5.5-5.5,5.5c-3.1,0-5.5-2.5-5.5-5.5c0,0,0,0,0,0
	C98,143.5,98,108.4,98,108.4z"/>
<path class="st1" d="M132.9,103.4c0-3,2.4-5.5,5.5-5.5c0,0,0.1,0,0.1,0h1.2c2.1,0,4,1.1,5,2.9l13.4,21.8l13.5-21.8
	c1-1.8,2.9-2.9,5-2.8h1.2c3,0,5.5,2.4,5.5,5.5c0,0,0,0.1,0,0.1v40c0,3-2.5,5.5-5.5,5.5c-3,0-5.5-2.5-5.5-5.5v-25.2l-9.7,14.9
	c-1.3,2.5-4.5,3.5-7,2.2c-0.9-0.5-1.7-1.3-2.2-2.2l-9.6-14.7v25.1c0,3-2.4,5.4-5.4,5.4c0,0,0,0-0.1,0c-3,0-5.4-2.3-5.4-5.3
	c0,0,0-0.1,0-0.1L132.9,103.4L132.9,103.4z"/>
<path class="st1" d="M195.4,103.3c0-3.1,2.5-5.5,5.5-5.5c3.1,0,5.5,2.5,5.5,5.5v35.2H227c2.8,0,5,2.2,5,5c0,2.8-2.2,5-5,5
	c0,0,0,0,0,0h-26c-3,0-5.5-2.4-5.5-5.5c0,0,0-0.1,0-0.1L195.4,103.3L195.4,103.3z"/>
</svg>
