<?xml version="1.0" encoding="utf-8"?>
<!-- Generator: Adobe Illustrator 19.2.1, SVG Export Plug-In . SVG Version: 6.00 Build 0)  -->
<svg version="1.1" id="JS" xmlns="http://www.w3.org/2000/svg" xmlns:xlink="http://www.w3.org/1999/xlink" x="0px" y="0px"
	 viewBox="0 0 256 256" style="enable-background:new 0 0 256 256;" xml:space="preserve">
<style type="text/css">
	.st0{fill:#F1DD3F;}
	.st1{fill:#333333;}
</style>
<title>JS-avatar</title>
<rect x="0" y="-0.3" class="st0" width="256" height="256.3"/>
<g>
	<path class="st1" d="M117,149.7c-0.1,11.5-7.7,20.3-19,22.8c-13.8,3-26.2-1.5-33.2-11.9c-2.6-3.9-2.6-3.9,1.3-6.3
		c3.7-2.3,7.4-4.5,11.3-6.9c1.2,1.7,2.2,3.3,3.3,4.8c2.1,3.1,5.6,4.8,9.3,4.4c5.5-0.2,8.6-3.2,8.7-8.8c0.1-5.2,0.2-10.5,0.2-15.7
		c0-14.9,0-29.8,0-44.8c0-4.4-0.2-3.8,3.7-3.8c4.2,0,8.3,0.1,12.4,0c1.7,0,2.1,0.6,2.1,2.2C117.1,107.1,117.2,128.4,117,149.7z"/>
	<path class="st1" d="M188.8,161.6c-5.2,7.7-13.2,10.6-22,11.6c-1.4,0.1-2.9,0.1-4.6,0.2c-12.9-0.3-23.9-4.6-31.4-16.1
		c-1.7-2.6-1.7-2.6,1-4.2c3.4-2,6.9-3.8,10.2-5.9c1.7-1.1,2.7-0.9,3.8,0.8c4.6,7,11.3,9.8,19.6,8.6c3.9-0.5,7.1-2.3,8.5-6.2
		c1.1-3.3-0.1-7-3-8.9c-2.5-1.6-5.1-3.1-7.8-4.3c-5.9-3-12.1-5.4-17.6-9.1c-10.7-7.4-14-21.6-7.8-32.9c4.2-7.5,11-11.4,19.4-12.1
		c4.6-0.4,9.3-0.1,13.8,0.8c7.1,1.4,12,6.2,15.8,12.2c0.5,0.5,0.5,1.3,0,1.8c-0.1,0.1-0.3,0.2-0.5,0.3c-3.9,2.5-7.9,5-11.7,7.6
		c-1.4,0.9-1.9,0.1-2.6-0.9c-2.8-4.2-6.6-6.5-11.8-5.9c-3.2,0.4-5.6,1.8-6.7,4.8c-1.2,2.9-0.5,6.3,1.9,8.4c1.4,1.3,3,2.3,4.7,3.1
		c4.9,2.4,9.9,4.6,14.8,6.9c1.9,0.9,3.7,2,5.5,3.1C193,133.3,196.8,149.8,188.8,161.6z"/>
</g>
</svg>
