<svg id="Ruby_big" data-name="Ruby big" xmlns="http://www.w3.org/2000/svg" viewBox="0 0 256 256"><defs><style>.cls-1{fill:#cf649a;}.cls-2{fill:#fff;}</style></defs><title>css</title><rect class="cls-1" width="256" height="256"/><path class="cls-2" d="M198.39,133.8a36.43,36.43,0,0,0-16,3.73c-1.66-3.28-3.32-6.15-3.59-8.29a22.93,22.93,0,0,1-.31-7c0.38-3,2.11-7.19,2.11-7.53s-0.38-1.83-3.94-1.87-6.63.69-7,1.62a39.67,39.67,0,0,0-1.49,5.29c-0.62,3.25-7.12,14.75-10.81,20.8a21.21,21.21,0,0,1-2.45-6.08,22.93,22.93,0,0,1-.31-7c0.38-3,2.11-7.19,2.11-7.53s-0.38-1.83-3.94-1.87-6.63.69-7,1.62-0.73,3.14-1.49,5.29-9.36,21.35-11.61,26.36c-1.14,2.56-2.14,4.59-2.87,6s0,0.1-.1.24l-1,1.83v0a4.3,4.3,0,0,1-1.24,1.69c-0.17,0-.52-2.31.07-5.49,1.28-6.67,4.39-17.06,4.35-17.44,0-.17.59-2-2-2.94a3.15,3.15,0,0,0-3.63.62,0.9,0.9,0,0,0-.38.55s2.8-11.71-5.35-11.71c-5.11,0-12.16,5.56-15.65,10.64-2.21,1.21-6.91,3.77-11.88,6.49-1.9,1-3.87,2.14-5.73,3.14l-0.38-.41c-9.88-10.54-28.15-18-27.39-32.16,0.28-5.15,2.07-18.72,35.1-35.17,27-13.47,48.71-9.78,52.47-1.55,5.35,11.74-11.57,33.58-39.69,36.72-10.71,1.21-16.34-2.94-17.76-4.49s-1.69-1.69-2.25-1.38c-0.9.48-.35,1.93,0,2.8,0.83,2.18,4.28,6,10.16,8,5.15,1.69,17.72,2.63,32.92-3.25,17-6.6,30.33-24.91,26.43-40.21-4-15.58-29.81-20.69-54.23-12C88.13,67.07,72.38,75.15,61,85.75c-13.47,12.57-15.61,23.56-14.72,28.12,3.14,16.27,25.56,26.87,34.54,34.72l-1.24.69C75.14,151.49,58,160.44,53.76,169.9c-4.84,10.71.76,18.41,4.49,19.45,11.54,3.21,23.35-2.56,29.74-12.06s5.6-21.83,2.66-27.46l-0.1-.21,3.52-2.07c2.28-1.35,4.53-2.59,6.49-3.66a43,43,0,0,0-2.31,11.74c-0.48,6.08,2,14,5.29,17.06a5.85,5.85,0,0,0,4.25,1.38c3.8,0,5.53-3.14,7.43-6.91,2.35-4.59,4.42-9.91,4.42-9.91s-2.59,14.4,4.49,14.4c2.59,0,5.18-3.35,6.36-5.08v0s0.07-.1.21-0.35c0.28-.41.41-0.66,0.41-0.66v-0.07c1-1.8,3.35-5.91,6.81-12.71,4.46-8.77,8.74-19.76,8.74-19.76a63.05,63.05,0,0,0,1.69,7.12c0.76,2.63,2.42,5.49,3.7,8.29-1,1.45-1.66,2.28-1.66,2.28l0,0c-0.83,1.11-1.76,2.28-2.73,3.45-3.52,4.21-7.74,9-8.29,10.4-0.66,1.62-.52,2.83.76,3.8,0.93,0.69,2.59.83,4.35,0.69a19.39,19.39,0,0,0,6.49-1.49,22.49,22.49,0,0,0,5.6-2.94,12.46,12.46,0,0,0,5.35-11,22.16,22.16,0,0,0-2-7.77c0.31-.45.62-0.9,0.93-1.38a145.78,145.78,0,0,0,9.67-16.75,63.05,63.05,0,0,0,1.69,7.12,49.92,49.92,0,0,0,3.14,7.12c-5.11,4.18-8.32,9-9.43,12.19-2,5.87-.45,8.53,2.56,9.15,1.35,0.28,3.28-.35,4.73-1a21.43,21.43,0,0,0,6-3.07c3.45-2.56,6.77-6.11,6.6-10.92A20.93,20.93,0,0,0,184.3,142a33.65,33.65,0,0,1,17.13-2c15.37,1.8,18.41,11.4,17.82,15.41s-3.8,6.22-4.87,6.91-1.42.9-1.31,1.38c0.14,0.73.62,0.69,1.55,0.55,1.28-.21,8.08-3.28,8.36-10.67,0.41-9.5-8.6-19.86-24.59-19.76h0Zm-118.55,40c-5.08,5.56-12.23,7.67-15.27,5.87-3.28-1.9-2-10.09,4.25-16a81.28,81.28,0,0,1,12-8.95c0.73-.45,1.83-1.11,3.14-1.9a3.59,3.59,0,0,1,.35-0.21l0.79-.48a22,22,0,0,1-5.25,21.66h0ZM117,148.52c-1.76,4.32-5.49,15.41-7.74,14.78-1.93-.52-3.11-8.91-0.38-17.2a38.4,38.4,0,0,1,6-11.09c2.8-3.11,5.84-4.15,6.6-2.87C122.4,133.8,118.08,145.82,117,148.52Zm30.64,14.65a2.36,2.36,0,0,1-1.76.45c-0.24-.14.31-0.66,0.31-0.66s3.83-4.11,5.35-6c0.86-1.11,1.9-2.38,3-3.83v0.41C154.52,158.5,149.75,161.82,147.61,163.17Zm23.63-5.39c-0.55-.41-0.48-1.69,1.38-5.7a21.35,21.35,0,0,1,5.25-6.77,8.55,8.55,0,0,1,.52,3C178.36,154.49,173.93,156.81,171.24,157.78Z"/></svg>