<?xml version="1.0" encoding="utf-8"?>
<!-- Generator: Adobe Illustrator 19.2.1, SVG Export Plug-In . SVG Version: 6.00 Build 0)  -->
<svg version="1.1" id="Ruby_big" xmlns="http://www.w3.org/2000/svg" xmlns:xlink="http://www.w3.org/1999/xlink" x="0px" y="0px"
	 viewBox="0 0 256 256" style="enable-background:new 0 0 256 256;" xml:space="preserve">
<style type="text/css">
	.st0{fill:#FFFFFF;}
</style>
<title>ruby</title>
<rect width="256" height="256"/>
<path class="st0" d="M71.8,67.8c-2.4-2.2-6.2-2.1-8.4,0.3c-2.1,2.3-2.1,5.8,0,8.1l18.1,18.2l-18.1,18.1c-2.3,2.3-2.3,6.1,0,8.4
	c1.1,1.1,2.6,1.7,4.2,1.7c1.6,0,3.1-0.6,4.2-1.8l20.2-20.2c4.2-4.2,4.2-8.4,0-12.7L71.8,67.8L71.8,67.8z M150.8,112.5
	c-1.1-1.1-2.6-1.8-4.2-1.8h-38.9c-3.3,0.3-5.7,3.2-5.4,6.5c0.3,2.9,2.5,5.2,5.4,5.4h38.9c3.3,0,6-2.7,5.9-6.1
	C152.5,115.1,151.9,113.6,150.8,112.5L150.8,112.5L150.8,112.5z"/>
</svg>
