<svg id="HTML5" xmlns="http://www.w3.org/2000/svg" viewBox="0 0 255.82 256"><defs><style>.cls-1{fill:#ddd;}.cls-2{fill:#aaa;}</style></defs><title>unknown</title><rect class="cls-1" width="255.82" height="256"/><path class="cls-2" d="M78.4,149q25.77-10.34,49.55-10.35T177.51,149q25.77,10.35,25.77,27.09V195H52.64V176.06Q52.64,159.33,78.4,149Zm76-40.3a37.22,37.22,0,0,1-52.85,0,36,36,0,0,1-11-26.43,36.77,36.77,0,0,1,11-26.65,36.71,36.71,0,0,1,52.85,0,36.79,36.79,0,0,1,11,26.65A36,36,0,0,1,154.38,108.67Z" transform="translate(-0.04 0)"/></svg>