<?xml version="1.0" encoding="utf-8"?>
<!-- Generator: Adobe Illustrator 19.2.1, SVG Export Plug-In . SVG Version: 6.00 Build 0)  -->
<svg version="1.1" id="Layer_1" xmlns="http://www.w3.org/2000/svg" xmlns:xlink="http://www.w3.org/1999/xlink" x="0px" y="0px"
	 viewBox="0 0 60 60" style="enable-background:new 0 0 60 60;" xml:space="preserve">
<style type="text/css">
	.st0{fill:#FFFFFF;}
</style>
<rect width="60" height="60"/>
<path class="st0" d="M57.4,24.1c0,0.5-0.3,1-0.9,1.6l-12,11.7l2.8,16.5c0,0.2,0,0.4,0,0.7c0,0.5-0.1,0.9-0.3,1.2
	c-0.2,0.3-0.6,0.5-1,0.5c-0.4,0-0.9-0.1-1.3-0.4L30,48l-14.8,7.8c-0.5,0.3-0.9,0.4-1.3,0.4c-0.5,0-0.8-0.2-1-0.5
	c-0.2-0.3-0.3-0.7-0.3-1.2c0-0.1,0-0.4,0.1-0.7l2.8-16.5l-12-11.7c-0.5-0.6-0.8-1.1-0.8-1.6c0-0.8,0.6-1.3,1.8-1.5L21,20.2l7.4-15
	c0.4-0.9,1-1.4,1.6-1.4s1.2,0.5,1.6,1.4l7.4,15l16.6,2.4C56.8,22.8,57.4,23.3,57.4,24.1z"/>
</svg>
