<svg id="_AS___big" data-name="{AS} _ big" xmlns="http://www.w3.org/2000/svg" viewBox="0 0 256 256"><defs><style>.cls-1{fill:#d42327;}.cls-2{fill:#fff;}</style></defs><title>{AS}v3</title><g id="Actionscript"><rect class="cls-1" width="256" height="256"/><path class="cls-2" d="M49.51,139.44c0-4.29-1.51-8.47-9.51-8.58v-5.72c8-.11,9.51-4.29,9.51-8.47,0-6.93-1-13.6-1-21.19C48.53,84.25,52.74,81,61.32,81H66v5H63.3c-5.83,0-7.37,2.74-7.37,9.89,0,6.38.67,13.2,0.67,19.91,0,7.15-1.6,10.66-6.6,12v0.44c5,1.32,6.6,5,6.6,12,0,7.48-.66,13.13-0.66,19.84,0,7.15,1.54,9.94,7.37,9.94H66v5H61.32c-8.58,0-12.78-3.14-12.78-14.48C48.53,152.49,49.51,146.81,49.51,139.44Z" transform="translate(0 0)"/><path class="cls-2" d="M112.51,139H87.75l-6.53,21h-8.8l23-68h9.73l23,68H119Zm-2.17-7-3.21-10.23c-2.38-7.56-4.56-14.77-6.73-22.77H100c-2.18,8-4.35,15.21-6.73,22.77L89.93,132h20.4Z" transform="translate(0 0)"/><path class="cls-2" d="M140.45,144.76c4.87,5.07,11.6,8.49,18.75,8.49,8.91,0,14.19-4.45,14.19-11.08,0-6.94-5-9.11-11.39-12l-9.74-4.25c-6.32-2.69-13.77-7.56-13.77-17.5,0-10.36,9.11-18,21.44-18a27.77,27.77,0,0,1,20,8.39l-4.56,5.59a21.85,21.85,0,0,0-15.43-6.42c-7.66,0-12.74,3.83-12.74,9.94,0,6.53,6,9,11.29,11.29l9.74,4.14c7.87,3.42,14,8.08,14,18.13,0,10.77-8.91,19.37-23.2,19.37a32.71,32.71,0,0,1-23.72-10Z" transform="translate(0 0)"/><path class="cls-2" d="M192.59,170c5.94,0,7.48-2.79,7.48-9.94,0-6.71-.56-12.4-0.56-19.88,0-7,1.48-10.64,6.48-12v-0.44c-5-1.32-6.48-4.84-6.48-12,0-6.71.55-13.52,0.55-19.9,0-7.15-1.54-9.89-7.48-9.89H190V81h4.57c8.8,0,12.87,3.25,12.87,14.48,0,7.59-.95,14.34-0.95,21.27,0,4.18,2.5,8.28,9.5,8.39v5.72c-7,.11-9.5,4.29-9.5,8.58,0,7.37,1,13,1,21.08,0,11.33-4.09,14.48-12.89,14.48H190v-5h2.59Z" transform="translate(0 0)"/></g></svg>