<?xml version="1.0" encoding="UTF-8"?>
<svg width="28px" height="35px" viewBox="0 0 28 35" version="1.1" xmlns="http://www.w3.org/2000/svg" xmlns:xlink="http://www.w3.org/1999/xlink">
    <!-- Generator: Sketch 54.1 (76490) - https://sketchapp.com -->
    <title>Flame Badge</title>
    <desc>Created with Sketch.</desc>
    <g id="Flame-Badge" stroke="none" stroke-width="1" fill="none" fill-rule="evenodd">
        <g id="Group" transform="translate(1.500000, 0.000000)" fill="#404040">
            <path d="M10.0448207,34.32 C1.98005981,32.929606 -1.22843956,29.1452788 0.419322562,22.9670186 C0.5109747,22.6233702 0.910191374,21.735506 1.03390288,21.4899066 C2.12443681,19.3249134 3.51751792,17.7901836 3.65108605,16.4198355 C3.78465418,15.0494875 3.78465418,12.6140525 3.18733144,11.7708567 C2.5900087,10.9276609 8.48030275,13.4201105 7.13898372,20.8200393 C7.04576224,21.3343333 7.11231958,21.7046841 7.25938545,21.9782045 C7.41558106,22.2687048 7.66259129,22.4499793 7.90544723,22.578471 C8.27280196,22.7728334 8.58260786,23.1499426 8.60225755,23.2981147 C8.92695894,25.7465843 7.21933216,28.58286 7.13898372,29.0708482 C7.0050679,29.8841724 7.01806408,31.1378028 7.31467334,31.9289773 C7.5454363,32.5445136 8.45548541,33.3415212 10.0448207,34.32 Z" id="Path-4"></path>
            <path d="M17.4231244,16.1440655 C12.0805198,11.1015068 10.722833,5.72015166 13.3500641,2.66453526e-14 C9.71356919,1.79491373 7.70630504,4.69973836 7.32827162,8.7144739 C7.1163767,10.9648095 7.48571677,13.3674173 8.29520307,16.1440655 C8.41245002,16.5462385 8.44403491,17.5946997 7.96286888,18.6715446 C7.67098627,19.324775 7.50505182,19.6146455 7.16206752,20.0503922 C6.51110835,20.8774076 6.77804214,21.7838522 7.96286888,22.769726 C9.64806713,23.3437364 10.3634169,24.5129908 10.1089182,26.2774895 C10.0443241,26.7253358 10.5852947,26.25101 10.8605998,25.9833175 C11.811833,25.0583878 12.7135914,23.1918277 13.1459947,21.8860698 C13.3500641,21.2698275 13.3500641,20.0503922 12.9742807,18.5515867 C12.2185444,17.67268 15.6470283,20.1659846 15.2791318,23.1039619 C15.2163342,24.878569 13.5586644,25.9787954 15.8937163,28.7491587 C15.7591172,28.6781652 14.7647622,27.3741961 16.1560043,23.9803596 C17.5472463,20.5865231 25.4370312,23.7079034 17.4231244,16.1440655 Z" id="Path-5"></path>
            <path d="M14.7398765,25.4752031 C14.165282,27.2309086 16.3445551,29.5731039 15.8575953,28.4901679 C14.7516213,24.8372165 17.0974305,24.1898942 17.0974305,24.1898942 C17.0974305,24.1898942 16.8303103,24.8021219 17.0974305,26.4620616 C17.3645507,28.1220013 18.4119509,28.1352625 18.6248641,30.4489991 C18.8377772,32.7627358 15.7640881,34.4122858 16.6184512,33.9348122 C17.0692732,33.6828636 18.7178446,33.2807729 20.0972153,32.4937465 C21.331921,31.7892615 22.2756453,31.0203513 22.5050503,30.7744035 C25.8670801,27.1699314 24.9753898,23.3644465 23.478586,19.6098183 C22.9071008,18.1762875 22.2502483,16.395475 22.0808633,15.8216089 C21.4699626,13.7519144 21.5578482,11.5132394 22.3445203,9.10558395 C19.1747853,10.147319 17.53432,12.4934795 17.4231244,16.1440655 C17.3991775,16.9302477 16.0132114,15.8701804 15.8575953,16.1440655 C15.5128014,16.750904 14.0292125,17.7393334 14.4162431,18.6297541 C14.7398765,19.3743203 15.4324316,20.7005716 15.4324316,22.5986958 C15.4324316,24.4048299 14.9443748,24.8503472 14.7398765,25.4752031 Z" id="Path-6"></path>
        </g>
    </g>
</svg>