<svg id="Ruby_big" data-name="Ruby big" xmlns="http://www.w3.org/2000/svg" viewBox="0 0 256 256"><defs><style>.cls-1{fill:#92278f;}.cls-2{fill:#fff;}</style></defs><title>ruby</title><rect class="cls-1" width="256" height="256"/><path class="cls-2" d="M69.67,129.95v-0.16c0-15.64,12.19-28.46,28.85-28.46,8.33,0,13.84,1.89,18.79,5.35a6.05,6.05,0,0,1,2.52,4.87,6,6,0,0,1-6,6,5.9,5.9,0,0,1-3.69-1.26,19.27,19.27,0,0,0-12-3.77c-8.8,0-15.8,7.78-15.8,17.14v0.16c0,10.06,6.92,17.45,16.67,17.45a19.32,19.32,0,0,0,11.4-3.3v-7.86h-8.18A5.2,5.2,0,0,1,97,130.89a5.27,5.27,0,0,1,5.27-5.27h13.84a6,6,0,0,1,6.05,6.05V145a8.18,8.18,0,0,1-4.25,7.7,36.61,36.61,0,0,1-19.26,5.5C81.47,158.25,69.67,146.22,69.67,129.95Z" transform="translate(0.27 0)"/><path class="cls-2" d="M131.31,129.95v-0.16c0-15.64,12.34-28.46,29.32-28.46s29.17,12.66,29.17,28.3v0.16c0,15.64-12.34,28.46-29.32,28.46S131.31,145.59,131.31,129.95Zm45.83,0v-0.16c0-9.43-6.92-17.29-16.67-17.29S144,120.2,144,129.63v0.16c0,9.43,6.92,17.29,16.67,17.29S177.14,139.38,177.14,129.95Z" transform="translate(0.27 0)"/></svg>