<svg id="Ruby_big" data-name="Ruby big" xmlns="http://www.w3.org/2000/svg" viewBox="0 0 256 256"><defs><style>.cls-1{fill:#e77725;}.cls-2{fill:#fff;}</style></defs><title>ruby</title><rect class="cls-1" width="256" height="256"/><path class="cls-2" d="M44.36,105.92a4.82,4.82,0,0,1,9.64,0v12.9H71.79v-12.9a4.82,4.82,0,0,1,9.64,0v34.93a4.82,4.82,0,1,1-9.64,0V127.71H54v13.15a4.82,4.82,0,1,1-9.64,0V105.92Z" transform="translate(0.27 0)"/><path class="cls-2" d="M102.15,110.37H92.89a4.45,4.45,0,1,1,0-8.89h28.17a4.45,4.45,0,1,1,0,8.89h-9.27v30.49a4.82,4.82,0,1,1-9.64,0V110.37Z" transform="translate(0.27 0)"/><path class="cls-2" d="M132.52,106a4.78,4.78,0,0,1,4.82-4.82h1.06a5,5,0,0,1,4.38,2.5l11.65,19,11.71-19a4.72,4.72,0,0,1,4.32-2.44h1.06a4.78,4.78,0,0,1,4.82,4.82v34.81a4.79,4.79,0,1,1-9.58,0V119l-8.45,13a4.51,4.51,0,0,1-8,0L142,119.2V141a4.7,4.7,0,0,1-4.76,4.7,4.65,4.65,0,0,1-4.7-4.7V106Z" transform="translate(0.27 0)"/><path class="cls-2" d="M186.86,105.92a4.82,4.82,0,0,1,9.64,0v30.62h17.84a4.38,4.38,0,1,1,0,8.76H191.69a4.78,4.78,0,0,1-4.82-4.82V105.92Z" transform="translate(0.27 0)"/></svg>