<svg xmlns="http://www.w3.org/2000/svg" xmlns:xlink="http://www.w3.org/1999/xlink" viewBox="0 0 95.88 95.88"><defs><style>.cls-1,.cls-11{fill:none;}.cls-2{isolation:isolate;}.cls-3{fill:#fff;}.cls-4{clip-path:url(#clip-path);}.cls-10,.cls-5{mix-blend-mode:multiply;}.cls-6{fill:#dce9f6;}.cls-10,.cls-11,.cls-6,.cls-7,.cls-8{fill-rule:evenodd;}.cls-7{fill:url(#linear-gradient);}.cls-8{fill:#8dc6e1;}.cls-10,.cls-8{opacity:0.7;}.cls-9{fill:#006fba;}.cls-10{fill:#79bbda;}.cls-11{stroke-linecap:round;stroke-miterlimit:10;stroke-width:5.06px;stroke:url(#linear-gradient-2);}.cls-12{fill:url(#linear-gradient-3);}.cls-13{fill:url(#linear-gradient-4);}</style><clipPath id="clip-path" transform="translate(-0.12)"><circle class="cls-1" cx="47.94" cy="48.06" r="47.94"/></clipPath><linearGradient id="linear-gradient" x1="12.96" y1="73.47" x2="77.92" y2="18.97" gradientUnits="userSpaceOnUse"><stop offset="0" stop-color="#1b4a6e"/><stop offset="1" stop-color="#163b58"/></linearGradient><linearGradient id="linear-gradient-2" x1="65.57" y1="28.52" x2="70.97" y2="23.12" gradientUnits="userSpaceOnUse"><stop offset="0" stop-color="#fff" stop-opacity="0.25"/><stop offset="1" stop-color="#fff"/></linearGradient><linearGradient id="linear-gradient-3" x1="35.11" y1="58.38" x2="76.25" y2="17.24" gradientUnits="userSpaceOnUse"><stop offset="0" stop-color="#005d83" stop-opacity="0"/><stop offset="1" stop-color="#007b9b"/></linearGradient><linearGradient id="linear-gradient-4" x1="37.53" y1="55.75" x2="73.41" y2="19.87" gradientUnits="userSpaceOnUse"><stop offset="0" stop-color="#007b9b"/><stop offset="1" stop-color="#005d83" stop-opacity="0"/></linearGradient></defs><title>Asset 1</title><g class="cls-2"><g id="Layer_2" data-name="Layer 2"><g id="Layer_2-2" data-name="Layer 2"><circle class="cls-3" cx="47.94" cy="47.94" r="47.94"/><g class="cls-4"><g class="cls-5"><path class="cls-6" d="M84.27,41.29v0A29.25,29.25,0,1,0,30.32,56.93L15.11,72.14c-2.84,2.84-2.34,5.55-.25,7.64s4.71,2.51,7.56-.33l14.9-14.9A29.25,29.25,0,0,0,84.27,41.31Z" transform="translate(-0.12)"/></g><circle class="cls-3" cx="55.82" cy="37.86" r="26.5"/><path class="cls-7" d="M55.51,8.52A29.26,29.26,0,0,0,30.82,53.43L15.61,68.64c-2.84,2.84-2.34,5.55-.25,7.64s4.71,2.51,7.56-.33l14.9-14.9A29.25,29.25,0,1,0,55.51,8.52ZM67.43,58.09A23.56,23.56,0,1,1,79.09,37.77,23.5,23.5,0,0,1,67.43,58.09Z" transform="translate(-0.12)"/><path class="cls-8" d="M35.19,25.86A23.55,23.55,0,0,1,67.43,58.09,23.55,23.55,0,0,1,35.19,25.86Z" transform="translate(-0.12)"/><path class="cls-9" d="M50.19,49.63,57.45,25h4.24L54.43,49.63Z" transform="translate(-0.12)"/><polygon class="cls-9" points="48.46 27.02 37.06 34.13 37.06 34.33 37.06 39.49 37.06 39.69 48.46 46.8 48.46 41.44 41.2 36.91 48.46 32.38 48.46 27.02"/><polygon class="cls-9" points="63.17 27.02 74.58 34.13 74.58 34.33 74.58 39.49 74.58 39.69 63.17 46.8 63.17 41.44 70.44 36.91 63.17 32.38 63.17 27.02"/><path class="cls-10" d="M47.1,22.61a23.51,23.51,0,0,0-11.91,3.25A23.56,23.56,0,1,1,67.43,58.09,23.54,23.54,0,0,0,47.1,22.61Z" transform="translate(-0.12)"/><path class="cls-11" d="M61.48,20A18.85,18.85,0,0,1,73.68,33" transform="translate(-0.12)"/><path class="cls-12" d="M55.68,10.56A27.25,27.25,0,1,1,28.43,37.81,27.28,27.28,0,0,1,55.68,10.56m0-1.84A29.09,29.09,0,1,0,84.77,37.81,29.08,29.08,0,0,0,55.68,8.72Z" transform="translate(-0.12)"/><path class="cls-13" d="M55.47,14.27A23.54,23.54,0,1,1,31.93,37.81,23.53,23.53,0,0,1,55.47,14.27m0-1.84A25.38,25.38,0,1,0,80.86,37.81,25.41,25.41,0,0,0,55.47,12.43Z" transform="translate(-0.12)"/></g></g></g></g></svg>