<svg id="Layer_1" data-name="Layer 1" xmlns="http://www.w3.org/2000/svg" viewBox="0 0 1368 408"><defs><style>.cls-1,.cls-2{fill:none;}.cls-2{stroke:#fff;stroke-linecap:round;stroke-linejoin:round;stroke-width:0;}.cls-3{fill:#fff;}</style></defs><title>network-pattern</title><path class="cls-1" d="M371.88,302.25L126.66,277.94l16.22,19.87,128.53,78.12a5.71,5.71,0,0,1,6.79-2.44l93.71-70.28a5.69,5.69,0,0,1,0-.66Q371.87,302.4,371.88,302.25Z"/><polygon class="cls-1" points="376.74 300.26 377.06 302.22 376.74 300.26 376.74 300.26"/><polygon class="cls-1" points="275.02 378.71 275.02 378.71 275 378.75 275.02 378.71"/><polygon class="cls-1" points="378.05 303.58 378.02 303.55 378.05 303.58 378.05 303.58"/><path class="cls-1" d="M1061.11,240.41a5.71,5.71,0,0,1-9.51,5.87l-47.78,109.1a5.76,5.76,0,0,1,.63.26,5.68,5.68,0,0,1,2.45,2.27l216.26-72.2a5.71,5.71,0,0,1-.21-1.54q0-.21,0-0.42Z"/><path class="cls-1" d="M465.26,219.65a5.77,5.77,0,0,1,.28-0.51L285.62,162.44l-4.16,48.47a5.94,5.94,0,1,1-3.81,1.35L165.42,77a6,6,0,0,1-6-1.06L86.18,220.07l0.43,0.19a5.95,5.95,0,0,1,1.1,10l38.45,47.1,245.76,24.37a5.71,5.71,0,0,1,10.52-2.14l83.13-74.38A5.7,5.7,0,0,1,465.26,219.65Z"/><path class="cls-1" d="M143.91,299.08l67.49,82.67,59.52-4.8a5.73,5.73,0,0,1,.23-0.54Z"/><path class="cls-1" d="M99.53,274.27a5.71,5.71,0,0,1,10.76,1.5l15.11,1.5-38.12-46.7a5.95,5.95,0,0,1-4.78.79L36.25,298.74l62.88-23.39A5.72,5.72,0,0,1,99.53,274.27Z"/><path class="cls-1" d="M273,155.41a5.71,5.71,0,0,1,1.75,3l10.38,3.27L286.66,144Z"/><polygon class="cls-1" points="939.8 153.21 939.94 153.39 939.8 153.21 939.8 153.21"/><path class="cls-1" d="M110.1,278.52a5.71,5.71,0,0,1-5.43,3.94,5.69,5.69,0,0,1-2.48-.57,5.74,5.74,0,0,1-.68-0.39L84.86,391.94,210.74,381.8l-68.23-83.58Z"/><path class="cls-1" d="M84.35,391.65L101,281.14A5.72,5.72,0,0,1,99,276l-63.3,23.54L3.86,345.94l80.22,45.73L84,391.23Z"/><path class="cls-1" d="M141.48,297l-15.58-19.09-15.53-1.54q0,0.22,0,.43a5.66,5.66,0,0,1-.13,1.22Z"/><polygon class="cls-1" points="1320.42 296.73 1326.13 299.59 1320.42 296.73 1320.42 296.73"/><polygon class="cls-1" points="1319.5 297.46 1318.97 302.26 1319.5 297.46 1319.5 297.46"/><polygon class="cls-1" points="1227.48 284.94 1233.59 285.74 1227.48 284.94 1227.48 284.94"/><path class="cls-1" d="M1225.8,279.26L1120.29,75.75a5.73,5.73,0,0,1-2.39.52,5.67,5.67,0,0,1-1.68-.25l-58.29,161.07,0.29,0.13a5.68,5.68,0,0,1,2.61,2.56L1223,283.22A5.72,5.72,0,0,1,1225.8,279.26Z"/><polygon class="cls-1" points="1319.84 295.96 1319.87 295.9 1319.84 295.96 1319.84 295.96"/><path class="cls-1" d="M1221.36,39.15l6,239.47a5.71,5.71,0,0,1,6.87,6.65L1315.89,296a5.73,5.73,0,0,1,2.23-3l-1.24-3.29L1222.24,39A5.72,5.72,0,0,1,1221.36,39.15Z"/><path class="cls-1" d="M935.51,270.08a5.71,5.71,0,0,1,4.75-5.2l-0.38-105.68a5.72,5.72,0,0,1-4.16-2.35l-155,114.29a5.73,5.73,0,0,1,.84,3Z"/><path class="cls-1" d="M623.76,286.45a5.71,5.71,0,0,1,3.14,6.12l143.47-17a5.69,5.69,0,0,1,.38-3.92,5.77,5.77,0,0,1,.32-0.58L627.59,117a5.74,5.74,0,0,1-2.71.91L620.1,286A5.69,5.69,0,0,1,623.76,286.45Z"/><path class="cls-1" d="M869.24,384.87a5.67,5.67,0,0,1,1.7.26l66.52-110.32a5.72,5.72,0,0,1-2-4.19l-153.92,4a5.7,5.7,0,0,1-.54,1.95l-0.25-.12L781,276.6a5.71,5.71,0,0,1-8.45,2.16L702,365.09a5.73,5.73,0,0,1,1,3.27q0,0.12,0,.23l160.63,21A5.72,5.72,0,0,1,869.24,384.87Z"/><path class="cls-1" d="M1002,355.08a5.67,5.67,0,0,1,1.32.16l47.91-109.41a5.73,5.73,0,0,1-.94-1.86L946.71,269a5.71,5.71,0,0,1-8.82,6.14L871.46,385.33l0.25,0.11a5.68,5.68,0,0,1,2.36,2.12l122.18-26.68s0-.06,0-0.1A5.71,5.71,0,0,1,1002,355.08Z"/><polygon class="cls-1" points="868.07 389.98 868.46 390.22 868.46 390.22 868.07 389.98"/><path class="cls-1" d="M697.27,362.64a5.72,5.72,0,0,1,4.34,2l70.54-86.22a5.7,5.7,0,0,1-1.62-2.34L626.77,293.13a5.74,5.74,0,0,1-.36.94,5.68,5.68,0,0,1-2.33,2.49l69,67.94A5.72,5.72,0,0,1,697.27,362.64Z"/><polygon class="cls-1" points="868.07 389.98 868.07 389.98 868.03 389.96 868.07 389.98"/><line class="cls-2" x1="939.94" y1="153.39" x2="939.8" y2="153.21"/><path class="cls-3" d="M1223.6,28.31a5.71,5.71,0,1,0-2.79,10.84l6,239.63a5.76,5.76,0,0,0-.57.22L1120.78,75.5a5.68,5.68,0,0,0,2.27-2.45l-0.25-.12,0.25,0.12a5.71,5.71,0,1,0-7.62,2.65l0.29,0.13L1057.42,236.9a5.71,5.71,0,0,0-7.29,6.53L946.54,268.49a5.71,5.71,0,0,0-5.34-3.69H940.8l-0.38-105.6a5.71,5.71,0,1,0-5-2.83l-155,114.29a5.71,5.71,0,0,0-9.06-.09L628,116.64a5.7,5.7,0,1,0-3.7,1.24l-4.79,168.27a5.72,5.72,0,0,0-3.87,4.31L475.33,225q0.11-.19.21-0.39a5.71,5.71,0,0,0-5.06-8.2L474.93,0h-0.55l-4.45,216.44a5.72,5.72,0,0,0-4.07,2.22l-180.2-56.78,1.58-18.39L458.61,0h-0.85L287.31,142.72,299.57,0H299l-12.3,143.22-14.15,11.85a5.72,5.72,0,1,0,2.28,4l10.23,3.22-4.18,48.67a6,6,0,0,0-2.82,1L165.95,76.78A5.95,5.95,0,0,0,167.31,67L277.59,0h-1.05L166.86,66.64a6,6,0,0,0-.9-0.55h0a5.92,5.92,0,0,0-3.53-.54L170.93,0h-0.55l-8.52,65.67a6,6,0,0,0-4.45,5.18L0,49.08v0.55L157.39,71.4v0a6,6,0,0,0,1.66,4.13L85.66,219.89a6,6,0,0,0-7.61,5.71v0L0,220.48V221l78.08,5.15a6,6,0,0,0,3.3,4.77,6,6,0,0,0,.57.25L35.36,299.08,0,312.23v0.58l34.82-13L3.38,345.67,0,343.74v0.63l3.07,1.75L0,350.6v1l3.55-5.17,80.69,46,0,0.16h0.12L89,408h0.57l-4.44-14.74L99.2,408H100L85.14,392.47l126-10.16,21,25.68h0.71l-21-25.74,58.93-4.75a5.67,5.67,0,0,0-.16,1.35,5.73,5.73,0,0,0,1.38,3.73L264.1,408h0.57l7.73-25a5.73,5.73,0,0,0,3.62,1.53L283.18,408h0.57l-7.15-23.43a5.74,5.74,0,0,0,3.08-1.1L302.56,408h0.75l-23.2-24.87a5.71,5.71,0,0,0-1.32-9.4h0L372,303.81a5.71,5.71,0,0,0,5.56,4.45l0.45,0,15.4,95.82,0.63,3.95h0.55l-16-99.83a5.7,5.7,0,0,0,4.13-3.08L502.23,408h0.84L382.92,304.56a5.67,5.67,0,0,0,.37-2,5.73,5.73,0,0,0-.57-2.48l83.18-74.42a5.71,5.71,0,0,0,9.13-.17L615.59,291q0,0.28,0,.56a5.73,5.73,0,0,0,1.22,3.54L507.49,408h0.76l108.9-112.46a5.7,5.7,0,0,0,6.41,1.28l69.15,68.1a5.71,5.71,0,0,0,3,8.93L692.56,408h0.55l3.17-34a5.67,5.67,0,0,0,1,.09,5.73,5.73,0,0,0,3.67-1.33l12.52,12.35L736.69,408h0.78l-36.13-35.64a5.74,5.74,0,0,0,1.59-3.22l160.61,21q0,0.08,0,.16L844.07,408h0.81l18.65-17a5.71,5.71,0,0,0,5.45,5.25L878.32,408H879l-9.34-11.73a5.71,5.71,0,0,0,4.67-8.21l121.94-26.63a5.72,5.72,0,0,0,2.22,3.9l-10.68,21.18L977,408h0.61l9-17.89L999,365.64a5.78,5.78,0,0,0,.52.28,5.7,5.7,0,0,0,6.13-.74L1042.67,408h0.72l-24.48-28.28-12.9-14.9a5.71,5.71,0,0,0,1.14-6.4l216.18-72.17a5.72,5.72,0,0,0,.82,1.46L1116.28,408H1117l107.51-119.88a5.68,5.68,0,0,0,1.37,1.06L1196.94,408h0.56l20.68-84.89,8.2-33.68a5.71,5.71,0,0,0,7.41-2.75l-0.25-.12,0.25,0.12a5.75,5.75,0,0,0,.33-0.86l81.61,10.68a5.7,5.7,0,0,0,.35,3.45L1202.34,408h0.79l113.21-107.55a5.69,5.69,0,0,0,2.5,2.36l0.05,0L1307.3,408h0.55l11.58-104.95a5.68,5.68,0,0,0,1.9.33h0.33L1354.81,408h0.57l-2.68-8.45-30.49-96.24a5.7,5.7,0,0,0,4.17-3L1368,321.21V320.6l-41.38-20.76a5.71,5.71,0,0,0-1.17-6.13L1368,268.14V267.5h0l-43,25.82a5.74,5.74,0,0,0-3.18-1.33L1368,163h0v-1.62L1331,264.9,1321.27,292a5.73,5.73,0,0,0-2.68.7L1222.78,38.91a5.71,5.71,0,0,0,2.57-1.62L1368,133.52h0v-0.66h0l-87.72-59.18-54.58-36.82a5.73,5.73,0,0,0,1.13-3.27L1368,25V24.46L1226.81,33A5.71,5.71,0,0,0,1223.6,28.31ZM274.75,158.44a5.71,5.71,0,0,0-1.75-3L286.66,144l-1.52,17.73ZM82.5,231.36a5.95,5.95,0,0,0,4.78-.79l38.12,46.7-15.11-1.5a5.71,5.71,0,0,0-11.16-.41L36.25,298.74Zm27.87,45,15.53,1.54L141.48,297l-31.23-19a5.66,5.66,0,0,0,.13-1.22Q110.38,276.54,110.37,276.32ZM3.86,345.94l31.85-46.41L99,276a5.72,5.72,0,0,0,2,5.15L84.35,391.65l-0.4-.42,0.13,0.44Zm81,46,16.65-110.44a5.74,5.74,0,0,0,.68.39,5.7,5.7,0,0,0,7.62-2.65,5.76,5.76,0,0,0,.29-0.72l32.41,19.7,68.23,83.58Zm126.54-10.2-67.49-82.67,127.23,77.33a5.73,5.73,0,0,0-.23.54Zm63.62-3,0,0,0,0h0Zm3.18-5.23a5.71,5.71,0,0,0-6.79,2.44L142.88,297.81l-16.22-19.87,245.22,24.31q0,0.14,0,.29a5.69,5.69,0,0,0,0,.66Zm98.54-73.22h0l0.31,2Zm1.3,3.32h0l0,0Zm4.41-4a5.71,5.71,0,0,0-10.52,2.14L126.17,277.34l-38.45-47.1a5.95,5.95,0,0,0-1.1-10l-0.43-.19L159.46,75.94a5.94,5.94,0,0,0,6,1.06L277.64,212.27a5.95,5.95,0,1,0,3.81-1.35l4.16-48.47,179.92,56.69a5.77,5.77,0,0,0-.28.51,5.7,5.7,0,0,0,.32,5.55Zm840.71-13.85-216.26,72.2a5.68,5.68,0,0,0-2.45-2.27,5.76,5.76,0,0,0-.63-0.26l47.78-109.1a5.71,5.71,0,0,0,9.51-5.87L1223,283.77q0,0.21,0,.42A5.71,5.71,0,0,0,1223.17,285.72ZM939.8,153.21h0l0.13,0.18Zm-4.09,3.64a5.72,5.72,0,0,0,4.16,2.35l0.38,105.68a5.71,5.71,0,0,0-4.75,5.2l-153.91,4a5.73,5.73,0,0,0-.84-3Zm-310.83-39a5.74,5.74,0,0,0,2.71-.91L771.07,271a5.77,5.77,0,0,0-.32.58,5.69,5.69,0,0,0-.38,3.92l-143.47,17a5.7,5.7,0,0,0-6.8-6.57Zm-0.81,178.69a5.68,5.68,0,0,0,2.33-2.49,5.74,5.74,0,0,0,.36-0.94l143.76-17.05a5.7,5.7,0,0,0,1.62,2.34l-70.54,86.22a5.71,5.71,0,0,0-8.55-.15Zm78.9,72q0-.12,0-0.23a5.73,5.73,0,0,0-1-3.27l70.62-86.33a5.75,5.75,0,0,0,.83.49A5.71,5.71,0,0,0,781,276.6l-0.25-.12L781,276.6a5.7,5.7,0,0,0,.54-1.95l153.92-4a5.72,5.72,0,0,0,2,4.19L870.94,385.14a5.71,5.71,0,0,0-7.34,4.47ZM868.07,390h0l0,0,0,0,0.39,0.23h0Zm128.18-29.11L874.08,387.56a5.68,5.68,0,0,0-2.36-2.12l-0.25-.11,66.43-110.17a5.75,5.75,0,0,0,.83.49,5.71,5.71,0,0,0,8-6.63L1050.26,244a5.73,5.73,0,0,0,.94,1.86l-47.91,109.41a5.71,5.71,0,0,0-7,5.55S996.26,360.85,996.26,360.88ZM1223,283.22l-162.21-43.45a5.68,5.68,0,0,0-2.61-2.56l-0.29-.13L1116.23,76a5.67,5.67,0,0,0,1.68.25,5.73,5.73,0,0,0,2.39-.52l105.5,203.51A5.72,5.72,0,0,0,1223,283.22Zm4.44,1.72h0l6.11,0.8ZM1319,302.26l0.53-4.79h0Zm0.88-6.3h0l0-.06Zm0.57,0.77h0l5.71,2.86Zm-2.29-3.78a5.73,5.73,0,0,0-2.23,3l-81.62-10.68a5.71,5.71,0,0,0-6.87-6.65l-6-239.47a5.72,5.72,0,0,0,.88-0.11l94.64,250.62Z"/><polygon class="cls-3" points="8.53 0 0 24.39 0 26.05 9.11 0 8.53 0"/></svg>