<svg id="Objective_C" data-name="Objective C" xmlns="http://www.w3.org/2000/svg" viewBox="0 0 256 256"><defs><style>.cls-1{fill:#7e60a8;}.cls-2{fill:#fcfcfc;}.cls-3{fill:#fff;}</style></defs><title>obj-c</title><rect class="cls-1" width="256" height="256"/><path class="cls-2" d="M63.9,68.64h28v9.78h-18v97.93h18V186h-28V68.64Z"/><path class="cls-2" d="M192.89,186h-28v-9.78h18V78.25h-18V68.64h28V186Z"/><path class="cls-3" d="M153.46,165.68c-3.66,1.83-11,3.66-20.34,3.66-21.71,0-38.05-13.71-38.05-39,0-24.11,16.34-40.45,40.23-40.45,9.59,0,15.66,2.05,18.28,3.43l-2.4,8.11a36.23,36.23,0,0,0-15.55-3.2c-18.06,0-30.06,11.54-30.06,31.77,0,18.86,10.86,31,29.6,31,6.06,0,12.23-1.26,16.23-3.2Z"/></svg>