<svg id="Ruby_big" xmlns="http://www.w3.org/2000/svg" viewBox="0 0 256 256"><defs><style>.cls-1{fill:#d42327;}.cls-2{fill:#fff;}</style></defs><title>ruby_v2</title><rect class="cls-1" width="256" height="256"/><path class="cls-2" d="M128.9,198L44,107.92,74.92,78H181.36L212,107.91ZM51.77,108.33L128.86,190l75.44-81.61L179.12,84h-102Z"/><polygon class="cls-2" points="128.96 197.67 89.81 109.38 94.85 107.14 128.84 183.76 161.16 107.18 166.24 109.34 128.96 197.67"/><rect class="cls-2" x="48" y="105" width="160" height="6"/><polygon class="cls-2" points="91.42 112.07 73.54 83.99 78.28 81.14 93 103.95 127.89 79.36 162.8 103.96 177.76 81.13 182.48 84.01 164.35 112.06 127.89 86.29 91.42 112.07"/></svg>