<svg id="Ruby_big" data-name="Ruby big" xmlns="http://www.w3.org/2000/svg" viewBox="0 0 256 256"><defs><style>.cls-1{fill:#fff;}</style></defs><title>ruby</title><rect width="256" height="256"/><path class="cls-1" d="M57.77,53.79a5.93,5.93,0,0,0-8.38,8.38L67.53,80.32,49.4,98.45a5.93,5.93,0,0,0,4.17,10.13,5.74,5.74,0,0,0,4.22-1.75L77.94,86.65q6.35-6.32,0-12.68L57.77,53.79h0Zm79,44.69a5.77,5.77,0,0,0-4.23-1.75H93.64a6,6,0,0,0,0,11.95h38.92a6,6,0,0,0,4.23-10.2h0Z" transform="translate(0 0)"/></svg>