<svg id="Layer_1" data-name="Layer 1" xmlns="http://www.w3.org/2000/svg" viewBox="0 0 128.5 38.55"><defs><style>.cls-1,.cls-2,.cls-3,.cls-4,.cls-5{fill:#fff;}.cls-1{opacity:0.66;}.cls-2{opacity:0.51;}.cls-3{opacity:0.6;}.cls-4{opacity:0.49;}</style></defs><title>stage-logo-white-alt</title><polygon class="cls-1" points="12.47 5.54 21.47 20.57 8.37 20.61 0 5.58 12.47 5.54"/><polygon class="cls-1" points="23 18.15 32.37 33.51 19.23 33.55 10.6 18.19 23 18.15"/><polygon class="cls-2" points="9.29 25.26 19.53 25.22 9.9 9.61 0 9.65 9.29 25.26"/><polygon class="cls-3" points="24.63 0 33.92 15.78 20.69 15.82 11.15 0.05 24.63 0"/><polygon class="cls-4" points="32.6 17.78 38.05 26.75 30.39 26.77 24.7 17.81 32.6 17.78"/><path class="cls-5" d="M67.17,23.3a3.91,3.91,0,0,0-1.83-1A11.41,11.41,0,0,0,62.53,22H59.81a9.51,9.51,0,0,1-1.66-.12,1.75,1.75,0,0,1-1-.49,2.07,2.07,0,0,1-.49-1,9,9,0,0,1-.14-1.75,5.84,5.84,0,0,1,.21-1.75,1.92,1.92,0,0,1,.62-1,2.23,2.23,0,0,1,1-.41,9.07,9.07,0,0,1,1.42-.1h6.55V13.05H58.83q-3.27,0-4.6,1.58a6.68,6.68,0,0,0-1.32,4.42,12.71,12.71,0,0,0,.27,2.84,4.35,4.35,0,0,0,.9,1.89,3.58,3.58,0,0,0,1.62,1.05,7.77,7.77,0,0,0,2.44.33h2.92a13.34,13.34,0,0,1,2,.12,2.2,2.2,0,0,1,1.17.49,1.86,1.86,0,0,1,.55,1.05,9.65,9.65,0,0,1,.14,1.81,7.8,7.8,0,0,1-.21,2.07A2.18,2.18,0,0,1,64,31.81a2.05,2.05,0,0,1-1.09.45,12.3,12.3,0,0,1-1.46.08H53.61v2.34h8.61q3.43,0,4.85-1.58t1.42-4.93a12,12,0,0,0-.31-3A4.06,4.06,0,0,0,67.17,23.3Z" transform="translate(-7.79 -4.69)"/><path class="cls-5" d="M75.24,7.36h-4V29.45a8.1,8.1,0,0,0,.25,2.08,4.4,4.4,0,0,0,.82,1.66,3.69,3.69,0,0,0,1.52,1.09,6.25,6.25,0,0,0,2.36.39h3.35V32.34H77.81a2.57,2.57,0,0,1-2-.64,4.21,4.21,0,0,1-.53-2.51V15.39h5.42V13.05H75.24V7.36Z" transform="translate(-7.79 -4.69)"/><path class="cls-5" d="M96.25,14.55a3.8,3.8,0,0,0-1.81-1.15,9.93,9.93,0,0,0-2.88-.35h-7v2.34h5.61a7.47,7.47,0,0,1,1.69.16,1.73,1.73,0,0,1,1,.6,2.78,2.78,0,0,1,.49,1.27,13.17,13.17,0,0,1,.14,2.1V21.7H87.66a10.47,10.47,0,0,0-2.88.33A4.38,4.38,0,0,0,83,23,3.32,3.32,0,0,0,82,24.6a8.62,8.62,0,0,0-.25,2.2v2.77a8.61,8.61,0,0,0,.25,2.2,3.32,3.32,0,0,0,.94,1.6,4.39,4.39,0,0,0,1.81,1,10.48,10.48,0,0,0,2.88.33h9.78v-15a15.84,15.84,0,0,0-.25-3.06A4.47,4.47,0,0,0,96.25,14.55ZM89.07,32.34a8.44,8.44,0,0,1-1.69-.14,1.94,1.94,0,0,1-1-.49,1.89,1.89,0,0,1-.49-0.92,6.39,6.39,0,0,1-.14-1.46V26.84a5.72,5.72,0,0,1,.14-1.36,1.76,1.76,0,0,1,.49-0.88,2.17,2.17,0,0,1,1-.49A7.46,7.46,0,0,1,89.07,24h4.4v8.38h-4.4Z" transform="translate(-7.79 -4.69)"/><path class="cls-5" d="M103.48,13.4a3.79,3.79,0,0,0-1.81,1.15,4.46,4.46,0,0,0-.94,2.07,15.84,15.84,0,0,0-.25,3.06v8.38a15.77,15.77,0,0,0,.25,3.08,4.44,4.44,0,0,0,.94,2,3.79,3.79,0,0,0,1.81,1.15,9.92,9.92,0,0,0,2.88.35h6.55v2.1a13.28,13.28,0,0,1-.14,2.1,2.93,2.93,0,0,1-.49,1.29,1.78,1.78,0,0,1-1,.64,6.63,6.63,0,0,1-1.69.18h-3.78v2.26H111a9.93,9.93,0,0,0,2.88-.35,3.8,3.8,0,0,0,1.81-1.15,4.46,4.46,0,0,0,.94-2,15.84,15.84,0,0,0,.25-3.08V13.05H106.37A9.92,9.92,0,0,0,103.48,13.4Zm9.43,2V32.34h-5.14a7.42,7.42,0,0,1-1.69-.16,1.73,1.73,0,0,1-1-.6,2.78,2.78,0,0,1-.49-1.27,13.19,13.19,0,0,1-.14-2.1V19.52a13.19,13.19,0,0,1,.14-2.1,2.78,2.78,0,0,1,.49-1.27,1.73,1.73,0,0,1,1-.6,7.46,7.46,0,0,1,1.69-.16h5.14Z" transform="translate(-7.79 -4.69)"/><path class="cls-5" d="M136,16a3.32,3.32,0,0,0-.94-1.6,4.41,4.41,0,0,0-1.81-1,10.51,10.51,0,0,0-2.88-.33H126a9.92,9.92,0,0,0-2.88.35,3.79,3.79,0,0,0-1.81,1.15,4.46,4.46,0,0,0-.94,2.07,15.84,15.84,0,0,0-.25,3.06v8.38a15.77,15.77,0,0,0,.25,3.08,4.44,4.44,0,0,0,.94,2,3.79,3.79,0,0,0,1.81,1.15,9.92,9.92,0,0,0,2.88.35h8.77V32.34h-7.36a7.42,7.42,0,0,1-1.69-.16,1.73,1.73,0,0,1-1-.6,2.78,2.78,0,0,1-.49-1.27,13.19,13.19,0,0,1-.14-2.1V25.64h6.35a10.44,10.44,0,0,0,2.88-.33,4.38,4.38,0,0,0,1.81-1,3.32,3.32,0,0,0,.94-1.6,8.65,8.65,0,0,0,.25-2.2V18.15A8.66,8.66,0,0,0,136,16Zm-3.72,4.54a5.75,5.75,0,0,1-.14,1.36,1.76,1.76,0,0,1-.49.88,2.15,2.15,0,0,1-1,.49,7.42,7.42,0,0,1-1.69.16h-4.95V19.52a13.19,13.19,0,0,1,.14-2.1,2.78,2.78,0,0,1,.49-1.27,1.73,1.73,0,0,1,1-.6,7.46,7.46,0,0,1,1.69-.16H129a8.49,8.49,0,0,1,1.69.14,1.94,1.94,0,0,1,1,.49,1.9,1.9,0,0,1,.49.94,6.49,6.49,0,0,1,.14,1.44v2.1Z" transform="translate(-7.79 -4.69)"/></svg>