<svg id="Ruby_big" data-name="Ruby big" xmlns="http://www.w3.org/2000/svg" viewBox="0 0 256 256"><defs><style>.cls-1{fill:#fa5c2c;}.cls-2{fill:#fff;}</style></defs><title>ruby</title><rect class="cls-1" width="256" height="256"/><path class="cls-2" d="M171.07,191.05C150,203.24,121,204.49,91.82,192A124,124,0,0,1,36,144.25a94,94,0,0,0,20.6,12.56c30.13,14.12,60.25,13.15,81.44,0l0,0c-30.15-23.12-55.78-53.27-74.88-77.89-4-4-7-9-10.05-13.57,23.12,21.11,59.8,47.74,72.87,55.28C98.35,91.48,73.73,55.3,74.73,56.3c43.72,44.22,84.43,69.35,84.43,69.35,1.35,0.76,2.39,1.39,3.22,2a66.12,66.12,0,0,0,2.3-7c7-25.63-1-54.78-18.59-78.9,40.7,24.62,64.83,70.86,54.77,109.55q-0.39,1.57-.85,3.09l0.35,0.43c20.1,25.13,14.57,51.76,12.06,46.74-10.9-21.34-31.09-14.81-41.35-10.48h0Z" transform="translate(0.27 0)"/></svg>