<svg id="Ruby_big" data-name="Ruby big" xmlns="http://www.w3.org/2000/svg" viewBox="0 0 256 256"><defs><style>.cls-1{fill:#007acc;}.cls-2{fill:#fff;}</style></defs><title>ruby</title><rect class="cls-1" width="256" height="256"/><path class="cls-2" d="M168.92,180a43.76,43.76,0,0,1-22-5.21,35.37,35.37,0,0,1-14.07-14.22,0.89,0.89,0,0,1,.35-1.45q7.46-4.31,14.9-8.65c0.61-.36.86,0,1.13,0.42a30,30,0,0,0,7.49,8,17.84,17.84,0,0,0,8.14,3.06,20.17,20.17,0,0,0,9.39-.7,11,11,0,0,0,5.81-4c2.11-3,2.17-9-2.09-12.06a53.49,53.49,0,0,0-8.89-4.83c-5-2.35-10-4.52-14.89-7.09a29.38,29.38,0,0,1-13.13-13.09,22.06,22.06,0,0,1-2.42-10,50.3,50.3,0,0,1,.21-7.5,24,24,0,0,1,11.69-17.24,27,27,0,0,1,11.42-4,77.75,77.75,0,0,1,8.86-.11,28.69,28.69,0,0,1,8,1.21,27.23,27.23,0,0,1,13.95,9.91c0.86,1.11,1.64,2.28,2.47,3.42a0.9,0.9,0,0,1-.29,1.49q-6.92,4.59-13.81,9.21a0.76,0.76,0,0,1-1.16-.18c-0.58-.72-1.16-1.45-1.69-2.21a11.66,11.66,0,0,0-8.45-5.34c-3.25-.35-6.42-0.21-9,2.13a7.56,7.56,0,0,0-2.46,5.22c-0.38,4.28,1.58,7.31,5.21,9.24,3.35,1.78,6.81,3.34,10.27,4.92,5.88,2.68,11.76,5.35,17,9.23a25.65,25.65,0,0,1,10.51,18.07,30.25,30.25,0,0,1-1.57,15.16c-2.43,6.22-7,10.48-12.87,13.39a37.76,37.76,0,0,1-12,3.53C172.94,179.93,170.92,179.89,168.92,180Z" transform="translate(0.27 0)"/><path class="cls-2" d="M99.45,139.38q0,19.08,0,38.17c0,1.27,0,1.27-1.29,1.27H80.83c-1.28,0-1.28,0-1.28-1.31q0-38.08,0-76.15c0-1.4,0-1.4-1.41-1.4H53.07c-1.2,0-1.21,0-1.21-1.17,0-4.88,0-9.76,0-14.64,0-1.92,0-1.92,2-1.93,14.19,0,28.37-.1,42.56-0.11,9.88,0,19.75.08,29.63,0.09a0.89,0.89,0,0,1,1.08,1.08c0,5.09.09,10.17,0.14,15.26,0,1.41,0,1.41-1.37,1.41H100.84c-1.38,0-1.38,0-1.38,1.34Q99.45,120.34,99.45,139.38Z" transform="translate(0.27 0)"/></svg>