<svg id="HTML5" xmlns="http://www.w3.org/2000/svg" viewBox="0 0 255.82 256"><defs><style>.cls-1{fill:#bbb;}.cls-2{fill:#fff;}</style></defs><title>html5</title><rect class="cls-1" width="255.82" height="256"/><path class="cls-2" d="M120.45,146.09q0-10.71,2.6-17.06t9.52-12.51q6.91-6.16,9.21-10a15.76,15.76,0,0,0,2.29-8.16q0-12.93-11.92-12.94a12.07,12.07,0,0,0-9.06,3.49q-3.4,3.48-3.55,9.61H97.37q0.15-14.61,9.44-22.87t25.34-8.26q16.2,0,25.15,7.84t8.94,22.15a27,27,0,0,1-2.9,12.28q-2.91,5.78-10.17,12.81L147,128.34a21,21,0,0,0-6.65,13.08L140,146.09H120.45Zm-2.22,23.43a11.12,11.12,0,0,1,3.48-8.42,13.62,13.62,0,0,1,17.81,0,11.88,11.88,0,0,1,.08,16.72,13.94,13.94,0,0,1-18,0A11,11,0,0,1,118.23,169.52Z" transform="translate(-0.18 0)"/></svg>