<svg id="Ruby_big" data-name="Ruby big" xmlns="http://www.w3.org/2000/svg" viewBox="0 0 256 256"><defs><style>.cls-1{fill:#6e9fd4;}.cls-2{fill:#fff;}</style></defs><title>ruby</title><rect class="cls-1" width="256" height="256"/><path class="cls-2" d="M55.57,137.54L67.4,123,56.26,109.43a5.9,5.9,0,0,1-1.44-3.57,4.64,4.64,0,0,1,4.76-4.76A5.06,5.06,0,0,1,64,103.48l9.58,12.77,9.52-12.52c1.31-1.69,2.57-2.63,4.7-2.63a4.4,4.4,0,0,1,4.38,4.44,5.73,5.73,0,0,1-1.44,3.69L79.61,122.89l11.77,14.46a5.89,5.89,0,0,1,1.44,3.57,4.64,4.64,0,0,1-4.76,4.76,5.06,5.06,0,0,1-4.45-2.38L73.35,129.84,63.21,143c-1.31,1.69-2.57,2.63-4.7,2.63a4.4,4.4,0,0,1-4.38-4.45A5.73,5.73,0,0,1,55.57,137.54Z" transform="translate(0.27 0)"/><path class="cls-2" d="M99.46,140.67A4.5,4.5,0,0,1,97.64,137a4.44,4.44,0,0,1,4.51-4.45,4.64,4.64,0,0,1,2.75.88,18.48,18.48,0,0,0,11.21,3.94c3.94,0,6.32-1.57,6.32-4.13v-0.12c0-2.44-1.5-3.69-8.83-5.57-8.83-2.25-14.52-4.7-14.52-13.4v-0.12c0-8,6.39-13.21,15.34-13.21a25.45,25.45,0,0,1,13.9,3.88,4.46,4.46,0,0,1-2.38,8.26,4.63,4.63,0,0,1-2.44-.69,18.23,18.23,0,0,0-9.2-2.94c-3.69,0-5.63,1.69-5.63,3.82v0.13c0,2.88,1.88,3.82,9.45,5.76,8.89,2.32,13.9,5.51,13.9,13.15v0.13c0,8.7-6.64,13.59-16.09,13.59A28.29,28.29,0,0,1,99.46,140.67Z" transform="translate(0.27 0)"/><path class="cls-2" d="M140.41,105.92a4.82,4.82,0,0,1,9.64,0v30.62h17.84a4.38,4.38,0,0,1,0,8.76H145.23a4.78,4.78,0,0,1-4.82-4.82V105.92Z" transform="translate(0.27 0)"/><path class="cls-2" d="M183.11,110.37h-9.27a4.45,4.45,0,1,1,0-8.89H202a4.45,4.45,0,1,1,0,8.89h-9.27v30.49a4.82,4.82,0,1,1-9.64,0V110.37Z" transform="translate(0.27 0)"/></svg>